<?xml version="1.0" encoding="UTF-8"?>
<!DOCTYPE svg PUBLIC "-//W3C//DTD SVG 1.1//EN" "http://www.w3.org/Graphics/SVG/1.1/DTD/svg11.dtd">
<!-- Creator: CorelDRAW X6 -->
<svg xmlns="http://www.w3.org/2000/svg" xml:space="preserve" width="100.696mm" height="115.07mm" version="1.1" style="shape-rendering:geometricPrecision; text-rendering:geometricPrecision; image-rendering:optimizeQuality; fill-rule:evenodd; clip-rule:evenodd"
viewBox="0 0 896 1024"
 xmlns:xlink="http://www.w3.org/1999/xlink">
 <defs>
  <style type="text/css">
   <![CDATA[
    .fil0 {fill:#2B2A29}
    .fil23 {fill:#5B5B5B}
    .fil8 {fill:#727271}
    .fil22 {fill:#898989}
    .fil28 {fill:#9D9E9E}
    .fil18 {fill:#B2B3B3}
    .fil17 {fill:#C5C6C6}
    .fil20 {fill:#D9DADA}
    .fil11 {fill:#EBECEC}
    .fil6 {fill:#FEFEFE}
    .fil25 {fill:#130B01}
    .fil10 {fill:#13120D}
    .fil1 {fill:#181713}
    .fil19 {fill:#1A1608}
    .fil12 {fill:#1A1A15}
    .fil4 {fill:#1C1302}
    .fil15 {fill:#1F201B}
    .fil21 {fill:#211E16}
    .fil24 {fill:#221401}
    .fil7 {fill:#23221D}
    .fil9 {fill:#252521}
    .fil3 {fill:#271C07}
    .fil16 {fill:#282723}
    .fil14 {fill:#2A2617}
    .fil31 {fill:#2B230A}
    .fil13 {fill:#312F28}
    .fil2 {fill:#33322C}
    .fil27 {fill:#342C16}
    .fil5 {fill:#353532}
    .fil26 {fill:#383527}
    .fil29 {fill:#453C26}
    .fil30 {fill:#A89875}
    .fil33 {fill:#B8A986}
    .fil34 {fill:#D9CBA5}
    .fil32 {fill:#DDD2A7}
   ]]>
  </style>
 </defs>
 <g id="Layer_x0020_1">
  <metadata id="CorelCorpID_0Corel-Layer"/>
  <path class="fil0" d="M393 977c-18,-3 -112,-34 -121,-42 44,-4 91,26 121,42zm313 -61c11,-24 35,-50 59,-59l-44 46c-5,6 -10,8 -15,13zm-17 14c5,-10 10,-20 16,-31 14,-24 42,-54 73,-56 -7,9 -43,20 -62,48 -13,19 -12,30 -27,39zm116 -114c5,-16 18,-31 33,-35 -3,6 -30,32 -33,35zm-25 23c3,-17 9,-34 18,-45 15,-20 24,-24 39,-21 0,0 -1,1 -1,1l-5 3c-45,21 -21,43 -51,62zm-9 -62c3,8 -1,2 7,1 7,-2 2,-3 7,0 9,-1 3,-1 11,-3 12,-4 -2,4 12,-2 7,-3 2,-2 13,-3l-9 7c-15,10 -25,23 -31,41l-7 20c-20,7 -29,13 -44,23 -13,9 -20,23 -31,38 4,-24 21,-54 35,-58 -39,19 -28,43 -48,80 -26,-1 -41,-16 -92,12l-76 45c19,-2 54,-31 75,-41 44,-21 51,-19 96,-7 -6,2 -43,-3 -66,3 -69,22 -86,76 -150,36 0,0 -5,-4 -5,-4 -4,-3 -2,-1 -3,-4 -16,-6 -26,-20 -45,-25l63 46c1,-1 1,1 2,1 -19,-2 -51,-18 -68,-28 -3,-1 -6,-3 -9,-5l-9 -7c-13,-1 -35,-21 -50,-22l0 1 72 41c23,12 58,28 87,28 40,1 57,-24 79,-36 19,-12 67,-30 92,-18 -15,8 -40,15 -57,22 -20,8 -38,18 -56,26 10,-11 22,-19 38,-27 15,-8 40,-10 52,-17 -37,-4 -83,26 -99,41 -38,34 -45,34 -101,14 -59,-20 -43,-15 -98,-42 -89,-45 -85,-11 -106,-31 99,-25 194,116 285,72 10,-6 13,-8 16,-14 -35,8 -31,34 -108,2 -16,-6 -34,-15 -48,-23 -13,-7 -33,-20 -44,-24 -6,-1 -3,0 -8,-2 0,-1 -3,-2 -4,-3 0,-1 -1,-1 -2,-2 -28,-16 -62,-17 -94,-9 -6,-8 -8,-7 -13,-15 1,0 1,-1 2,-1 0,0 1,-1 1,-1l4 -2c24,-10 66,7 86,17l0 -3c-8,-7 -32,-15 -43,-17 -22,-6 -35,-4 -54,3l-4 -5 -6 0c10,24 36,41 61,52 -56,-12 -58,-31 -133,-9 4,-9 14,-29 22,-34l-7 -2c3,-8 5,-17 7,-25 5,-24 7,-21 2,-24 -4,24 -13,50 -23,71 -19,36 -54,45 -39,47l-1 1 6 -6c45,-33 79,-44 142,-19 -47,-1 -97,-9 -126,25 28,-12 47,-26 87,-21 -30,7 -58,17 -73,36 29,-13 49,-32 91,-32 -22,10 -60,16 -78,44 11,-7 16,-12 30,-18 -4,8 -4,7 -10,14 6,-12 42,-32 66,-34 -26,12 -70,37 -71,62 3,-4 1,-1 6,-6 7,-5 3,-2 7,-4 6,-11 24,-20 35,-26 58,-35 85,-22 146,-5 32,9 63,19 94,29 81,27 84,-10 178,-45 15,-6 29,-11 44,-17 37,-15 90,-84 112,-103 13,-10 36,-42 46,-49 4,-9 8,-8 14,-15 -1,-14 -5,-15 -14,-22 -21,-5 -47,-5 -65,12 -3,3 -2,0 -3,4z"/>
  <path class="fil0" d="M552 885c-20,-6 -30,-22 -33,-24l22 -13c-8,17 -1,31 11,37zm-191 -74c7,-3 23,12 35,19 10,6 26,15 37,19 -81,2 -52,-17 -72,-38zm296 -101c-2,11 -9,21 -11,34 -6,25 3,29 -14,43l-31 25c-4,3 -9,4 -13,-1l10 -14c9,-13 14,-10 26,-27l14 5 4 -43c-8,8 -19,20 -17,35l-10 -14 -11 16c-19,21 -11,7 -29,32l-6 8c-15,1 -74,2 -84,-6 -6,0 -1,1 -7,0 -12,-3 3,3 -3,-3l-7 0c-12,-2 -31,-11 -43,-17l-12 -9c-6,0 -11,-4 -15,-8 -10,-3 -19,-10 -30,-15 -9,-4 -21,-7 -32,-9 -24,-5 -57,-10 -76,1l11 11c47,-10 96,8 129,30 51,34 96,30 125,39 -15,2 -32,12 -52,14 -42,4 -58,-16 -86,-37 -29,-21 -38,-18 -23,-24 -16,-2 -79,-31 -101,-10 15,-4 4,-2 6,4 15,-5 39,-7 54,0 6,2 3,2 5,3 -12,0 -32,-4 -41,3 7,0 14,0 21,0 2,0 8,1 10,1l8 -2c-17,0 -25,-1 -33,1 -7,3 -4,2 -6,4 85,-6 80,17 131,47 65,39 79,-10 140,-3 -14,6 -46,15 -63,19 -90,21 -107,-48 -180,-53 10,7 7,3 9,2 -6,0 -13,-1 -19,0 -10,0 -12,1 -17,5 31,-3 56,-4 73,14 4,39 19,42 59,43 -2,1 -1,0 -6,2 -56,17 -82,-32 -133,-29 -1,0 -2,0 -2,1 -4,9 -1,1 -5,3 -4,2 -1,-1 -6,3 31,3 36,-1 65,13 20,10 33,21 62,19 31,-2 37,-12 73,-4 18,4 45,19 50,29 3,-2 3,-1 2,-2 2,3 -2,2 4,2l2 0c0,0 1,-1 1,-1 0,0 1,0 1,0 2,0 12,5 17,6 9,2 31,5 41,2l19 -1c-6,-4 -21,-8 -26,-12 -7,-5 -9,-18 -7,-29 -7,7 -3,12 -2,22 -5,-3 -8,-4 -11,-12l-2 -17c-6,18 -3,31 13,35l-7 0c-9,-2 -16,-12 -18,-19 -7,-19 3,-22 16,-27 -14,1 -25,8 -36,14 -19,10 -20,1 -40,3 7,4 18,4 28,10 13,7 16,11 19,21 -17,-5 -43,-33 -61,-30 32,-6 37,-11 65,-22 39,-16 39,-4 73,-1 4,-6 -4,-1 7,-6 -7,-1 -9,-3 -13,-7 11,2 6,-1 14,2l13 -3c15,-13 14,-17 25,-37 1,-17 1,-34 6,-49 1,-5 4,-14 7,-19 1,-3 2,-3 4,-7 5,-8 2,0 5,-12l-16 10c-6,6 0,-2 -4,5z"/>
  <path class="fil1" d="M458 232l7 19c-9,-5 -4,-6 -12,-9l-5 19 -5 -19c-7,3 -3,2 -10,7l5 -16 20 -1zm74 -177c-5,3 -2,-2 -2,10 0,18 1,59 -2,76 0,3 0,3 -1,5l-10 -5c-3,29 0,44 -18,62 -34,34 -86,24 -105,-4 -15,-22 -13,-31 -13,-60 -12,-9 4,1 -5,-1 0,0 -1,0 -1,0 -6,-1 -7,-3 -8,-7l-3 -77 -2 202c3,11 26,2 32,37l108 0c3,-33 28,-26 31,-37l-1 -201z"/>
  <path class="fil1" d="M200 382l17 0c2,28 -44,36 -61,23 -1,-13 6,-18 17,-22l-4 4c-2,2 -2,2 -4,4 -5,4 -4,3 -5,10l4 6c20,4 46,-3 49,-21l-13 -4zm-32 -34c13,3 17,21 20,35 2,12 3,9 -3,13 -4,-7 -3,-13 -7,-24 -4,-10 -8,-14 -10,-24zm-50 7c0,10 7,20 10,30 13,-4 28,-16 43,-14 -15,6 -27,7 -40,18l6 12c11,12 -3,15 19,20l-11 1c4,10 7,19 13,25 10,-1 16,-3 22,-8l-20 -2c29,1 40,-4 63,-15 15,-8 34,-21 32,-43 -16,-23 -38,-12 -65,-10 3,-6 3,-5 13,-6 14,-3 33,-4 45,3 24,13 6,31 -1,45l40 -15c-3,-30 1,-29 16,-43l-9 -25 -4 4c-7,6 -6,4 -9,4 4,0 1,-3 0,-6 -4,2 -4,1 -8,4l-1 7c0,1 0,1 0,2 -4,7 -5,-10 -4,10l-6 -8c-4,3 -4,2 -6,6 -1,-14 5,-8 -9,-8l4 -4c2,-3 1,0 1,-5 -6,-4 -2,-2 -8,-4 -1,9 -5,13 -11,15 -11,5 -7,1 -21,0 0,-7 -1,-6 1,-11 0,-3 1,-4 2,-6 5,-8 0,4 2,-2l-2 -18 27 2c-18,-3 0,1 -9,-6l-29 -5c-7,5 -5,-4 -4,11 0,1 2,9 2,11 1,7 3,15 4,22 -9,-10 -17,-23 -27,-35 -9,10 -16,22 -25,32 2,-12 7,-31 4,-41 -14,21 -2,16 -9,22 0,5 1,12 -3,14l-5 -2c-1,9 1,6 -2,12 -22,-1 -8,0 -21,3 -1,5 -6,-7 0,7z"/>
  <path class="fil0" d="M348 525c3,-8 9,-17 12,-24l15 -22c25,-32 92,-80 123,-97l-36 35c-6,6 -15,10 -20,16 -26,32 -18,14 -42,46 -22,29 -21,50 -27,59l-12 -7c14,-36 37,-58 41,-69l-23 22c-3,5 -2,3 -5,7 -10,17 -11,19 -16,40l-10 -6zm176 -175c-16,24 -107,75 -129,94l-22 22c-5,4 -15,20 -19,27 -7,11 -9,18 -13,30l-22 -8c-6,2 0,3 -7,0 -6,-2 0,4 -4,-4 -15,-2 -31,-8 -47,-11 -16,-3 -33,-5 -49,-6 -3,5 2,3 -10,6 14,7 70,8 100,21 -1,4 -2,9 -4,14 -5,12 0,10 -13,8 -1,1 -4,4 -5,5l-1 4c31,0 104,43 128,63 12,11 32,36 40,54 14,30 14,46 15,83 -3,-9 8,-34 -7,-76 -9,-24 -21,-43 -36,-58 -20,-20 -76,-62 -117,-70l9 -24c52,9 122,58 149,107 8,15 20,48 18,67 4,4 2,-3 4,9 1,3 1,9 1,12 5,-3 3,-5 3,-14 0,-5 0,-12 0,-17 -1,-10 -4,-21 -7,-29 -14,-43 -42,-78 -77,-104 -8,-6 -13,-8 -21,-13 2,-17 20,-50 28,-59 13,-14 28,-33 42,-45 23,-19 48,-48 66,-65 5,-4 6,-6 10,-11 4,-6 5,-8 11,-10 10,-13 26,-32 35,-50l0 15c11,-34 21,-42 19,-87 -2,-31 -15,-57 -30,-73 3,37 26,25 19,106l-5 -15c-4,-23 -4,-17 -12,-37 3,37 23,67 -16,114 -5,7 -17,21 -24,25z"/>
  <path class="fil0" d="M546 360c-2,16 -37,45 -48,57 -7,7 -5,7 -14,13l-28 24c-7,8 -6,7 -13,14 -15,14 -36,51 -24,77 10,22 38,32 51,58l1 -9c-2,0 -39,-43 -42,-51 -12,-28 10,-53 21,-67 11,9 55,75 53,99 12,-4 4,2 6,-8 1,-5 -4,-18 -6,-23 -8,-22 -29,-57 -43,-73 9,6 13,14 21,22 7,7 5,5 10,12 12,16 15,15 30,40 6,10 10,20 16,29 -10,16 -22,22 -31,44 -9,19 -11,42 -9,67 1,-8 5,-27 12,-34 -1,-13 25,-42 36,-49 3,19 6,40 3,60 2,-1 5,-2 5,-2 1,0 2,-5 2,-8 1,-8 0,-17 1,-24 1,-13 -3,-22 -3,-35 15,-5 32,-17 53,-24 20,-7 48,-6 66,-13 -3,-1 -10,-1 -12,-2l-10 -4c-42,5 -85,21 -114,48 -10,9 -16,20 -25,30 8,-38 59,-71 105,-83 55,-16 107,-2 164,-25 -15,-1 -88,15 -100,8l-27 3c-4,-6 -2,7 0,-2l2 -3 -16 3c-28,12 -50,7 -95,40 -1,-1 -22,-41 -34,-57l-43 -51 49 -44c3,-8 5,-9 10,-15 6,-6 7,-8 12,-15 5,-7 17,-29 20,-31l5 -20c-2,3 -5,7 -8,12 -5,8 -2,7 -9,12z"/>
  <path class="fil0" d="M780 480c-16,26 -102,41 -125,46l-2 3c-2,9 -4,-4 0,2l27 -3c23,3 103,-24 127,-63 12,-20 8,-35 15,-50 7,53 -23,85 -57,101 34,-2 63,-20 84,-43 26,-28 32,-50 31,-97 14,21 7,63 -4,86 -3,6 -6,11 -9,15 -6,9 -30,30 -43,37 -49,26 -115,33 -174,36l10 4c2,1 9,1 12,2 19,3 80,-7 100,-12 75,-17 139,-69 121,-154 -4,-23 -14,-32 -14,-43 -11,-7 -28,-37 -49,-40 1,10 5,6 18,20 28,28 27,56 23,92 -5,-7 -4,-20 -6,-30 -5,-24 -19,-52 -44,-59 7,17 29,19 40,60 7,24 7,50 -9,69 -6,7 -1,3 -9,7 7,-25 16,-36 6,-69 -6,-22 -19,-40 -38,-46 6,12 37,22 37,74 0,16 -3,33 -10,45 -5,9 -19,22 -32,25 9,-16 24,-27 24,-63 1,-22 -14,-54 -31,-52 29,47 5,90 -19,100z"/>
  <path class="fil0" d="M34 318c-4,10 -40,42 -33,102 8,73 72,112 136,132 19,6 95,22 111,20 5,-1 7,-1 10,-2 0,0 3,-1 4,-1 5,-2 1,1 4,-2l-23 -4c-86,-12 -192,-29 -225,-116 -11,-27 -14,-69 3,-92 -3,46 -2,77 31,107 15,13 14,20 50,36 21,10 150,44 178,50 1,-1 4,-4 5,-5 -29,-8 -64,-18 -94,-27 -34,-11 -57,-22 -80,-40 26,10 57,26 91,24 12,-3 7,-1 10,-6l-24 -2c-42,-8 -66,-13 -92,-36 -23,-20 -32,-62 -5,-86 0,-10 1,-3 -5,-6 -10,13 -19,19 -19,44 -1,54 44,80 88,103 -15,-1 -56,-20 -68,-27 -59,-35 -82,-111 -44,-160 5,-7 6,-7 13,-12 8,-6 8,-3 7,-11 -13,2 -19,12 -29,17z"/>
  <path class="fil0" d="M579 869c-4,-20 13,-25 31,-23 16,2 35,4 35,21 1,33 -61,23 -66,2zm101 -120l-6 -5c1,-1 0,-1 0,-1l-4 3c-1,3 -3,8 -5,12 -3,8 -3,5 -4,12 -1,8 1,2 -2,8 -2,4 -2,2 -4,4 -11,20 -10,24 -25,37l-13 3c-8,-3 -3,0 -14,-2 4,4 6,6 13,7 -11,5 -3,0 -7,6 9,2 12,4 19,9 -21,-2 -52,-11 -56,14 -2,11 0,24 7,29 5,4 20,8 26,12l-19 1c-3,6 -10,8 -14,13 98,1 67,-27 95,-37l4 32c1,-15 0,-29 6,-40 -3,-3 -2,-2 -4,-5 -2,-2 -2,-1 -3,-4l-13 5c4,-16 8,-3 32,-27 11,-10 23,-18 33,-28 24,-25 14,-54 23,-94 -8,15 -8,26 -10,45 -2,44 -10,34 -29,58 -8,11 -37,30 -51,37 -8,-17 -3,-13 7,-28 17,-27 10,-17 27,-36 2,-2 16,-17 16,-18 2,-3 9,-18 10,-21l23 -40c9,-12 8,-7 19,-15 6,4 2,-4 2,5 1,0 1,-1 2,-1l3 -4c7,-5 8,-5 14,-3 -4,6 -1,1 -5,8 -4,6 -1,0 -4,8 -5,10 -5,11 -5,26l7 -5c7,-6 11,-24 16,-35l2 -3c0,0 3,-3 4,-4 -13,-19 -44,-4 -57,7 -9,8 -25,30 -32,47 -13,32 -16,27 -31,49 -6,8 -12,15 -18,23 -14,18 -9,18 -18,19 2,-7 18,-31 23,-40 7,-11 17,-28 20,-43z"/>
  <path class="fil2" d="M186 182c0,-4 -1,-7 1,-10l5 7 9 -6 -3 10 10 -1 -9 6 6 5c-4,2 6,4 -8,1l0 10 -6 -8 -6 9 0 -12 -10 2 11 -13zm-96 -2c14,3 -5,-4 3,2 11,9 9,3 14,14l1 2c3,3 4,-3 11,3l8 5c1,0 1,0 2,0 0,0 1,1 1,1 8,3 7,4 10,11l7 11c-2,-18 0,-9 5,-12 5,3 22,27 24,36 13,-8 4,-2 13,-17l9 -12c7,-1 -3,-9 4,3 1,0 14,0 -3,-14 17,3 19,-2 30,3 5,3 2,2 5,3 3,-5 0,-7 6,-12l-21 -48c-7,0 -17,0 -25,-4 -8,-3 -8,-9 -16,-14 -11,4 -84,34 -88,39z"/>
  <path class="fil3" d="M358 217c3,-29 0,-111 0,-152 0,-18 -3,-38 4,-45 8,-8 164,-8 172,0 6,5 3,1 4,11 3,35 -4,148 0,191 1,14 4,69 -8,74 -21,3 -61,1 -84,1l-77 -1c-17,-4 -13,-53 -11,-79zm-7 -199c-4,61 0,130 -1,192 0,19 -6,81 7,91 7,7 175,8 184,-1 9,-9 5,-72 4,-90 0,-63 -1,-127 -1,-190 -5,-15 -24,-12 -41,-12l-111 0c-20,0 -31,-5 -41,10z"/>
  <path class="fil4" d="M594 390c-9,-1 -9,-2 -15,-7 0,-14 94,-234 106,-259 20,0 110,44 136,54 10,4 21,10 30,13 0,25 -42,106 -55,136 -9,22 -46,115 -58,125 -16,-2 -58,-23 -75,-30 -17,-8 -59,-20 -69,-32zm13 -103c-3,15 -21,51 -28,68 -16,39 -11,37 25,51 24,10 129,61 141,55 8,-4 116,-260 113,-268 -10,-13 -32,-20 -51,-28 -9,-3 -20,-7 -28,-11 -8,-3 -23,-9 -28,-14 -14,-3 -52,-24 -61,-23 -15,1 -26,38 -32,52l-51 118z"/>
  <path class="fil5" d="M449 53l4 18c6,-2 8,-6 12,-10l-6 19 -21 0 -6 -19c3,5 7,7 11,11l6 -19zm-61 -14c12,0 -1,8 -4,9l6 7c0,0 1,1 1,1l3 3c15,8 18,1 16,23l-4 11c0,1 -1,1 -1,2 12,-6 4,-3 7,1 14,-6 35,-13 50,-7 3,-2 -6,-9 12,-2 7,-7 -3,-2 5,-3 7,-1 -5,8 14,-4l13 -10c0,0 1,-1 1,-1l15 -15c0,0 0,0 1,-1 0,0 1,-1 2,-1 -12,-14 -17,-12 -24,-32l-106 0 -7 19z"/>
  <path class="fil6" d="M418 187l0 0zm-8 -1c5,0 3,1 8,6 4,4 4,4 10,7 26,12 54,1 66,-31 3,-49 -29,-65 -56,-58 -20,5 -25,12 -32,26 -9,18 -2,35 4,50z"/>
  <path class="fil0" d="M382 906c2,-2 2,-2 5,-3 18,-8 32,-4 49,5 18,9 24,22 36,36 -3,-9 -14,-25 -19,-29 -9,-8 -17,-10 -23,-14l-5 -4c0,0 -1,-1 -1,-1 -1,-1 -2,-1 -2,-2 33,2 50,26 63,49l10 25c-1,-34 -25,-58 -51,-74 51,-1 64,96 86,58l19 -37c-15,7 -16,30 -26,41 -13,0 -14,-5 -19,-17 -4,-10 -6,-15 -12,-23 6,6 18,20 28,24 -1,-2 -19,-22 -20,-24 -8,-7 -18,-14 -28,-20l67 14c-18,14 -26,3 -43,-3 6,9 18,14 29,13 14,-2 12,-10 31,-8 -3,12 -11,16 -11,36 4,-11 9,-29 19,-37 1,3 1,2 0,7 0,3 -1,5 -2,7 -2,8 -2,7 -2,16 24,-34 37,-15 71,-30 -19,1 -50,4 -65,15 2,-7 5,-11 6,-15 4,-5 11,-7 14,-13 -10,3 -32,0 -41,-2 -5,-1 -15,-6 -17,-6 0,0 -1,0 -1,0 0,0 -1,1 -1,1l-2 0c-6,0 -2,1 -4,-2 -19,0 -41,-29 -99,-21 -55,8 -55,10 -100,-10 28,19 46,24 89,16 16,-3 34,-4 52,-2 19,3 29,10 45,14 -12,5 -82,-20 -132,6 -19,11 -16,10 -38,4 20,15 31,5 40,6 7,0 -5,0 5,4z"/>
  <path class="fil7" d="M87 218l10 2 12 -11c-1,8 -1,5 1,10l8 -1c-3,4 -4,5 -7,7l6 3c-12,6 -7,7 -9,13l-5 -7 -7 8 1 -12c-1,0 -5,1 -6,1 -6,0 -2,1 -5,-1l7 -5 -6 -7zm-16 29l15 4c6,26 -2,10 4,26 3,7 6,0 1,8 4,-3 5,-4 7,-9 7,3 2,3 14,6l0 -11 16 -6c-5,-11 -3,-1 -9,-11 8,1 13,1 20,5 8,-1 6,0 11,0 12,0 6,4 8,-3l-6 -39c-5,3 -7,-6 -5,12l-7 -11c-3,-7 -2,-8 -10,-11 0,0 -1,-1 -1,-1 -1,0 -1,0 -2,0l-8 -5c-7,-6 -8,0 -11,-3l-1 -2c-5,-11 -3,-5 -14,-14 -8,-6 11,1 -3,-2l-11 2c-2,19 0,34 -17,39 1,-6 5,-7 9,-14 4,-8 4,-13 4,-23l-24 10c-1,8 16,47 20,53z"/>
  <path class="fil0" d="M349 362l23 27c4,4 5,7 7,11 2,2 5,3 8,6 4,3 4,4 8,6 -1,8 1,2 -2,9 3,3 0,2 8,2 15,-7 71,-48 85,-59 8,-8 18,-22 22,-25 3,-8 7,-13 9,-22 -6,3 -5,3 -9,8 -3,5 -1,2 -4,6 -4,4 -2,2 -6,5l-6 8c-12,12 -11,14 -21,19 -1,1 1,-1 -3,3 0,0 -1,2 -2,2l-49 33c-8,-8 -10,-10 -12,-17 -6,-4 -2,-1 -6,-7 -2,-2 -3,-5 -5,-7 -3,-6 -5,-10 -8,-16l-14 -34c-1,22 15,52 27,69 17,24 10,16 8,19 -9,2 -13,-11 -18,-16l-27 -31c-62,-85 -31,-107 -29,-162 -2,9 -9,22 -12,33 -3,15 -3,31 -2,47 -2,-2 -2,-2 -4,-5 -1,-3 -1,-2 -2,-4 0,-1 -2,-7 -2,-8 -13,-72 23,-90 22,-114 -5,7 -11,10 -16,20 -16,29 -21,61 -15,94 5,28 31,84 47,100z"/>
  <path class="fil6" d="M289 393c-2,-19 5,-29 17,-37 3,11 7,14 7,25 -6,7 -15,10 -24,12zm-199 -213c4,-5 77,-35 88,-39 8,5 8,11 16,14 8,4 18,4 25,4l21 48c4,9 20,51 25,54 3,10 24,64 29,67l9 25c-15,14 -19,13 -16,43l-40 15c7,-14 25,-32 1,-45 -12,-7 -31,-6 -45,-3 -10,1 -10,0 -13,6 27,-2 49,-13 65,10 2,22 -17,35 -32,43 -23,11 -34,16 -63,15l20 2c-6,5 -12,7 -22,8 -6,-6 -9,-15 -13,-25l11 -1c-22,-5 -8,-8 -19,-20l-6 -12c13,-11 25,-12 40,-18 -15,-2 -30,10 -43,14 -3,-10 -10,-20 -10,-30 -10,-9 -18,-38 -24,-52 -7,-18 -17,-38 -23,-56 -4,-6 -21,-45 -20,-53l24 -10c0,10 0,15 -4,23 -4,7 -8,8 -9,14 17,-5 15,-20 17,-39l11 -2zm93 -39c4,-6 21,-11 23,-11 5,5 9,15 11,24 -25,-1 -19,-3 -34,-13zm-116 109c13,33 29,71 44,102 16,33 29,69 45,99 13,-1 150,-59 161,-67 2,-20 -43,-100 -44,-119 -7,-6 -55,-125 -62,-141 -20,1 -63,24 -85,32 -21,9 -62,26 -80,36 1,16 15,42 21,58z"/>
  <path class="fil0" d="M218 896l6 0 -4 -12c48,-12 66,9 97,19 -10,-9 -25,-17 -42,-23 -31,-9 -32,-3 -57,0l-5 -13c42,-24 111,29 115,41 2,8 5,2 -3,7l0 3c9,6 3,2 11,6 12,6 7,3 3,5 1,1 2,1 2,2 1,1 4,2 4,3 5,2 2,1 8,2 -2,-4 -5,-6 -5,-8 -3,-6 -6,-2 1,-6l0 -1 -57 -48c-20,-12 -56,-26 -80,-13 -4,-20 39,-15 52,-12 22,6 32,15 49,23 -12,-15 -39,-29 -67,-32l4 -3c2,-1 3,-1 6,-2 6,-1 7,0 12,0 5,-4 2,-1 6,-3 4,-2 1,6 5,-3 0,-1 1,-1 2,-1 -27,2 -34,2 -57,10 36,-20 42,-22 92,-21 -21,-11 -58,-3 -80,4 16,-8 28,-21 52,-23 5,-4 7,-5 17,-5 6,-1 13,0 19,0 -2,1 1,5 -9,-2 -26,1 -39,2 -61,13 -13,5 -40,22 -41,31 16,-19 27,-49 74,-54 2,-2 -1,-1 6,-4 8,-2 16,-1 33,-1l-8 2c-2,0 -8,-1 -10,-1 -7,0 -14,0 -21,0 -26,-1 -61,24 -74,45 4,-12 13,-28 20,-34 6,-5 25,-18 36,-17 -2,-6 9,-8 -6,-4 -34,4 -69,48 -60,94 2,10 7,29 15,36z"/>
  <path class="fil8" d="M751 140c5,5 20,11 28,14 8,4 19,8 28,11 19,8 41,15 51,28 3,8 -105,264 -113,268 -12,6 -117,-45 -141,-55 -36,-14 -41,-12 -25,-51 7,-17 25,-53 28,-68l-4 -6c-4,15 -12,30 -18,44 -3,8 -6,13 -9,20l-7 15c-4,7 0,1 -4,5 0,23 -9,27 17,39 12,5 33,12 42,19 31,9 69,34 100,43 35,11 40,-20 62,-75l42 -99c8,-17 40,-85 36,-102 -5,-13 -12,-12 -24,-17 -9,-5 -17,-8 -26,-12 -16,-7 -42,-16 -55,-23l-8 2z"/>
  <path class="fil9" d="M735 205l0 3c0,1 1,1 1,2 0,0 1,0 1,0l2 2c14,2 18,3 26,12l-15 13c2,10 0,8 -2,20 20,5 -1,14 20,13 7,-1 16,-2 20,-9 4,-6 -5,-3 3,-4 2,18 6,11 2,25 0,1 -1,1 -1,2l-1 6c5,6 0,2 9,4 3,-7 4,-18 8,-25 -9,-1 -10,7 -5,-16 3,-13 8,-7 9,-16 0,-5 -3,-8 -2,-17l14 -9 -5 -12c0,0 -1,-1 -2,0l-14 3c0,-9 0,-10 -6,-18 -8,13 1,4 -11,9l1 -10c-5,-2 -2,-1 -10,2 -2,0 -5,2 -9,2 6,3 3,3 0,7 -2,4 -1,3 -5,5 -11,9 -15,2 -28,6z"/>
  <path class="fil8" d="M62 256c2,14 44,108 53,128 41,94 28,86 87,61 18,-8 117,-47 123,-59 6,-15 -44,-104 -49,-127l-3 6c1,19 46,99 44,119 -11,8 -148,66 -161,67 -16,-30 -29,-66 -45,-99 -15,-31 -31,-69 -44,-102 -7,1 -5,-3 -5,6z"/>
  <path class="fil0" d="M31 191c-2,18 23,68 31,86 6,13 35,76 35,85 10,13 25,58 34,78 7,14 12,29 30,28 8,0 33,-13 43,-16 7,-5 55,-25 65,-29 11,-5 23,-11 34,-15 19,-8 18,-6 29,-19 1,-28 -41,-108 -51,-136 0,0 -4,5 -5,6 5,23 55,112 49,127 -6,12 -105,51 -123,59 -59,25 -46,33 -87,-61 -9,-20 -51,-114 -53,-128 -6,-7 -23,-45 -24,-56 -2,-14 7,-16 17,-21 9,-4 19,-6 27,-13 -5,-3 -1,-1 -8,-2 -14,7 -37,10 -43,27z"/>
  <path class="fil10" d="M808 269c-4,7 -5,18 -8,25 0,4 -1,8 -3,12 -7,15 -8,-1 -15,22 -1,7 -3,18 -10,21 -17,8 -7,0 -10,-1 -4,-12 -5,-60 -3,-73 0,0 -1,-1 -1,-1l-5 -3c-5,-1 2,-7 -5,1 1,8 4,33 4,43 2,14 10,35 2,46 -3,-3 -4,-6 -7,-11 0,-2 -1,-5 -2,-8l-3 -5c-4,12 -7,28 -17,34 -3,12 -8,14 -10,27 -2,3 -4,5 -6,10 2,2 -1,1 4,3 3,2 1,1 4,2 4,1 2,0 6,1 6,2 3,1 6,2l7 5c1,1 2,1 2,1l8 5c0,0 1,1 1,1 1,0 2,1 2,1l86 -206c-3,2 -4,0 -8,9 -1,0 -1,2 -2,3 -7,18 -14,20 -17,34z"/>
  <path class="fil6" d="M787 183l-1 10c12,-5 3,4 11,-9 6,8 6,9 6,18l14 -3c1,-1 2,0 2,0l5 12 -14 9c-1,9 2,12 2,17 -1,9 -6,3 -9,16 -5,23 -4,15 5,16 3,-14 10,-16 17,-34 1,-1 1,-3 2,-3 4,-9 5,-7 8,-9l-86 206c-4,17 -6,26 -25,17 -9,-4 -28,-9 -25,-19 2,9 -1,3 -10,5l3 -14c-7,3 0,3 -5,10l-10 -3 3 -6c-5,-4 -7,7 -4,-6l-4 7c-1,1 -1,2 -2,2 -1,0 -1,-2 -1,-2l-3 -4c-2,-1 -1,2 -7,1 -4,-9 -2,-7 -3,-14 0,1 -1,7 -6,1 -11,-12 1,-10 1,-10l-6 -1 -2 5c-1,-2 -3,-12 -12,1 0,0 -2,0 -2,1 -1,2 -14,-3 -19,-3l2 -9 -10 5 -7 -4 -1 1c10,12 52,24 69,32 17,7 59,28 75,30 12,-10 49,-103 58,-125 13,-30 55,-111 55,-136 -9,-3 -20,-9 -30,-13 0,6 1,4 -5,4l28 14 -2 10c3,-8 3,-2 2,-11l-41 -14c-1,0 -1,0 -1,-1l-6 -4c-8,-4 -8,-3 -12,-2 1,5 1,4 3,9z"/>
  <path class="fil0" d="M58 867l0 3c27,-1 77,-41 100,-57 10,-7 21,-17 31,-22 -17,24 -90,72 -106,88 34,-12 77,-58 92,-67 -13,21 -46,48 -66,65l-19 15c-4,3 -4,3 -7,6 26,-10 62,-44 77,-59 -4,7 -9,14 -14,20 -8,8 -12,15 -18,21l-39 37c14,-6 40,-28 50,-41 5,-6 10,-11 14,-16 -9,33 -30,62 -46,84 32,-14 56,-100 70,-121 4,-6 8,-10 11,-16 3,-9 6,-14 12,-19 -5,5 5,2 -10,4 2,-8 1,-9 4,-9 -1,0 -3,3 -10,-3 -12,5 -48,34 -61,44 -11,7 -20,14 -32,21 -10,8 -21,17 -33,22z"/>
  <path class="fil11" d="M733 263l-10 2c-3,-5 -5,-6 -2,-14 4,2 0,1 4,3 0,0 1,1 1,1l7 8zm-9 -11c0,-11 -3,-10 5,-17 6,3 5,6 9,9l4 -8c-1,15 -1,12 -6,20l-12 -4zm-28 -32c-1,-16 1,-12 7,-16 1,16 6,25 -6,35 -1,-3 -1,-13 -1,-19zm1 -51c-8,17 -3,5 -4,21 -1,9 -2,14 -2,25 0,12 -2,34 -6,44 -4,12 -8,23 -12,34l-9 23c-1,9 -2,3 3,8l3 3c4,-3 11,-19 13,-28 6,7 8,-10 5,13l6 -3 21 -57c0,2 0,17 11,16 10,0 4,1 7,-5 10,8 -11,45 -14,56l-17 -5 6 2c0,0 1,0 2,1 5,2 1,-2 5,3 4,5 2,8 2,8l2 0c3,-1 0,12 2,-2 4,-4 0,1 4,-7l13 -32c0,1 1,1 2,2 0,2 1,2 1,3l6 16c1,1 1,1 1,2l4 6 0 -1c0,-10 -3,-35 -4,-43 -9,-6 -1,-5 -11,-10 4,-8 0,-1 3,-6l2 -3c6,-9 6,-16 4,-25 -31,-10 -17,5 -32,18 -7,-18 -6,-66 -10,-70 -4,-14 3,-9 3,-20 0,-6 1,-1 -1,-4 -3,9 -4,9 -9,17z"/>
  <path class="fil6" d="M345 27c-1,56 -1,112 -1,169 -1,28 -2,56 -1,84 2,38 23,31 54,31 28,0 57,0 85,0 20,0 62,6 69,-15 9,-29 -5,-131 1,-168 -4,10 -6,84 -3,94 0,-27 0,-191 -5,-202 0,63 1,127 1,190 1,18 5,81 -4,90 -9,9 -177,8 -184,1 -13,-10 -7,-72 -7,-91 1,-62 -3,-131 1,-192l-3 9c0,1 -1,5 -1,7 0,4 0,10 0,14 0,10 0,20 0,29 0,20 0,40 -1,60l-2 -120 1 10z"/>
  <path class="fil6" d="M594 390l1 -1 0 -1 -12 -6c2,-15 10,-22 11,-36l6 -8c3,-7 -4,-4 8,-4 0,0 -1,-2 -1,-1 0,0 -3,-3 -2,-7 23,7 50,26 73,31l3 -1 -36 -15 -2 -3 -37 -16 3 -9c7,3 9,4 16,7 3,1 5,1 7,3l8 7c0,-1 -2,-6 -2,-6l2 -8c-1,2 0,7 -14,2 -5,-2 -12,-5 -14,-7l5 -11 12 -31c5,-14 44,-104 49,-110 2,16 0,-1 -3,13l0 5c-1,5 0,0 -2,5l-5 27c5,-4 2,-4 8,-12 12,-19 1,-8 7,-20 2,-5 4,-6 9,-10 -2,-9 1,-1 -4,-10l10 -8c6,-5 13,-3 17,2l3 11c8,-2 8,-3 11,-10 -5,-10 -6,-4 -13,-12l21 9 79 33c6,0 5,2 5,-4 -26,-10 -116,-54 -136,-54 -12,25 -106,245 -106,259 6,5 6,6 15,7z"/>
  <path class="fil0" d="M184 780c7,6 9,3 10,3 -3,0 -2,1 -4,9 15,-2 5,1 10,-4 -6,5 -9,10 -12,19l-18 47c5,3 3,0 -2,24 -2,8 -4,17 -7,25l7 2c13,-13 11,-20 18,-37 3,21 18,43 30,51 -14,-4 -34,-9 -46,2 49,0 46,9 70,12 -1,-1 -1,-2 -2,-2l-8 -9c-26,-23 -46,-54 -39,-92 8,-42 44,-75 80,-76l-11 -11c-20,2 -42,14 -59,24 -4,2 -5,2 -9,6l-8 7z"/>
  <path class="fil9" d="M629 269l2 3c2,3 1,1 3,4 1,3 3,4 4,6 7,-2 5,-4 13,-11 9,1 11,4 19,5 4,-6 4,-14 5,-21 6,4 2,4 10,4 4,-10 6,-32 6,-44 0,-11 1,-16 2,-25 1,-16 -4,-4 4,-21 -2,-5 4,-7 -5,-2 -5,4 -7,5 -9,10 -6,12 5,1 -7,20 -6,8 -3,8 -8,12l5 -27c2,-5 1,0 2,-5l0 -5c3,-14 5,3 3,-13 -5,6 -44,96 -49,110z"/>
  <path class="fil12" d="M118 355c-6,-14 -1,-2 0,-7 13,-3 -1,-4 21,-3 3,-6 1,-3 2,-12l5 2c4,-2 3,-9 3,-14 7,-6 -5,-1 9,-22l-42 6c4,-2 22,-18 35,-24 -6,-7 -14,-15 -23,-16l-16 6 0 11c-12,-3 -7,-3 -14,-6 -2,5 -3,6 -7,9 5,-8 2,-1 -1,-8 -6,-16 2,0 -4,-26l-15 -4c6,18 16,38 23,56 6,14 14,43 24,52z"/>
  <path class="fil12" d="M748 272c7,-8 0,-2 5,-1l5 3c0,0 1,1 1,1 -2,13 -1,61 3,73 3,1 -7,9 10,1 7,-3 9,-14 10,-21 7,-23 8,-7 15,-22 2,-4 3,-8 3,-12 -9,-2 -4,2 -9,-4l1 -6c0,-1 1,-1 1,-2 4,-14 0,-7 -2,-25 -8,1 1,-2 -3,4 -4,7 -13,8 -20,9 -21,1 0,-8 -20,-13 2,-12 4,-10 2,-20l15 -13c-8,-9 -12,-10 -26,-12 8,14 14,-2 22,12 -3,7 1,3 -7,6l0 -2c0,-1 0,-1 0,-2l2 -2c0,-1 1,-1 1,-2 -15,0 -4,1 -20,-2 -15,-3 -13,2 -12,-13l10 1 0 -3 -12 0c-4,14 -1,10 -9,16 -9,-36 1,-23 -4,-39 -3,-11 -1,-7 -6,-6 4,4 3,52 10,70 15,-13 1,-28 32,-18 2,9 2,16 -4,25l-2 3c-3,5 1,-2 -3,6 10,5 2,4 11,10z"/>
  <path class="fil0" d="M778 692c-25,15 -10,56 -29,78 2,-34 -1,-39 10,-70 -8,12 -14,29 -14,48 1,43 0,56 -40,82 -7,5 -32,21 -35,27 1,3 1,2 3,4 2,3 1,2 4,5l20 -15c-12,27 -17,31 -16,67 6,-19 -3,-27 20,-64 8,-12 32,-40 48,-22l-3 -5 -5 -3c5,-9 14,-18 21,-25 5,-4 20,-15 23,-21 -5,-3 0,-2 -7,0 -8,1 -4,7 -7,-1l-13 9c4,-16 34,-79 38,-91 1,-4 1,-3 0,-6 -2,-7 2,-1 -3,-2 -1,1 -4,4 -4,4l-2 3c-5,11 -9,29 -16,35l-7 5c0,-15 0,-16 5,-26 3,-8 0,-2 4,-8 4,-7 1,-2 5,-8z"/>
  <path class="fil13" d="M761 166c9,5 8,5 0,11l0 -11zm-24 -17c8,17 8,0 4,23 -9,-1 -13,1 -12,-9 1,-6 3,-14 8,-14zm-45 18c9,-5 3,-3 5,2 5,-8 6,-8 9,-17 2,3 1,-2 1,4 0,11 -7,6 -3,20 5,-1 3,-5 6,6 5,16 -5,3 4,39 8,-6 5,-2 9,-16l12 0c13,-4 17,3 28,-6 4,-2 3,-1 5,-5 3,-4 6,-4 0,-7 4,0 7,-2 9,-2 8,-3 5,-4 10,-2 -2,-5 -2,-4 -3,-9 4,-1 4,-2 12,2l6 4c0,1 0,1 1,1l41 14c1,9 1,3 -2,11l2 -10 -28 -14 -79 -33 -21 -9c7,8 8,2 13,12 -3,7 -3,8 -11,10l-3 -11c-4,-5 -11,-7 -17,-2l-10 8c5,9 2,1 4,10z"/>
  <path class="fil14" d="M386 151c14,-6 9,-1 11,1l-9 2c4,5 2,3 7,5 0,0 1,0 1,0 0,0 1,0 1,0 0,0 -2,9 -10,1 -4,-5 -1,-6 -1,-9zm25 -42c4,11 3,6 -1,11 -10,-5 -8,-6 1,-11zm76 12c-2,-3 -5,4 -2,-6 3,-10 0,-1 4,-4 2,6 3,4 -2,10zm-45 -26l13 0 -1 10c-11,3 -15,2 -12,-10zm-44 100c5,-5 1,-1 6,-5 5,-5 -2,-2 6,-4 -6,-15 -13,-32 -4,-50 7,-14 12,-21 32,-26 27,-7 59,9 56,58 1,-1 3,-2 3,-2 0,0 -4,-1 4,0 4,0 6,0 9,2 9,-9 -1,-52 -30,-67 -16,-9 -31,-12 -49,-7 -20,6 -35,19 -43,39 -8,20 -6,53 10,62z"/>
  <path class="fil15" d="M214 276c-5,1 -3,-1 -7,3 5,8 23,16 27,24l-1 1c9,7 -9,3 9,6l-27 -2 2 18c-2,6 3,-6 -2,2 -1,2 -2,3 -2,6 -2,5 -1,4 -1,11 14,1 10,5 21,0 6,-2 10,-6 11,-15 4,-1 -3,-3 8,0l2 -11 8 7 6 -6c0,19 -1,3 4,10l9 0c1,3 4,6 0,6 3,0 2,2 9,-4l4 -4c-5,-3 -26,-57 -29,-67 -1,0 -1,1 -2,2l-3 5c-4,6 -1,3 -9,6l-6 3c14,2 15,2 12,15 -16,0 -4,2 -13,-5 0,-1 0,-1 -1,-2 -8,-7 -5,-4 -14,-2 -13,2 -14,-6 -15,-7z"/>
  <path class="fil16" d="M202 227l-4 24c-1,16 -1,5 4,9l40 -8c-3,7 -23,15 -28,24 1,1 2,9 15,7 9,-2 6,-5 14,2 1,1 1,1 1,2 9,7 -3,5 13,5 3,-13 2,-13 -12,-15l6 -3c8,-3 5,0 9,-6l3 -5c1,-1 1,-2 2,-2 -5,-3 -21,-45 -25,-54 -6,5 -3,7 -6,12 -3,-1 0,0 -5,-3 -11,-5 -13,0 -30,-3 17,14 4,14 3,14z"/>
  <path class="fil14" d="M82 166c-8,7 -18,9 -27,13 -10,5 -19,7 -17,21 1,11 18,49 24,56 0,-9 -2,-5 5,-6 -6,-16 -20,-42 -21,-58 18,-10 59,-27 80,-36 22,-8 65,-31 85,-32 7,16 55,135 62,141l3 -6c-2,-8 -53,-128 -58,-136 -11,-17 -51,8 -67,15 -18,8 -53,24 -69,28z"/>
  <path class="fil13" d="M364 54l3 77c1,4 2,6 8,7 0,0 1,0 1,0 9,2 -7,-8 5,1 4,-8 8,-18 14,-26 5,-6 11,-11 17,-17 -3,-4 5,-7 -7,-1 0,-1 1,-1 1,-2l4 -11c2,-22 -1,-15 -16,-23l-3 -3c0,0 -1,-1 -1,-1l-6 -7c3,-1 16,-9 4,-9 -5,1 -5,3 -10,7 -3,2 -1,1 -6,3 -7,4 -2,0 -8,5z"/>
  <path class="fil17" d="M158 256c-2,7 4,3 -8,3 -5,0 -3,-1 -11,0 -19,7 18,-3 20,13 3,22 -4,-7 4,14 3,7 -1,7 0,8l15 5c6,-5 -3,4 3,-4l4 -6 11 5c4,-2 4,2 1,-2l7 7 29 5 1 -1c-4,-8 -22,-16 -27,-24 4,-4 2,-2 7,-3 5,-9 25,-17 28,-24l-40 8c-5,-4 -5,7 -4,-9l-6 10c2,-9 3,-11 5,-22 -9,5 -4,0 -9,6l-6 17c0,0 0,0 0,0l0 -2c-5,-10 0,6 -11,-10 -8,-11 0,-3 -10,-9 1,9 1,9 2,14 2,5 2,2 1,7l-6 -6z"/>
  <path class="fil6" d="M365 291c-4,-9 -3,-17 -2,-27 14,4 24,14 28,29 -10,0 -17,1 -26,-2zm140 2c6,-18 9,-24 27,-29 2,9 2,20 -1,28l-26 1zm-141 -239l-3 9c-1,2 0,7 0,9l-3 145c-2,26 -6,75 11,79l77 1c23,0 63,2 84,-1 12,-5 9,-60 8,-74 -9,-20 2,-161 -7,-171l1 4 1 201c-3,11 -28,4 -31,37l-108 0c-6,-35 -29,-26 -32,-37l2 -202z"/>
  <path class="fil13" d="M462 89c18,3 25,10 35,19 4,5 7,9 11,15 3,6 5,15 9,18l10 5c1,-2 1,-2 1,-5 3,-17 2,-58 2,-76 0,-12 -3,-7 2,-10l-1 -4 -6 1c-1,0 -2,1 -2,1 -1,1 -1,1 -1,1l-15 15c0,0 -1,1 -1,1l-13 10c-19,12 -7,3 -14,4 -8,1 2,-4 -5,3 -18,-7 -9,0 -12,2z"/>
  <path class="fil18" d="M344 17l2 120c1,-20 1,-40 1,-60 0,-9 0,-19 0,-29 0,-4 0,-10 0,-14 0,-2 1,-6 1,-7l3 -9c10,-15 21,-10 41,-10l111 0c17,0 36,-3 41,12 5,11 5,175 5,202 -3,-10 -1,-84 3,-94 4,-20 1,-85 -1,-107l0 -6c-10,-18 -20,-15 -43,-14 -20,0 -40,-1 -60,-1 -20,0 -40,0 -60,0 -21,0 -39,-2 -44,17z"/>
  <path class="fil0" d="M615 753l10 14c-2,-15 9,-27 17,-35 4,-10 9,-15 15,-22 4,-7 -2,1 4,-5l16 -10c-3,12 0,4 -5,12 -2,4 -3,4 -4,7 -3,5 -6,14 -7,19 -5,15 -5,32 -6,49 2,-2 2,0 4,-4 3,-6 1,0 2,-8 -5,-5 -1,3 -2,-5 0,-1 0,-5 0,-6 0,-3 1,-8 1,-11 2,-17 6,-44 23,-51 -10,23 -9,23 -13,49l4 -3c0,0 1,0 0,1l6 5c6,-8 28,-48 24,-58 -9,-7 -14,-7 -27,-6l-4 0c-21,16 -19,6 -35,29 -6,8 -8,10 -12,19 -4,7 -7,14 -11,20z"/>
  <path class="fil0" d="M418 747c-2,-10 1,-18 -4,-31 -3,-11 -9,-17 -13,-28 -3,-1 0,3 -4,-4 -5,-7 -2,-3 -3,-8 -8,-5 -15,-18 -19,-28 -6,-10 -8,-24 -14,-33 0,14 2,25 7,37 5,11 12,16 15,27 -14,-8 -19,-16 -29,-30 -5,-7 -6,-11 -8,-20 -3,-9 -4,-17 -11,-23 0,17 7,42 15,51 -4,-7 -14,-10 -21,-26 -4,-11 -7,-28 -11,-40 -17,23 13,68 42,84 47,27 42,29 58,72z"/>
  <path class="fil18" d="M647 282l6 0 0 2 13 6c-11,8 -11,5 -12,-5 -6,6 -4,0 -5,10 0,0 9,25 -5,33 -1,18 -2,5 6,10l2 -13 26 12c-5,4 -7,-5 -16,5 24,4 19,-1 32,2l-4 4c-2,0 -4,-1 -8,4 10,6 12,5 19,13 0,10 0,1 -3,5 -3,17 -1,4 3,8 4,-6 1,-6 3,-16l9 -2c-5,-26 -9,0 -6,-15l2 -4c-21,-4 -11,1 -12,-6 -2,-11 0,6 4,-10 -4,7 -3,8 -12,9 -2,-4 -3,0 -2,-7 0,-1 4,-7 4,-8 8,3 13,5 18,12l-2 9c3,4 -7,8 6,2l4 -14c0,0 2,-3 -2,-8 -4,-5 0,-1 -5,-3 -1,-1 -2,-1 -2,-1l-6 -2c-3,-2 2,-1 -8,-5l-6 3c3,-23 1,-6 -5,-13 -2,9 -9,25 -13,28l-17 -7c7,-30 14,-16 22,-33 -7,-9 -11,-11 -24,-12 -4,3 -3,-5 -4,7z"/>
  <path class="fil0" d="M248 572c3,1 2,1 7,3l12 2c6,1 11,2 17,3 1,26 -1,35 6,60 3,3 5,7 8,12 1,4 2,4 3,7 4,8 2,2 3,8 14,7 21,28 41,25l-3 -4c0,0 -1,-1 -1,-1l-7 -6c-10,-7 -22,-20 -28,-32 -9,-17 -15,-44 -12,-66l24 8c13,2 34,12 44,18 5,-4 3,-2 5,-10 -13,-3 -30,-14 -46,-19 -17,-5 -36,-11 -55,-13 -3,3 1,0 -4,2 -1,0 -4,1 -4,1 -3,1 -5,1 -10,2z"/>
  <path class="fil18" d="M128 265c9,1 17,9 23,16 -13,6 -31,22 -35,24l42 -6c3,10 -2,29 -4,41 9,-10 16,-22 25,-32 10,12 18,25 27,35 -1,-7 -3,-15 -4,-22 0,-2 -2,-10 -2,-11 -1,-15 -3,-6 4,-11l-7 -7c3,4 3,0 -1,2l-11 -5 -4 6c-6,8 3,-1 -3,4l-15 -5c-1,-1 3,-1 0,-8 -8,-21 -1,8 -4,-14 -2,-16 -39,-6 -20,-13 -7,-4 -12,-4 -20,-5 6,10 4,0 9,11z"/>
  <path class="fil19" d="M491 203c-5,0 -3,1 -7,-3 2,-10 0,-5 7,-6 3,8 2,0 0,9zm3 -35c-12,32 -40,43 -66,31 -6,-3 -6,-3 -10,-7 -5,-5 -3,-6 -8,-6 -8,2 -1,-1 -6,4 -5,4 -1,0 -6,5 1,6 1,6 8,11 3,3 7,6 12,8 9,5 19,8 31,8 -3,-4 -5,-7 -6,-14l5 7c4,-7 -2,-5 7,-7l-3 14c8,-1 16,-3 23,-6 8,-4 14,-6 16,-13 6,-2 1,1 5,-3 8,-6 14,-23 14,-32 -3,-2 -5,-2 -9,-2 -8,-1 -4,0 -4,0 0,0 -2,1 -3,2z"/>
  <path class="fil0" d="M599 697c-4,8 -34,35 -43,38l2 7c17,-8 50,-39 63,-54 8,-9 9,-19 16,-26 0,-10 2,-10 3,-20 1,-9 -1,-15 -1,-24 -9,-11 -17,-27 -39,-20 -20,6 -21,25 -13,43l15 1c-3,-2 -7,-5 -12,-8 -4,-37 39,-35 40,1 1,24 -18,54 -31,62z"/>
  <path class="fil6" d="M506 20c30,0 29,-4 27,28 -14,-5 -25,-11 -27,-28zm-144 28c0,-10 -1,-19 3,-27l24 0c0,14 -13,25 -27,27zm-4 169l3 -145c0,-2 -1,-7 0,-9l3 -9c6,-5 1,-1 8,-5 5,-2 3,-1 6,-3 5,-4 5,-6 10,-7l7 -19 106 0c7,20 12,18 24,32l6 -1c9,10 -2,151 7,171 -4,-43 3,-156 0,-191 -1,-10 2,-6 -4,-11 -8,-8 -164,-8 -172,0 -7,7 -4,27 -4,45 0,41 3,123 0,152z"/>
  <path class="fil0" d="M245 661l-10 -4c-8,-5 -10,-25 0,-30 17,-5 17,24 14,39 -5,24 -17,19 -28,31 52,2 53,-58 37,-72 -15,-13 -40,-6 -45,13 -6,23 15,39 32,23z"/>
  <path class="fil20" d="M717 328l-4 14c-13,6 -3,2 -6,-2l2 1 -2 4c-3,15 1,-11 6,15l-9 2c-2,10 1,10 -3,16 -4,-4 -6,9 -3,-8l-2 -1 -5 0 5 5c-2,4 -3,6 -4,10l0 2 1 9 16 -2c2,6 1,2 6,5 2,-13 7,-15 10,-27 7,-20 -8,10 -1,-19l13 -31c1,-2 4,-6 6,-7l9 2 -4 -6c0,-1 0,-1 -1,-2l-6 -16c0,-1 -1,-1 -1,-3 -1,-1 -2,-1 -2,-2l-13 32c-4,8 0,3 -4,7 -2,14 1,1 -2,2l-2 0z"/>
  <path class="fil0" d="M530 444l4 15c1,-1 2,-2 2,-2 0,0 0,-1 1,-2 4,-10 -3,7 1,-3 2,-3 2,-5 3,-8l19 -1c9,23 -10,40 -24,58l-7 9 49 0 6 -22c-12,10 -15,9 -34,8 4,-2 14,-13 18,-16 26,-25 4,-61 -38,-36z"/>
  <path class="fil20" d="M510 168c0,9 -6,26 -14,32 -4,4 1,1 -5,3 -2,7 -8,9 -16,13 -7,3 -15,5 -23,6l3 -14c-9,2 -3,0 -7,7l-5 -7c1,7 3,10 6,14 -12,0 -22,-3 -31,-8 -5,-2 -9,-5 -12,-8 -7,-5 -7,-5 -8,-11 -16,-9 -18,-42 -10,-62 8,-20 23,-33 43,-39 18,-5 33,-2 49,7 29,15 39,58 30,67zm-98 -72c-6,6 -12,11 -17,17 -6,8 -10,18 -14,26 0,29 -2,38 13,60 19,28 71,38 105,4 18,-18 15,-33 18,-62 -4,-3 -6,-12 -9,-18 -4,-6 -7,-10 -11,-15 -10,-9 -17,-16 -35,-19 -15,-6 -36,1 -50,7z"/>
  <path class="fil21" d="M408 159c1,-14 8,-7 13,-3 2,-5 -4,-7 3,-3 4,2 3,8 3,8l-19 -2zm10 28l18 -20c-2,-5 1,0 -3,-5 -3,-4 1,1 -4,-5 2,-3 2,-3 4,-5l3 -5c-10,-5 -15,-9 -18,-21 11,8 16,17 23,18 10,-16 -3,-18 7,-28 8,10 -2,15 6,29 7,-3 15,-13 24,-19 -3,7 -11,19 -19,22l6 6c8,-1 5,-2 13,-2l9 2c-4,8 -2,7 -14,6 -1,0 -3,0 -4,0 -5,0 -5,1 -10,4 11,12 8,4 13,17l-16 -13c-12,17 0,14 -8,29 -2,-3 -2,-1 -2,-6 -2,-19 5,-12 -4,-21 -6,1 -17,13 -24,17zm0 0l0 0z"/>
  <path class="fil0" d="M265 76c0,1 1,2 1,2 4,5 0,1 4,5 3,-21 16,-16 20,-11 4,4 3,-3 4,8 0,8 -5,9 -11,14 -1,0 -1,0 -2,1 -1,0 -1,1 -2,1 0,1 -1,1 -2,2 14,1 9,1 19,8 1,11 -1,18 -8,24 -7,6 -7,3 -15,6l-8 5c17,2 35,1 43,-11 11,-15 5,-28 -9,-36 10,-8 12,-8 9,-26 -9,-4 -41,-16 -43,8z"/>
  <path class="fil0" d="M69 576c-6,7 -3,8 -1,18 6,-6 4,-20 25,-12 4,14 1,17 -7,22l-6 3c0,1 -1,1 -2,2 13,3 24,8 18,24 -6,14 -20,10 -32,17 27,14 45,-10 49,-13 4,-26 -5,-24 -13,-31 29,-25 -4,-37 -31,-30z"/>
  <path class="fil22" d="M692 418l-3 14c9,-2 12,4 10,-5 -3,10 16,15 25,19 19,9 21,0 25,-17 0,0 -1,-1 -2,-1 0,0 -1,-1 -1,-1l-8 -5c0,0 -1,0 -2,-1l-7 -5c-3,-1 0,0 -6,-2 -4,-1 -2,0 -6,-1 -3,-1 -1,0 -4,-2 -5,-2 -2,-1 -4,-3 2,-5 4,-7 6,-10 -5,-3 -4,1 -6,-5 -1,0 -1,1 -1,1l-2 4c-1,0 -1,1 -1,1 -5,9 -4,11 -13,19z"/>
  <path class="fil0" d="M362 609c2,2 46,30 54,54l4 8c16,14 13,57 18,72 16,-10 -4,-69 -13,-87 -10,-21 -38,-47 -58,-57 -2,8 0,6 -5,10z"/>
  <path class="fil0" d="M588 128c-14,-2 -5,-2 -8,3 9,3 18,9 31,6 21,-4 28,-20 25,-43l-1 -3c0,-1 -3,-5 -4,-6 -6,-8 -3,-2 -4,-8 -14,-5 -24,-10 -38,-1 18,4 30,5 28,28 -1,15 -12,27 -29,24z"/>
  <path class="fil23" d="M453 166l-10 2c2,-6 -1,-7 5,-7 2,0 4,3 5,5zm5 -8c-4,6 -1,1 -6,2 1,-9 0,-7 6,-7 1,2 6,-3 0,5zm-40 29c7,-4 18,-16 24,-17 9,9 2,2 4,21 0,5 0,3 2,6 8,-15 -4,-12 8,-29l16 13c-5,-13 -2,-5 -13,-17 5,-3 5,-4 10,-4 1,0 3,0 4,0 12,1 10,2 14,-6l-9 -2c-8,0 -5,1 -13,2l-6 -6c8,-3 16,-15 19,-22 -9,6 -17,16 -24,19 -8,-14 2,-19 -6,-29 -10,10 3,12 -7,28 -7,-1 -12,-10 -23,-18 3,12 8,16 18,21l-3 5c-2,2 -2,2 -4,5 5,6 1,1 4,5 4,5 1,0 3,5l-18 20z"/>
  <path class="fil12" d="M694 309c10,4 5,3 8,5l17 5c3,-11 24,-48 14,-56 -3,6 3,5 -7,5 -11,1 -11,-14 -11,-16l-21 57z"/>
  <path class="fil0" d="M548 662c-3,15 -3,24 -8,39 -3,13 -10,23 -11,36 8,-5 35,-46 60,-50 10,-15 19,-6 27,-29 -9,4 -23,16 -33,23 -9,6 -25,19 -33,22 2,-13 6,-24 7,-38 1,-7 2,-14 2,-21 0,-3 0,-6 -1,-9 -1,-7 1,-3 -2,-7 -1,7 0,16 -1,24 0,3 -1,8 -2,8 0,0 -3,1 -5,2z"/>
  <path class="fil1" d="M629 269l-12 31c16,-2 17,2 29,7 6,-19 2,-9 1,-25 1,-12 0,-4 4,-7 13,1 17,3 24,12 -8,17 -15,3 -22,33l17 7 -3 -3c-5,-5 -4,1 -3,-8l9 -23c4,-11 8,-22 12,-34 -8,0 -4,0 -10,-4 -1,7 -1,15 -5,21 -8,-1 -10,-4 -19,-5 -8,7 -6,9 -13,11 -1,-2 -3,-3 -4,-6 -2,-3 -1,-1 -3,-4l-2 -3z"/>
  <path class="fil0" d="M792 646c-1,4 3,3 -5,2 3,3 5,7 16,6 12,-1 12,-4 14,-6l-7 0 -1 -70c-9,1 -17,7 -25,11 7,6 3,0 10,5 0,10 0,19 0,29 0,9 2,18 -2,23z"/>
  <path class="fil18" d="M594 346c7,2 34,14 42,18 4,13 -3,9 4,22 1,1 2,3 2,4l6 -1c6,-5 3,-3 7,-8 4,-4 4,-5 8,-9 12,-9 15,-7 28,-3l5 0c-3,-7 -7,-9 -15,-13l-3 1c-3,4 1,5 -16,-2 -6,-2 -11,-5 -18,-7 9,12 10,7 25,15 -11,6 -23,-3 -33,-8l-33 -13c-3,-2 -1,-1 -3,-4l-6 8z"/>
  <path class="fil0" d="M174 629c0,14 -15,27 -18,43 15,1 13,2 17,-11 3,-12 17,-49 22,-55 -5,-8 0,-4 -10,-6l-36 -1c-5,8 -5,12 -5,20 14,-9 16,-7 39,-6 -2,10 -2,10 -9,16z"/>
  <path class="fil0" d="M718 651c0,0 -1,2 -1,3l29 -1c0,0 -1,-1 -1,-2l-5 -6c-3,-7 -1,-59 -1,-69l-26 12 11 6c0,0 1,69 -6,57z"/>
  <path class="fil0" d="M593 450l7 -3c1,11 1,21 1,31 0,4 1,13 0,17 -1,12 2,9 -7,11 5,9 -1,1 6,4 3,0 4,1 7,1 4,0 13,0 17,0 -1,-1 -2,-2 -2,-2l-4 -6c-6,-13 1,-49 -3,-67 -11,2 -21,5 -22,14z"/>
  <path class="fil0" d="M674 587l-3 3c5,3 4,-1 10,4l0 46c-1,12 -1,7 -7,8 6,8 12,6 30,5l-4 -3c0,-1 -1,-1 -1,-2 0,-1 -1,-1 -1,-2 -5,-10 0,-49 -3,-67 -7,0 -12,5 -21,8z"/>
  <path class="fil0" d="M339 464c-4,10 -2,5 -8,13 -4,3 -5,6 -8,11 -6,8 -10,15 -15,23 4,8 -2,2 4,4 7,3 1,2 7,0 3,-13 25,-40 36,-52 13,-15 30,-25 46,-40 -8,0 -5,1 -8,-2 -15,4 -41,33 -52,42l-2 1z"/>
  <path class="fil22" d="M595 388l0 1 7 4 10 -5 -2 9c5,0 18,5 19,3 0,-1 2,-1 2,-1l0 -15c-9,-7 -4,2 -14,-10l-17 -19 -6 7c-3,10 -15,12 -7,21 8,9 8,1 11,-2l-3 7z"/>
  <path class="fil0" d="M827 588c4,3 4,2 9,3 1,14 5,47 -3,58l22 -1c-6,-9 -3,-58 -3,-70l-25 10z"/>
  <path class="fil18" d="M725 371c10,-6 13,-22 17,-34l3 5c1,3 2,6 2,8 3,5 4,8 7,11 8,-11 0,-32 -2,-46l0 1 -9 -2c-2,1 -5,5 -6,7l-13 31c-7,29 8,-1 1,19z"/>
  <path class="fil3" d="M600 338c2,3 0,2 3,4l33 13c10,5 22,14 33,8 -15,-8 -16,-3 -25,-15 7,2 12,5 18,7 17,7 13,6 16,2 -23,-5 -50,-24 -73,-31 -1,4 2,7 2,7 0,-1 1,1 1,1 -12,0 -5,-3 -8,4z"/>
  <path class="fil19" d="M595 388l3 -7c-3,3 -3,11 -11,2 -8,-9 4,-11 7,-21l6 -7 17 19c10,12 5,3 14,10l0 15c9,-13 11,-3 12,-1l2 -5 -3 -3c0,-1 -1,-3 -2,-4 -7,-13 0,-9 -4,-22 -8,-4 -35,-16 -42,-18 -1,14 -9,21 -11,36l12 6z"/>
  <path class="fil22" d="M648 389l-6 1 3 3 6 1c0,0 -12,-2 -1,10 5,6 6,0 6,-1 1,7 -1,5 3,14 6,1 5,-2 7,-1l3 4c0,0 0,2 1,2 1,0 1,-1 2,-2l4 -7c-3,13 -1,2 4,6 1,0 10,-4 10,-5 11,-9 4,-11 4,-11 -3,-1 5,-3 -7,-1 -13,1 -1,-1 -6,2l-6 7c-1,-3 -2,-9 -3,-10l-2 -5c-6,-7 -8,4 -6,-15l-11 12 -5 -4z"/>
  <path class="fil24" d="M648 389l5 4 11 -12c-2,19 0,8 6,15l2 5c1,1 2,7 3,10l6 -7c5,-3 -7,-1 6,-2 12,-2 4,0 7,1 0,0 7,2 -4,11 0,1 -9,5 -10,5l-3 6 10 3c5,-7 -2,-7 5,-10 9,-8 8,-10 13,-19 0,0 0,-1 1,-1l2 -4c0,0 0,-1 1,-1l-16 2 -1 -9c-6,5 -7,7 -8,16l-11 -4c-4,-12 -1,-4 1,-7 -3,-1 -11,1 -10,-12 1,-11 16,-12 25,0 1,1 1,1 1,2 1,0 1,1 1,1 1,1 1,2 1,2 1,-4 2,-6 4,-10l-5 -5c-13,-4 -16,-6 -28,3 -4,4 -4,5 -8,9 -4,5 -1,3 -7,8z"/>
  <path class="fil22" d="M617 300l-5 11c2,2 9,5 14,7 14,5 13,0 14,-2l-2 8c0,0 2,5 2,6 0,1 -1,-1 1,3 0,0 1,5 1,4 0,-1 1,1 1,1l2 3 5 -3c-8,-5 -7,8 -6,-10 14,-8 5,-33 5,-33 1,-10 -1,-4 5,-10l-1 -1 0 -2 -6 0c1,16 5,6 -1,25 -12,-5 -13,-9 -29,-7z"/>
  <path class="fil6" d="M158 256l6 6c1,-5 1,-2 -1,-7 -1,-5 -1,-5 -2,-14 10,6 2,-2 10,9 11,16 6,0 11,10l0 2c0,0 0,0 0,0l6 -17c5,-6 0,-1 9,-6 -2,11 -3,13 -5,22l6 -10 4 -24c-7,-12 3,-4 -4,-3l-9 12c-9,15 0,9 -13,17 -2,-9 -19,-33 -24,-36l6 39z"/>
  <path class="fil25" d="M650 338l-5 3 36 15c8,4 12,6 15,13l2 1c3,-4 3,5 3,-5 -7,-8 -9,-7 -19,-13 4,-5 6,-4 8,-4l4 -4c-13,-3 -8,2 -32,-2 9,-10 11,-1 16,-5l-26 -12 -2 13z"/>
  <path class="fil20" d="M692 386l0 -2c0,0 0,-1 -1,-2 0,0 0,-1 -1,-1 0,-1 0,-1 -1,-2 -9,-12 -24,-11 -25,0 -1,13 7,11 10,12 -2,3 -5,-5 -1,7l11 4c1,-9 2,-11 8,-16z"/>
  <path class="fil3" d="M505 293l26 -1c3,-8 3,-19 1,-28 -18,5 -21,11 -27,29z"/>
  <path class="fil26" d="M533 48c2,-32 3,-28 -27,-28 2,17 13,23 27,28z"/>
  <path class="fil0" d="M310 461c-1,-3 3,0 -5,-4 -3,-2 -4,-2 -6,-4 -5,-4 -6,-8 -5,-15 -11,1 4,15 -23,20l7 5c13,7 7,7 13,17 8,-11 2,-16 19,-19z"/>
  <path class="fil27" d="M373 28c5,3 7,4 -3,7l3 -7zm-11 20c14,-2 27,-13 27,-27l-24 0c-4,8 -3,17 -3,27z"/>
  <path class="fil18" d="M244 330c6,2 2,0 8,4 0,5 1,2 -1,5l-4 4c14,0 8,-6 9,8 2,-4 2,-3 6,-6l6 8c-1,-20 0,-3 4,-10 0,-1 0,-1 0,-2l1 -7c4,-3 4,-2 8,-4l-9 0c-5,-7 -4,9 -4,-10l-6 6 -8 -7 -2 11c-11,-3 -4,-1 -8,0z"/>
  <path class="fil19" d="M371 287c-3,-13 1,-9 6,-9 1,10 -6,9 -6,9zm-6 4c9,3 16,2 26,2 -4,-15 -14,-25 -28,-29 -1,10 -2,18 2,27z"/>
  <path class="fil26" d="M183 141c15,10 9,12 34,13 -2,-9 -6,-19 -11,-24 -2,0 -19,5 -23,11z"/>
  <path class="fil4" d="M301 382c-6,-3 -5,-3 -7,-8 0,-1 5,-4 7,-4 8,0 3,2 6,4 -4,8 2,1 -6,8zm-12 11c9,-2 18,-5 24,-12 0,-11 -4,-14 -7,-25 -12,8 -19,18 -17,37z"/>
  <path class="fil22" d="M111 225c3,-2 4,-3 7,-7l-8 1c-2,-5 -2,-2 -1,-10l-12 11 -10 -2 6 7 -7 5c3,2 -1,1 5,1 1,0 5,-1 6,-1l-1 12 7 -8 5 7c2,-6 -3,-7 9,-13l-6 -3z"/>
  <path class="fil18" d="M186 182l-11 13 10 -2 0 12 6 -9 6 8 0 -10c14,3 4,1 8,-1l-6 -5 9 -6 -10 1 3 -10 -9 6 -5 -7c-2,3 -1,6 -1,10z"/>
  <path class="fil17" d="M200 382l13 4c-3,18 -29,25 -49,21l-4 -6c1,-7 0,-6 5,-10 2,-2 2,-2 4,-4l4 -4c-11,4 -18,9 -17,22 17,13 63,5 61,-23l-17 0z"/>
  <path class="fil22" d="M438 233l-5 16c7,-5 3,-4 10,-7l5 19 5 -19c8,3 3,4 12,9l-7 -19 -20 1z"/>
  <path class="fil28" d="M443 72c-4,-4 -8,-6 -11,-11l6 19 21 0 6 -19c-4,4 -6,8 -12,10l-4 -18 -6 19z"/>
  <path class="fil0" d="M552 885c-12,-6 -19,-20 -11,-37l-22 13c3,2 13,18 33,24z"/>
  <path class="fil25" d="M643 338c0,0 -1,-2 -1,-1 0,1 -1,-4 -1,-4 -2,-4 -1,-2 -1,-3l-8 -7c-2,-2 -4,-2 -7,-3 -7,-3 -9,-4 -16,-7l-3 9 37 16z"/>
  <path class="fil20" d="M168 348c2,10 6,14 10,24 4,11 3,17 7,24 6,-4 5,-1 3,-13 -3,-14 -7,-32 -20,-35z"/>
  <path class="fil14" d="M709 341l-2 -1 2 -9c-5,-7 -10,-9 -18,-12 0,1 -4,7 -4,8 -1,7 0,3 2,7 9,-1 8,-2 12,-9 -4,16 -6,-1 -4,10 1,7 -9,2 12,6z"/>
  <path class="fil0" d="M874 281c-4,8 -2,6 -12,8l5 4c11,8 3,6 12,13l1 -11 10 -3c-4,-11 -9,3 -9,-11 -5,-5 -2,5 -5,-6l-2 6z"/>
  <path class="fil0" d="M119 649c-6,13 7,7 -1,24 19,-1 21,-34 1,-24z"/>
  <path class="fil0" d="M186 677c-2,4 -3,-5 -1,6 1,7 1,3 2,7 2,5 -1,5 -2,12 20,-5 19,-33 1,-25z"/>
  <path class="fil14" d="M724 252l12 4c5,-8 5,-5 6,-20l-4 8c-4,-3 -3,-6 -9,-9 -8,7 -5,6 -5,17z"/>
  <path class="fil11" d="M729 211c10,1 5,-1 6,5 -13,-2 -4,-1 -6,-5zm10 1l-2 -2c0,0 -1,0 -1,0 0,-1 -1,-1 -1,-2l-10 -1c-1,15 -3,10 12,13 16,3 5,2 20,2 0,1 -1,1 -1,2l-2 2c0,1 0,1 0,2l0 2c8,-3 4,1 7,-6 -8,-14 -14,2 -22,-12z"/>
  <path class="fil8" d="M737 149c-5,0 -7,8 -8,14 -1,10 3,8 12,9 4,-23 4,-6 -4,-23z"/>
  <path class="fil29" d="M697 239c12,-10 7,-19 6,-35 -6,4 -8,0 -7,16 0,6 0,16 1,19z"/>
  <path class="fil0" d="M689 492c0,-12 1,-12 -12,-13 -3,4 -7,9 -1,14 6,5 9,0 13,-1z"/>
  <path class="fil0" d="M760 607c12,4 14,-2 13,-12 -11,-2 -18,-1 -13,12z"/>
  <path class="fil0" d="M7 283c4,0 4,-1 3,2 10,1 3,3 12,-1l1 -11c-6,0 -2,-1 -11,-2l-3 4 -2 8z"/>
  <path class="fil0" d="M760 630c-2,11 -1,13 11,11l2 -12c-6,-1 -9,-1 -13,1z"/>
  <path class="fil11" d="M454 105l1 -10 -13 0c-3,12 1,13 12,10z"/>
  <path class="fil17" d="M408 159l19 2c0,0 1,-6 -3,-8 -7,-4 -1,-2 -3,3 -5,-4 -12,-11 -13,3z"/>
  <path class="fil0" d="M44 549c2,-17 -13,-17 -11,-1l11 1z"/>
  <path class="fil20" d="M294 374c2,5 1,5 7,8 8,-7 2,0 6,-8 -3,-2 2,-4 -6,-4 -2,0 -7,3 -7,4z"/>
  <path class="fil11" d="M386 151c0,3 -3,4 1,9 8,8 10,-1 10,-1 0,0 -1,0 -1,0 0,0 -1,0 -1,0 -5,-2 -3,0 -7,-5l9 -2c-2,-2 3,-7 -11,-1z"/>
  <path class="fil4" d="M733 263l-7 -8c0,0 -1,-1 -1,-1 -4,-2 0,-1 -4,-3 -3,8 -1,9 2,14l10 -2z"/>
  <path class="fil11" d="M410 120c4,-5 5,0 1,-11 -9,5 -11,6 -1,11z"/>
  <path class="fil24" d="M654 285c1,10 1,13 12,5l-13 -6 1 1z"/>
  <path class="fil11" d="M491 203c2,-9 3,-1 0,-9 -7,1 -5,-4 -7,6 4,4 2,3 7,3z"/>
  <path class="fil30" d="M371 287c0,0 7,1 6,-9 -5,0 -9,-4 -6,9z"/>
  <path class="fil31" d="M448 161c-6,0 -3,1 -5,7l10 -2c-1,-2 -3,-5 -5,-5z"/>
  <path class="fil24" d="M452 160c5,-1 2,4 6,-2 6,-8 1,-3 0,-5 -6,0 -5,-2 -6,7z"/>
  <path class="fil32" d="M487 121c5,-6 4,-4 2,-10 -4,3 -1,-6 -4,4 -3,10 0,3 2,6z"/>
  <path class="fil33" d="M761 177c8,-6 9,-6 0,-11l0 11z"/>
  <path class="fil31" d="M729 211c2,4 -7,3 6,5 -1,-6 4,-4 -6,-5z"/>
  <path class="fil34" d="M370 35c10,-3 8,-4 3,-7l-3 7z"/>
 </g>
</svg>
