<?xml version="1.0" encoding="UTF-8"?>
<!DOCTYPE svg PUBLIC "-//W3C//DTD SVG 1.1//EN" "http://www.w3.org/Graphics/SVG/1.1/DTD/svg11.dtd">
<!-- Creator: CorelDRAW X6 -->
<svg xmlns="http://www.w3.org/2000/svg" xml:space="preserve" width="364.236mm" height="79.3879mm" version="1.1" style="shape-rendering:geometricPrecision; text-rendering:geometricPrecision; image-rendering:optimizeQuality; fill-rule:evenodd; clip-rule:evenodd"
viewBox="0 0 7496 1634"
 xmlns:xlink="http://www.w3.org/1999/xlink">
 <defs>
  <style type="text/css">
   <![CDATA[
    .fil22 {fill:#5B5B5B}
    .fil28 {fill:#727271}
    .fil21 {fill:#898989}
    .fil27 {fill:#9D9E9E}
    .fil10 {fill:#B2B3B3}
    .fil18 {fill:#C5C6C6}
    .fil12 {fill:#D9DADA}
    .fil11 {fill:#EBECEC}
    .fil0 {fill:#FEFEFE}
    .fil24 {fill:#130B01}
    .fil9 {fill:#13120D}
    .fil1 {fill:#181713}
    .fil8 {fill:#1A0D00}
    .fil19 {fill:#1A1608}
    .fil13 {fill:#1A1A15}
    .fil4 {fill:#1C1302}
    .fil16 {fill:#1F201B}
    .fil20 {fill:#211E16}
    .fil23 {fill:#221401}
    .fil6 {fill:#23221D}
    .fil7 {fill:#252521}
    .fil3 {fill:#271C07}
    .fil17 {fill:#282723}
    .fil15 {fill:#2A2617}
    .fil31 {fill:#2B230A}
    .fil14 {fill:#312F28}
    .fil2 {fill:#33322C}
    .fil26 {fill:#342C16}
    .fil5 {fill:#353532}
    .fil25 {fill:#383527}
    .fil29 {fill:#453C26}
    .fil30 {fill:#A89875}
    .fil33 {fill:#B8A986}
    .fil34 {fill:#D9CBA5}
    .fil32 {fill:#DDD2A7}
    .fil35 {fill:#FEFEFE;fill-rule:nonzero}
   ]]>
  </style>
 </defs>
 <g id="Layer_x0020_1">
  <metadata id="CorelCorpID_0Corel-Layer"/>
  <g id="_893647856">
   <path class="fil0" d="M627 1559c-30,-5 -178,-55 -194,-68 71,-5 146,42 194,68zm500 -97c17,-39 55,-81 94,-95l-71 74c-8,9 -15,12 -23,21zm-27 21c7,-16 15,-32 25,-49 22,-39 67,-86 116,-89 -11,14 -68,31 -99,76 -20,31 -19,48 -42,62zm184 -182c8,-25 28,-49 53,-55 -6,10 -48,52 -53,55zm-40 37c5,-27 15,-53 29,-71 24,-32 38,-38 63,-34 -1,1 -2,1 -3,2l-7 4c-72,33 -34,70 -82,99zm-13 -98c4,12 -3,3 10,1 11,-2 3,-4 11,1 15,-2 5,-2 17,-6 20,-6 -2,7 19,-3 12,-5 5,-4 21,-5l-14 11c-24,17 -39,37 -50,66l-10 33c-32,11 -47,19 -71,36 -20,14 -32,37 -49,60 7,-37 34,-86 55,-92 -61,30 -44,68 -76,128 -41,-2 -65,-27 -147,18l-121 72c31,-3 86,-49 121,-65 69,-33 80,-31 153,-12 -11,4 -70,-5 -106,6 -111,34 -138,121 -239,57 -1,0 -9,-6 -9,-6 -6,-6 -3,-1 -5,-7 -24,-10 -40,-31 -70,-40l100 73c1,-1 2,2 2,2 -30,-4 -80,-28 -108,-44 -5,-3 -9,-5 -14,-8l-15 -11c-20,-2 -55,-34 -80,-36l1 2 115 66c36,19 92,43 139,44 63,1 91,-38 125,-58 30,-18 107,-47 146,-29 -23,13 -63,25 -89,36 -33,13 -61,28 -89,41 15,-17 33,-31 60,-43 24,-12 63,-15 82,-26 -58,-7 -131,41 -158,65 -60,54 -72,54 -161,23 -94,-33 -69,-24 -156,-68 -142,-72 -136,-18 -168,-50 157,-39 309,186 454,115 16,-9 20,-13 26,-22 -57,14 -50,55 -173,4 -25,-11 -54,-25 -76,-37 -22,-12 -54,-33 -71,-39 -9,-2 -5,0 -12,-4 -1,0 -6,-2 -7,-4 0,-2 -2,-1 -3,-2 -44,-27 -99,-28 -151,-16 -8,-12 -12,-11 -20,-23 1,0 2,-1 3,-2 0,0 2,-1 2,-1l6 -3c39,-16 105,10 138,26l-1 -4c-12,-11 -50,-24 -68,-28 -35,-9 -55,-6 -86,5l-6 -8 -11 0c17,38 59,66 98,84 -90,-19 -92,-50 -212,-14 6,-16 22,-48 35,-56l-11 -3c4,-12 8,-26 11,-40 9,-38 11,-33 3,-38 -7,38 -20,81 -37,114 -30,57 -85,71 -62,75l-2 2 11 -11c70,-52 126,-69 225,-29 -74,-3 -154,-15 -200,40 45,-20 74,-42 138,-35 -47,12 -92,28 -115,58 45,-21 78,-51 144,-51 -34,16 -95,26 -123,71 17,-11 24,-20 46,-30 -5,14 -6,11 -15,22 10,-19 67,-51 106,-54 -43,19 -112,59 -114,100 5,-7 1,-3 10,-10 10,-8 5,-4 10,-6 10,-18 39,-32 56,-42 92,-55 135,-35 234,-7 51,14 100,29 150,46 129,43 133,-16 284,-73 23,-8 46,-16 69,-26 60,-25 144,-135 179,-164 21,-17 57,-68 74,-79 6,-14 13,-12 22,-24 -2,-23 -9,-24 -22,-35 -34,-8 -75,-7 -104,19 -6,6 -3,1 -4,7z"/>
   <path class="fil0" d="M881 1411c-32,-9 -48,-34 -53,-38l35 -21c-13,28 -1,50 18,59zm-305 -117c11,-5 37,19 55,30 16,10 42,24 61,30 -131,3 -84,-27 -116,-60zm472 -161c-4,17 -14,34 -18,54 -9,40 5,46 -23,68l-48 41c-7,4 -15,6 -21,-2l16 -22c14,-21 22,-17 41,-44l23 8 6 -68c-13,13 -30,31 -27,56l-16 -22 -18 25c-29,34 -17,10 -46,50l-10 14c-24,2 -117,2 -133,-10 -10,1 -2,1 -12,-1 -19,-3 5,6 -4,-3l-11 -1c-20,-3 -50,-17 -69,-26l-19 -15c-10,-1 -18,-6 -24,-13 -16,-5 -31,-16 -49,-24 -13,-6 -32,-11 -50,-15 -37,-8 -90,-15 -120,2l16 18c75,-16 154,12 207,47 80,55 152,48 199,63 -25,3 -52,19 -83,22 -68,7 -93,-25 -138,-59 -46,-34 -60,-29 -37,-38 -25,-4 -126,-49 -161,-16 24,-6 6,-3 11,6 23,-8 61,-10 85,0 9,4 5,3 8,5 -19,0 -51,-6 -65,5 11,0 22,-1 33,0 4,0 13,1 16,1l14 -3c-28,0 -40,-2 -53,3 -11,3 -6,2 -10,5 135,-10 127,27 208,75 104,62 127,-16 224,-4 -23,8 -73,24 -100,30 -144,33 -171,-77 -287,-85 15,12 10,6 14,3 -9,0 -21,0 -30,0 -16,1 -20,3 -27,9 48,-5 88,-6 116,22 7,62 30,67 94,68 -3,1 -1,1 -9,4 -90,27 -132,-51 -213,-47 -1,1 -3,0 -4,2 -5,15 0,1 -6,5 -7,3 -2,-1 -10,4 49,5 58,-1 103,21 32,16 53,34 99,31 49,-3 60,-20 116,-7 29,7 72,30 80,46 5,-3 5,-1 3,-2 4,3 -2,3 7,3l3 -1c0,0 1,-1 1,-1 1,0 2,0 2,0 3,1 19,8 27,9 14,3 50,9 65,4l31 -3c-9,-5 -33,-12 -41,-18 -11,-9 -15,-28 -11,-47 -11,11 -6,20 -3,36 -9,-5 -14,-7 -18,-19l-4 -28c-9,29 -4,49 21,56l-11 0c-14,-3 -25,-18 -29,-31 -11,-30 5,-34 26,-42 -23,1 -40,13 -57,22 -31,17 -33,1 -65,5 12,7 29,7 45,16 21,11 25,17 31,33 -27,-8 -69,-52 -98,-48 52,-8 60,-17 104,-34 62,-26 62,-7 117,-1 7,-11 -6,-2 10,-11 -11,-1 -14,-5 -19,-11 16,3 9,-2 22,3l20 -4c23,-21 23,-27 40,-59 1,-27 2,-55 9,-79 2,-8 7,-22 11,-30 3,-5 4,-5 8,-11 7,-13 2,0 7,-19l-26 16c-8,9 1,-4 -6,8z"/>
   <path class="fil1" d="M730 370l11 31c-13,-9 -6,-10 -19,-15l-8 30 -7 -30c-11,4 -6,3 -16,11l7 -25 32 -2zm118 -282c-7,5 -2,-4 -3,16 0,29 3,95 -2,121 -1,5 -1,5 -3,9l-16 -9c-5,46 1,70 -28,99 -54,54 -137,38 -168,-6 -24,-35 -21,-50 -21,-96 -18,-15 7,1 -7,-1 0,0 -1,0 -1,0 -10,-2 -11,-5 -13,-13l-6 -122 -2 322c5,19 41,3 51,59l172 0c4,-53 45,-41 50,-59l-3 -320z"/>
   <path class="fil1" d="M319 610l27 0c3,44 -70,57 -96,36 -3,-21 9,-29 26,-35l-7 7c-2,2 -3,2 -6,5 -7,7 -7,5 -9,16l8 11c32,6 72,-6 78,-34l-21 -6zm-51 -55c21,5 27,34 32,57 4,18 5,13 -5,20 -6,-12 -4,-20 -11,-39 -6,-15 -13,-23 -16,-38zm-80 11c0,16 11,33 15,49 22,-7 46,-27 70,-24 -25,11 -43,13 -63,29l9 20c17,18 -5,23 30,31l-17 3c6,15 11,29 20,39 15,-1 26,-5 36,-12l-32 -4c46,2 63,-6 99,-24 25,-12 55,-34 52,-68 -25,-37 -61,-20 -103,-17 3,-9 4,-7 19,-9 23,-4 54,-6 73,5 38,21 9,50 -1,72l62 -25c-4,-48 2,-45 26,-68l-14 -39 -6 5c-11,10 -9,7 -15,6 7,0 1,-4 1,-9 -6,3 -6,3 -13,7l-1 12c-1,0 -1,1 -2,2 -6,12 -7,-17 -5,16l-10 -12c-7,5 -6,3 -10,10 -1,-24 8,-15 -15,-13l7 -8c3,-5 1,1 3,-7 -10,-7 -5,-3 -13,-6 -2,14 -9,20 -18,24 -18,8 -11,0 -33,0 -1,-11 -2,-9 0,-19 1,-5 3,-6 4,-8 8,-14 0,6 2,-4l-2 -29 44 3c-30,-4 -2,2 -15,-9l-46 -8c-11,8 -8,-7 -7,18 0,0 3,14 3,17 3,11 5,23 7,35 -15,-15 -27,-37 -44,-56 -14,16 -25,36 -39,51 3,-19 11,-48 6,-64 -23,32 -3,25 -15,34 0,8 2,19 -4,23l-8 -3c-1,14 1,9 -3,19 -35,-2 -14,-1 -34,4 -2,7 -10,-11 0,11z"/>
   <path class="fil0" d="M555 838c5,-13 14,-28 20,-39l23 -34c40,-52 147,-128 196,-156l-57 57c-10,8 -23,15 -32,25 -41,50 -28,22 -67,72 -35,47 -34,80 -43,95l-19 -11c22,-57 58,-92 66,-110l-37 35c-6,7 -3,4 -8,12 -16,26 -18,30 -25,62l-17 -8zm280 -280c-25,39 -170,119 -205,151l-35 34c-7,7 -24,32 -31,43 -10,18 -14,28 -20,48l-36 -12c-9,2 1,5 -11,0 -10,-4 0,7 -6,-6 -24,-4 -49,-13 -75,-18 -26,-4 -52,-9 -78,-10 -5,8 3,5 -16,10 23,11 112,12 159,32 0,8 -3,16 -6,24 -8,19 0,16 -20,12 -1,2 -6,7 -8,9l-1 5c48,1 165,69 204,102 19,16 50,56 64,86 21,47 22,73 22,131 -4,-13 14,-53 -11,-121 -13,-37 -33,-68 -57,-92 -31,-33 -121,-99 -186,-111l14 -39c83,14 195,92 237,170 13,24 32,77 30,107 6,7 3,-5 6,15 1,5 1,14 1,19 8,-5 6,-8 6,-22 0,-8 0,-19 -1,-27 -2,-16 -6,-34 -10,-47 -22,-69 -68,-124 -124,-165 -12,-9 -20,-13 -34,-21 3,-28 33,-80 46,-95 20,-22 44,-53 67,-72 35,-29 76,-76 105,-102 8,-7 9,-10 16,-19 7,-10 7,-13 17,-15 17,-21 42,-52 56,-80l0 24c18,-55 34,-68 30,-140 -3,-49 -23,-91 -48,-115 5,59 42,40 31,168l-8 -23c-7,-37 -7,-27 -18,-60 3,59 35,108 -26,183 -10,11 -28,33 -40,39z"/>
   <path class="fil0" d="M871 574c-3,25 -58,73 -76,91 -12,12 -9,12 -22,21l-46 39c-11,13 -9,11 -21,22 -24,22 -57,81 -38,123 16,35 61,51 82,92l1 -15c-2,0 -62,-68 -67,-80 -19,-46 16,-86 34,-108 18,15 88,120 85,158 18,-6 6,4 9,-12 2,-8 -7,-29 -10,-37 -13,-35 -46,-92 -68,-117 14,10 21,23 33,36 11,11 8,7 16,18 20,26 24,25 48,64 10,16 16,32 25,47 -15,25 -34,35 -49,70 -14,30 -17,66 -14,106 1,-12 8,-43 19,-53 -1,-22 40,-68 57,-78 5,29 9,63 6,95 2,-1 7,-3 8,-3 0,-1 2,-7 3,-13 1,-13 0,-26 1,-39 2,-19 -4,-34 -5,-55 24,-8 51,-27 85,-38 32,-12 76,-10 105,-22 -5,0 -16,-1 -20,-2l-15 -7c-67,8 -135,34 -181,77 -16,15 -26,31 -41,47 12,-60 95,-112 167,-132 89,-25 171,-3 262,-40 -23,-1 -141,24 -160,13l-42 5c-7,-10 -3,11 -1,-2l4 -6 -26 5c-45,19 -79,12 -150,64 -2,-2 -36,-66 -55,-91l-70 -81 78 -71c6,-13 9,-15 18,-24 9,-10 10,-12 18,-24 8,-10 28,-46 32,-49l9 -32c-4,5 -9,12 -14,20 -7,12 -3,10 -14,18z"/>
   <path class="fil0" d="M1244 766c-25,41 -163,64 -199,73l-4 6c-2,13 -6,-8 1,2l42 -5c37,6 165,-38 203,-100 20,-32 14,-55 24,-80 12,85 -36,136 -91,161 55,-3 100,-32 134,-68 41,-44 52,-79 49,-155 24,33 12,101 -5,137 -5,9 -9,17 -15,24 -10,14 -47,48 -68,59 -78,42 -184,53 -278,57l15 7c4,1 15,2 20,2 30,5 127,-10 160,-18 119,-27 221,-111 193,-246 -7,-36 -22,-51 -23,-68 -18,-11 -44,-60 -78,-64 2,15 7,10 29,31 45,46 43,90 36,148 -7,-12 -6,-32 -10,-48 -8,-39 -30,-84 -69,-95 11,27 47,31 64,97 10,37 10,78 -15,109 -9,11 -2,6 -14,12 10,-41 25,-58 10,-110 -10,-36 -31,-64 -60,-73 8,18 58,34 58,117 0,26 -5,52 -16,71 -9,15 -31,36 -52,41 14,-26 39,-43 40,-101 0,-35 -22,-87 -50,-83 45,75 7,144 -31,160z"/>
   <path class="fil0" d="M54 507c-5,17 -63,67 -53,163 13,116 115,179 218,211 29,9 151,34 177,32 8,-2 10,-2 15,-3 1,0 5,-2 6,-2 9,-3 2,1 8,-3l-38 -7c-137,-19 -306,-47 -359,-185 -16,-43 -22,-111 5,-147 -5,74 -3,123 49,170 25,22 24,33 80,59 34,15 240,70 285,80 2,-2 7,-7 8,-9 -46,-12 -103,-28 -151,-43 -53,-17 -90,-35 -127,-64 41,17 92,41 145,39 19,-5 11,-2 16,-10l-37 -3c-68,-13 -106,-20 -149,-57 -36,-32 -50,-100 -7,-138 0,-16 2,-5 -8,-9 -16,20 -29,30 -30,70 -2,87 70,128 140,164 -24,-1 -88,-31 -108,-43 -94,-56 -131,-177 -71,-255 9,-11 10,-11 21,-19 13,-10 13,-5 12,-19 -20,4 -32,20 -47,28z"/>
   <path class="fil0" d="M924 1386c-7,-32 21,-39 49,-36 26,3 56,6 57,33 0,52 -98,37 -106,3zm161 -191l-9 -9c0,0 0,-1 0,0l-7 4c-2,6 -5,13 -8,19 -5,12 -5,8 -6,20 -2,12 2,2 -4,12 -3,6 -2,3 -6,7 -17,32 -17,38 -40,59l-20 4c-13,-5 -6,0 -22,-3 5,6 8,10 19,11 -16,9 -3,0 -10,11 14,2 19,5 30,13 -34,-4 -83,-18 -89,22 -4,19 0,38 11,47 8,6 32,13 41,18l-31 3c-4,9 -15,13 -21,20 155,2 106,-43 152,-58l6 50c1,-24 0,-46 9,-63 -4,-5 -3,-3 -7,-8 -3,-4 -2,-2 -4,-7l-21 9c7,-27 13,-5 52,-43 16,-16 37,-30 51,-45 39,-40 24,-87 37,-151 -13,24 -13,42 -15,72 -4,70 -16,55 -46,93 -14,17 -60,47 -83,59 -12,-27 -4,-21 12,-45 27,-43 16,-28 43,-57 4,-3 25,-27 26,-28 3,-5 13,-29 15,-35l37 -64c14,-18 13,-10 30,-24 10,7 3,-5 4,9 1,0 2,-1 2,-2l6 -6c10,-9 13,-8 22,-5 -6,9 -2,2 -8,12 -6,10 -1,0 -7,13 -7,16 -7,17 -7,42l11 -8c10,-10 18,-39 26,-56l3 -5c0,0 5,-5 7,-7 -22,-29 -71,-5 -92,12 -15,13 -40,49 -51,76 -21,50 -25,42 -50,77 -10,12 -18,24 -28,37 -22,29 -14,29 -29,31 3,-12 29,-51 38,-65 10,-17 26,-44 31,-68z"/>
   <path class="fil2" d="M297 290c0,-6 -2,-12 2,-16l7 12 14 -10 -4 16 16 -1 -14 10 9 7c-6,3 10,6 -12,2l-1 16 -9 -13 -10 13 1 -17 -17 2 18 -21zm-153 -3c21,6 -8,-6 4,4 18,14 14,3 22,22l2 3c5,5 7,-4 18,4l13 9c1,0 2,0 2,0 1,0 2,1 2,1 13,4 11,6 17,17l11 19c-4,-30 0,-14 7,-20 8,5 35,43 39,57 20,-12 6,-2 21,-26l15 -20c10,-1 -7,-13 6,5 0,0 22,-1 -5,-22 27,5 31,-3 47,5 9,5 4,2 8,5 5,-9 1,-12 10,-19l-34 -77c-11,-1 -28,0 -40,-6 -12,-6 -13,-15 -26,-22 -17,5 -134,53 -139,61z"/>
   <path class="fil3" d="M571 347c5,-47 0,-178 0,-243 1,-29 -5,-61 6,-72 13,-13 263,-13 275,0 9,8 5,1 7,18 4,56 -7,236 -1,305 2,21 6,109 -12,117 -34,5 -97,1 -135,1l-123 0c-27,-7 -19,-86 -17,-126zm-11 -318c-6,97 0,207 -2,306 0,31 -9,130 11,146 12,10 280,11 294,-2 15,-14 8,-116 7,-144 -1,-100 -2,-202 -1,-302 -9,-26 -39,-19 -66,-19l-177 -1c-33,0 -51,-8 -66,16z"/>
   <path class="fil4" d="M947 622c-14,-2 -14,-4 -23,-10 0,-24 150,-374 169,-414 32,0 175,70 217,86 16,7 33,15 48,20 -1,41 -68,170 -87,217 -15,35 -74,185 -94,201 -25,-4 -92,-38 -119,-49 -27,-12 -95,-32 -111,-51zm22 -165c-5,25 -35,82 -46,109 -25,63 -17,59 41,82 38,15 206,98 225,88 12,-7 185,-416 180,-428 -17,-22 -51,-32 -82,-44 -15,-6 -31,-12 -44,-18 -13,-6 -36,-14 -45,-23 -23,-5 -83,-38 -98,-37 -23,2 -40,62 -50,84l-81 187z"/>
   <path class="fil5" d="M716 85l7 29c9,-4 12,-10 19,-17l-10 31 -34 -1 -9 -29c5,7 11,11 18,16l9 -29zm-98 -23c20,0 -1,13 -5,15l9 11c1,0 1,1 2,1l5 5c24,13 29,2 25,37l-6 17c0,1 -2,2 -2,3 19,-8 7,-4 11,2 23,-9 56,-21 81,-11 5,-4 -11,-14 19,-3 10,-11 -6,-4 7,-5 12,-1 -8,12 22,-6l21 -16c1,-1 2,-1 2,-2l23 -23c0,-1 1,-2 2,-2 1,0 3,-2 4,-3 -20,-21 -27,-18 -39,-50l-170 0 -11 30z"/>
   <path class="fil0" d="M667 298l0 0zm-13 -2c8,1 5,2 12,10 7,6 7,7 17,11 41,20 85,2 105,-49 5,-78 -47,-103 -90,-92 -31,8 -39,18 -51,41 -14,28 -2,56 7,79z"/>
   <path class="fil0" d="M609 1445c3,-2 3,-2 9,-5 28,-13 50,-6 77,8 29,16 39,36 58,58 -5,-15 -22,-40 -31,-47 -14,-12 -27,-15 -36,-21l-8 -6c0,-1 -1,-2 -2,-3 -1,-1 -2,-2 -3,-3 53,4 80,41 101,78l16 39c-1,-53 -41,-91 -82,-117 82,-2 102,153 138,92l30 -59c-24,12 -26,49 -41,66 -22,0 -23,-8 -31,-28 -7,-16 -9,-24 -19,-36 9,10 28,32 44,39 -1,-4 -30,-36 -32,-38 -11,-12 -29,-23 -43,-32l105 22c-28,21 -41,4 -69,-4 11,13 30,21 47,19 23,-3 19,-15 50,-13 -4,19 -17,27 -17,59 6,-19 13,-48 29,-59 2,4 3,2 1,11 0,4 -2,7 -3,11 -4,12 -4,12 -3,25 38,-54 59,-24 113,-48 -31,1 -81,6 -104,24 3,-12 8,-18 10,-24 6,-7 17,-11 21,-20 -15,5 -51,-1 -65,-4 -8,-1 -24,-8 -27,-9 0,0 -1,0 -2,0 0,0 -1,1 -1,1l-3 1c-9,0 -3,0 -7,-3 -30,-2 -65,-47 -158,-34 -87,12 -87,16 -159,-17 45,31 74,39 141,26 26,-5 56,-7 84,-3 31,4 47,16 71,22 -18,8 -130,-32 -210,11 -30,16 -25,15 -60,5 32,25 49,8 63,9 11,1 -7,1 8,7z"/>
   <path class="fil6" d="M138 348l16 2 19 -17c0,14 -1,9 2,16l14 -2c-5,7 -8,9 -12,12l9 5c-18,9 -11,10 -14,20l-8 -11 -11 12 2 -18c-2,0 -9,2 -9,2 -10,-1 -3,0 -9,-2l12 -8 -11 -11zm-25 46l24 6c9,42 -3,16 7,42 4,11 9,-1 1,12 7,-4 8,-6 11,-14 11,6 3,5 23,11l0 -18 24 -10c-6,-18 -3,-2 -14,-18 14,2 22,1 33,8 13,-2 9,0 18,1 19,0 9,6 13,-5l-11 -63c-7,6 -11,-10 -7,20l-11 -19c-6,-11 -4,-13 -17,-17 0,0 -1,-1 -2,-1 0,0 -1,0 -2,0l-13 -9c-11,-8 -13,1 -18,-4l-2 -3c-8,-19 -4,-8 -22,-22 -12,-10 17,2 -4,-4l-19 3c-3,31 0,55 -26,63 2,-11 7,-12 14,-23 7,-12 7,-21 7,-36l-39 16c-1,12 26,74 32,84z"/>
   <path class="fil0" d="M557 577l37 44c5,6 7,10 11,18 3,2 7,4 13,8 6,5 6,6 12,11 -2,13 1,3 -3,14 5,4 0,3 13,3 24,-11 113,-77 135,-95 13,-12 29,-34 36,-39 4,-14 11,-21 14,-35 -10,4 -8,4 -15,13 -5,7 -1,3 -6,9 -7,7 -3,3 -10,8l-9 12c-20,20 -17,24 -33,30 -2,3 1,0 -5,6 -1,0 -3,2 -4,3l-79 53c-11,-12 -15,-17 -17,-28 -10,-7 -4,-1 -11,-10 -2,-4 -5,-9 -7,-12 -5,-9 -9,-16 -13,-26l-23 -54c-1,36 25,83 44,111 27,37 15,26 12,30 -14,2 -21,-18 -28,-26l-43 -49c-99,-136 -50,-170 -46,-258 -3,13 -15,34 -20,53 -5,24 -5,49 -4,74 -2,-3 -3,-3 -6,-9 -2,-3 -1,-2 -2,-5 -1,-2 -3,-11 -3,-13 -21,-115 36,-144 35,-181 -8,11 -18,16 -27,32 -25,45 -33,97 -23,149 8,45 49,134 75,159z"/>
   <path class="fil0" d="M461 627c-3,-30 8,-46 27,-59 5,17 11,22 12,40 -11,11 -25,16 -39,19zm-317 -340c5,-8 122,-56 139,-61 13,7 14,16 26,22 12,6 29,5 40,6l34 77c6,14 32,80 40,85 4,16 38,102 46,108l14 39c-24,23 -30,20 -26,68l-62 25c10,-22 39,-51 1,-72 -19,-11 -50,-9 -73,-5 -15,2 -16,0 -19,9 42,-3 78,-20 103,17 3,34 -27,56 -52,68 -36,18 -53,26 -99,24l32 4c-10,7 -21,11 -36,12 -9,-10 -14,-24 -20,-39l17 -3c-35,-8 -13,-13 -30,-31l-9 -20c20,-16 38,-18 63,-29 -24,-3 -48,17 -70,24 -4,-16 -15,-33 -15,-49 -15,-15 -29,-60 -38,-82 -12,-29 -28,-61 -37,-90 -6,-10 -33,-72 -32,-84l39 -16c0,15 0,24 -7,36 -7,11 -12,12 -14,23 26,-8 23,-32 26,-63l19 -3zm148 -62c7,-10 34,-18 37,-18 8,8 14,25 17,38 -40,0 -30,-5 -54,-20zm-185 174c20,52 47,113 70,162 25,54 46,111 72,159 21,-2 239,-95 257,-108 3,-32 -68,-159 -71,-190 -10,-8 -87,-199 -99,-224 -31,1 -100,38 -134,51 -35,13 -100,42 -128,57 1,26 23,68 33,93z"/>
   <path class="fil0" d="M347 1429l11 0 -6 -18c76,-20 105,14 154,29 -16,-14 -41,-27 -68,-36 -48,-15 -51,-5 -91,0l-8 -21c67,-39 179,46 184,65 3,13 8,3 -5,12l1 4c13,11 4,3 17,10 19,9 12,5 5,9 1,1 3,0 3,2 1,2 6,4 7,4 7,4 3,2 12,4 -4,-6 -8,-10 -9,-12 -3,-11 -8,-4 3,-10l-1 -2 -91 -76c-31,-19 -89,-42 -127,-21 -6,-32 62,-24 83,-19 35,9 52,24 78,37 -19,-24 -63,-47 -106,-52l6 -4c4,-1 5,-2 9,-3 9,-2 11,-1 20,-1 8,-5 3,-1 10,-4 6,-4 1,10 6,-5 1,-2 3,-1 4,-2 -42,4 -53,4 -91,16 58,-32 67,-35 147,-33 -33,-18 -93,-5 -127,7 24,-14 43,-35 83,-37 7,-6 11,-8 27,-9 9,0 21,0 30,0 -4,3 1,9 -14,-3 -43,2 -62,3 -99,20 -19,10 -63,36 -64,50 25,-30 42,-77 118,-86 4,-3 -1,-2 10,-5 13,-5 25,-3 53,-3l-14 3c-3,0 -12,-1 -16,-1 -11,-1 -22,0 -33,0 -41,-1 -97,37 -119,71 7,-18 22,-45 33,-54 10,-8 40,-28 58,-27 -5,-9 13,-12 -11,-6 -54,7 -110,76 -96,150 3,16 12,46 24,57z"/>
   <path class="fil0" d="M1198 223c9,9 32,17 45,23 13,6 29,12 44,18 31,12 65,22 82,44 5,12 -168,421 -180,428 -19,10 -187,-73 -225,-88 -58,-23 -66,-19 -41,-82 11,-27 41,-84 46,-109l-8 -8c-5,23 -19,46 -28,70 -5,12 -10,20 -15,31l-11 25c-6,11 0,2 -5,7 0,36 -15,43 27,63 18,8 52,18 67,31 50,13 110,52 159,67 56,18 63,-32 99,-120l66 -156c13,-29 65,-137 58,-165 -8,-19 -19,-18 -38,-27 -15,-6 -26,-12 -42,-19 -25,-10 -66,-24 -87,-37l-13 4z"/>
   <path class="fil7" d="M1173 327l-1 6c1,0 2,1 2,1 0,0 1,1 2,2l3 1c22,5 28,6 41,21l-24 19c4,18 0,13 -2,33 31,8 -3,23 31,20 11,0 25,-3 32,-13 7,-10 -8,-5 4,-7 4,28 11,17 4,40 -1,1 -1,2 -1,2l-3 10c9,10 0,4 16,8 4,-12 6,-29 11,-41 -13,-2 -15,12 -6,-26 4,-21 11,-11 13,-26 0,-7 -4,-12 -3,-27l23 -14 -8 -19c-1,0 -2,-1 -3,0l-22 6c-1,-16 -1,-17 -11,-29 -13,21 2,7 -17,14l1 -15c-8,-3 -2,-2 -15,2 -4,1 -8,3 -16,4 11,4 6,5 2,11 -5,7 -3,4 -8,8 -19,14 -25,2 -45,9z"/>
   <path class="fil8" d="M99 408c3,23 71,172 84,204 65,151 45,138 140,97 28,-12 187,-74 195,-93 11,-24 -69,-167 -77,-202l-6 8c3,31 74,158 71,190 -18,13 -236,106 -257,108 -26,-48 -47,-105 -72,-159 -23,-49 -50,-110 -70,-162 -12,1 -8,-5 -8,9z"/>
   <path class="fil0" d="M50 305c-3,29 37,108 49,137 9,21 55,121 56,135 15,21 39,93 54,124 11,24 19,47 47,46 14,-1 53,-20 70,-25 11,-9 87,-41 104,-48 17,-7 36,-16 54,-23 30,-13 28,-9 46,-31 2,-45 -67,-171 -82,-216 0,0 -6,8 -7,10 8,35 88,178 77,202 -8,19 -167,81 -195,93 -95,41 -75,54 -140,-97 -13,-32 -81,-181 -84,-204 -9,-11 -36,-71 -39,-89 -2,-22 11,-26 28,-33 14,-7 31,-10 42,-21 -7,-5 -1,-2 -12,-4 -23,13 -59,16 -68,44z"/>
   <path class="fil9" d="M1288 429c-5,12 -7,29 -11,41 -1,6 -2,11 -5,17 -12,25 -13,0 -24,37 -3,10 -5,28 -16,33 -28,13 -12,0 -17,-2 -6,-19 -7,-96 -4,-116 -1,0 -2,-1 -2,-1l-8 -5c-8,-2 3,-12 -7,1 1,13 5,52 5,69 4,22 17,56 4,73 -4,-5 -7,-9 -11,-18 -1,-4 -2,-7 -4,-12l-4 -8c-7,19 -12,43 -27,54 -5,19 -13,23 -16,43 -4,5 -7,8 -10,16 3,3 -1,1 6,5 5,3 1,1 7,3 7,2 3,0 10,2 9,2 4,1 9,3l12 8c1,1 2,1 2,2l13 7c1,0 2,2 2,2 1,0 2,1 3,2l136 -329c-3,3 -5,0 -12,14 -1,1 -2,4 -3,5 -11,29 -22,31 -28,54z"/>
   <path class="fil10" d="M1255 293l-1 15c19,-7 4,7 17,-14 10,12 10,13 11,29l22 -6c1,-1 2,0 3,0l8 19 -23 14c-1,15 3,20 3,27 -2,15 -9,5 -13,26 -9,38 -7,24 6,26 6,-23 17,-25 28,-54 1,-1 2,-4 3,-5 7,-14 9,-11 12,-14l-136 329c-6,26 -10,40 -40,26 -14,-6 -44,-13 -40,-30 3,15 -2,5 -15,8l4 -22c-11,5 -1,5 -8,16l-16 -6 5 -8c-9,-6 -11,10 -6,-10l-8 11c0,1 -1,3 -2,4 -1,-1 -2,-4 -2,-4l-5 -6c-3,-1 0,2 -11,1 -6,-14 -2,-12 -4,-22 -1,2 -1,11 -11,1 -16,-18 2,-15 2,-15l-8 -3 -4 9c-2,-3 -5,-18 -19,1 -1,1 -3,0 -4,1 -2,5 -22,-3 -30,-3l4 -16 -16 10 -12 -7 -2 1c16,19 84,39 111,51 27,11 94,45 119,49 20,-16 79,-166 94,-201 19,-47 86,-176 87,-217 -15,-5 -32,-13 -48,-20 0,9 2,7 -7,7l44 22 -4 16c4,-13 5,-4 3,-19l-66 -21c0,0 -1,-1 -1,-1l-9 -7c-14,-7 -12,-4 -19,-4 1,8 1,6 4,16z"/>
   <path class="fil0" d="M93 1384l-1 4c43,-1 123,-66 160,-91 16,-11 34,-27 50,-34 -28,37 -143,114 -169,139 54,-18 122,-92 147,-107 -21,33 -74,77 -107,104l-30 24c-6,5 -5,4 -11,10 42,-16 99,-71 123,-95 -6,12 -14,23 -23,32 -12,14 -18,24 -28,33l-63 61c23,-10 65,-45 81,-66 7,-10 16,-17 22,-26 -15,52 -48,99 -73,134 50,-23 90,-160 112,-193 6,-10 13,-16 17,-26 5,-14 10,-22 20,-29 -9,8 6,2 -17,5 3,-12 1,-15 7,-14 -3,1 -5,5 -16,-5 -19,9 -77,54 -98,70 -17,12 -32,22 -50,35 -18,12 -34,26 -53,35z"/>
   <path class="fil11" d="M1170 419l-17 4c-4,-8 -7,-10 -3,-22 6,3 1,0 7,4 0,1 1,1 2,2l11 12zm-15 -16c-1,-18 -4,-17 7,-28 10,5 8,9 15,14l7 -12c-1,24 -1,19 -10,31l-19 -5zm-45 -52c-1,-25 2,-19 11,-26 2,26 10,41 -10,56 -1,-4 -1,-21 -1,-30zm2 -81c-13,26 -5,8 -7,33 -1,15 -3,22 -3,40 0,18 -2,54 -10,70 -6,20 -12,36 -18,55l-14 36c-2,14 -5,4 4,13l5 4c6,-4 17,-29 20,-43 10,9 13,-16 9,21l10 -6 32 -92c1,4 1,28 18,27 17,-1 7,0 12,-9 15,13 -18,73 -23,90l-28 -7 10 2c1,0 2,1 3,1 9,4 3,-2 8,5 6,9 3,14 3,14l5 -1c4,-2 0,20 2,-3 7,-6 1,1 6,-11l21 -51c1,1 2,1 3,4 0,2 2,2 3,3l9 27c1,1 1,2 2,3l6 9 -1 -1c0,-17 -4,-56 -5,-69 -15,-10 -3,-8 -18,-17 6,-13 0,-1 5,-8l3 -5c9,-15 9,-25 6,-41 -49,-15 -27,9 -51,29 -11,-28 -10,-104 -16,-111 -7,-23 4,-14 5,-32 0,-9 2,-1 -3,-7 -4,16 -5,15 -13,28z"/>
   <path class="fil0" d="M550 42c-1,90 -1,180 -2,270 0,45 -2,90 -1,135 3,60 37,49 87,49 44,1 90,0 134,0 34,0 100,9 111,-24 15,-46 -8,-208 2,-268 -6,15 -10,134 -5,150 0,-43 -1,-304 -7,-321 -1,100 0,202 1,302 1,28 8,130 -7,144 -14,13 -282,12 -294,2 -20,-16 -11,-115 -11,-146 2,-99 -4,-209 2,-306l-5 13c0,2 -1,10 -1,12 -1,7 -1,16 -1,23 0,15 0,31 0,46 1,32 0,63 -1,95l-3 -191 1 15z"/>
   <path class="fil12" d="M947 622l2 -1 0 -2 -20 -9c5,-25 17,-36 18,-58l10 -12c5,-13 -6,-8 14,-7 -1,-1 -2,-3 -3,-3 0,1 -5,-3 -3,-10 37,12 81,42 117,49l4 -2 -57 -24 -3 -3 -59 -26 5 -15c11,6 14,7 26,11 4,2 7,3 10,5l13 11c-1,-1 -3,-9 -3,-10l3 -12c-2,3 0,12 -23,3 -8,-3 -18,-8 -22,-11l8 -18 20 -49c7,-22 70,-166 78,-175 3,25 0,-1 -5,21l-1 7c-1,8 1,0 -2,8l-9 44c9,-7 5,-6 14,-20 19,-29 1,-13 10,-32 4,-8 7,-9 14,-15 -2,-15 2,-1 -5,-17l16 -13c9,-7 21,-4 26,4l6 18c13,-4 12,-5 18,-16 -9,-16 -11,-7 -22,-20l34 15 127 53c9,0 7,2 7,-7 -42,-16 -185,-86 -217,-86 -19,40 -169,390 -169,414 9,6 9,8 23,10z"/>
   <path class="fil0" d="M294 1244c11,10 13,6 16,5 -6,-1 -4,2 -7,14 23,-3 8,3 17,-5 -10,7 -15,15 -20,29l-29 75c8,5 6,0 -3,38 -3,14 -7,28 -11,40l11 3c21,-19 17,-31 29,-59 5,35 29,69 47,82 -21,-6 -54,-14 -72,3 78,0 73,15 110,20 0,-1 -1,-4 -2,-3l-13 -14c-42,-37 -74,-87 -62,-149 13,-65 69,-118 127,-120l-16 -18c-33,4 -68,23 -95,38 -7,4 -8,4 -14,9l-13 12z"/>
   <path class="fil7" d="M1004 429l3 4c3,6 1,2 4,7 3,5 5,7 8,10 9,-3 7,-6 19,-17 15,2 18,5 31,7 6,-9 6,-22 7,-33 11,6 3,6 16,6 8,-16 10,-52 10,-70 0,-18 2,-25 3,-40 2,-25 -6,-7 7,-33 -4,-8 6,-12 -9,-3 -7,6 -10,7 -14,15 -9,19 9,3 -10,32 -9,14 -5,13 -14,20l9 -44c3,-8 1,0 2,-8l1 -7c5,-22 8,4 5,-21 -8,9 -71,153 -78,175z"/>
   <path class="fil13" d="M188 566c-10,-22 -2,-4 0,-11 20,-5 -1,-6 34,-4 4,-10 2,-5 3,-19l8 3c6,-4 4,-15 4,-23 12,-9 -8,-2 15,-34l-67 9c7,-4 36,-28 56,-39 -9,-11 -23,-23 -38,-25l-24 10 0 18c-20,-6 -12,-5 -23,-11 -3,8 -4,10 -11,14 8,-13 3,-1 -1,-12 -10,-26 2,0 -7,-42l-24 -6c9,29 25,61 37,90 9,22 23,67 38,82z"/>
   <path class="fil13" d="M1194 434c10,-13 -1,-3 7,-1l8 5c0,0 1,1 2,1 -3,20 -2,97 4,116 5,2 -11,15 17,2 11,-5 13,-23 16,-33 11,-37 12,-12 24,-37 3,-6 4,-11 5,-17 -16,-4 -7,2 -16,-8l3 -10c0,0 0,-1 1,-2 7,-23 0,-12 -4,-40 -12,2 3,-3 -4,7 -7,10 -21,13 -32,13 -34,3 0,-12 -31,-20 2,-20 6,-15 2,-33l24 -19c-13,-15 -19,-16 -41,-21 13,24 22,-2 35,21 -5,10 2,5 -10,9l-1 -4c0,0 0,-1 1,-2l2 -4c0,-2 1,-2 2,-3 -24,1 -7,2 -32,-3 -23,-5 -20,4 -19,-20l15 2 1 -6 -20 0c-6,22 -2,16 -13,26 -16,-57 1,-38 -7,-63 -5,-17 -1,-11 -10,-9 6,7 5,83 16,111 24,-20 2,-44 51,-29 3,16 3,26 -6,41l-3 5c-5,7 1,-5 -5,8 15,9 3,7 18,17z"/>
   <path class="fil0" d="M1241 1104c-40,24 -16,90 -46,125 4,-55 -2,-64 16,-112 -14,19 -22,45 -22,77 1,69 0,88 -64,130 -12,8 -51,34 -56,43 2,5 1,3 4,7 4,5 3,3 7,8l32 -24c-19,43 -27,49 -26,106 10,-30 -4,-43 33,-101 13,-20 50,-64 75,-36l-5 -8 -6 -4c8,-15 21,-30 33,-40 7,-6 31,-25 36,-33 -8,-5 0,-3 -11,-1 -13,2 -6,11 -10,-1l-22 13c7,-25 55,-125 60,-144 2,-6 2,-5 1,-9 -4,-11 2,-2 -4,-5 -2,2 -7,7 -7,7l-3 5c-8,17 -16,46 -26,56l-11 8c0,-25 0,-26 7,-42 6,-13 1,-3 7,-13 6,-10 2,-3 8,-12z"/>
   <path class="fil14" d="M1214 265c14,8 13,7 0,17l0 -17zm-38 -27c13,27 12,-1 6,36 -14,-1 -20,3 -19,-14 1,-10 5,-22 13,-22zm-73 29c15,-9 5,-5 9,3 8,-13 9,-12 13,-28 5,6 3,-2 3,7 -1,18 -12,9 -5,32 9,-2 5,-8 10,9 8,25 -9,6 7,63 11,-10 7,-4 13,-26l20 0c20,-7 26,5 45,-9 5,-4 3,-1 8,-8 4,-6 9,-7 -2,-11 8,-1 12,-3 16,-4 13,-4 7,-5 15,-2 -3,-10 -3,-8 -4,-16 7,0 5,-3 19,4l9 7c0,0 1,1 1,1l66 21c2,15 1,6 -3,19l4 -16 -44 -22 -127 -53 -34 -15c11,13 13,4 22,20 -6,11 -5,12 -18,16l-6 -18c-5,-8 -17,-11 -26,-4l-16 13c7,16 3,2 5,17z"/>
   <path class="fil15" d="M616 241c22,-9 15,-1 18,2l-14 3c5,8 2,4 10,7 1,0 2,1 2,0 0,0 2,1 2,1 0,0 -4,14 -16,1 -7,-7 -3,-9 -2,-14zm39 -66c6,17 6,8 -1,17 -16,-8 -12,-10 1,-17zm121 17c-2,-3 -7,7 -2,-9 4,-15 -1,-1 6,-6 4,9 5,6 -4,15zm-71 -41l21 0 -2 16c-17,6 -23,4 -19,-16zm-69 161c7,-9 0,-2 8,-9 9,-8 -3,-3 10,-7 -9,-23 -21,-51 -7,-79 12,-23 20,-33 51,-41 43,-11 95,14 90,92 1,-1 4,-3 5,-3 1,-1 -7,-2 7,-1 5,1 9,1 13,4 15,-15 -1,-83 -47,-107 -25,-14 -49,-20 -79,-11 -31,9 -56,31 -68,62 -13,32 -10,85 17,100z"/>
   <path class="fil16" d="M342 441c-8,1 -5,-2 -11,4 7,13 36,25 43,39l-2 1c13,11 -15,5 15,9l-44 -3 2 29c-2,10 6,-10 -2,4 -1,2 -3,3 -4,8 -2,10 -1,8 0,19 22,0 15,8 33,0 9,-4 16,-10 18,-24 6,-3 -6,-6 13,-1l3 -17 12 11 10 -10c0,32 -2,5 5,16l16 0c0,5 6,9 -1,9 6,1 4,4 15,-6l6 -5c-8,-6 -42,-92 -46,-108 -1,1 -2,2 -3,3l-6 9c-6,9 -1,4 -13,9l-10 5c21,3 24,4 19,24 -25,-1 -6,2 -20,-8 -1,-1 -1,-2 -2,-3 -14,-11 -8,-6 -23,-4 -21,4 -22,-9 -23,-10z"/>
   <path class="fil17" d="M323 362l-7 39c-2,25 -2,7 6,13l64 -12c-4,12 -36,24 -44,39 1,1 2,14 23,10 15,-2 9,-7 23,4 1,1 1,2 2,3 14,10 -5,7 20,8 5,-20 2,-21 -19,-24l10 -5c12,-5 7,0 13,-9l6 -9c1,-1 2,-2 3,-3 -8,-5 -34,-71 -40,-85 -9,7 -5,10 -10,19 -4,-3 1,0 -8,-5 -16,-8 -20,0 -47,-5 27,21 5,22 5,22z"/>
   <path class="fil15" d="M130 265c-11,11 -28,14 -42,21 -17,7 -30,11 -28,33 3,18 30,78 39,89 0,-14 -4,-8 8,-9 -10,-25 -32,-67 -33,-93 28,-15 93,-44 128,-57 34,-13 103,-50 134,-51 12,25 89,216 99,224l6 -8c-4,-14 -85,-205 -93,-217 -18,-28 -81,12 -107,23 -28,12 -85,39 -111,45z"/>
   <path class="fil14" d="M580 86l6 122c2,8 3,11 13,13 0,0 1,0 1,0 14,2 -11,-14 7,1 7,-13 13,-29 23,-41 8,-11 17,-18 27,-28 -4,-6 8,-10 -11,-2 0,-1 2,-2 2,-3l6 -17c4,-35 -1,-24 -25,-37l-5 -5c-1,0 -1,-1 -2,-1l-9 -11c4,-2 25,-15 5,-15 -7,2 -7,5 -15,11 -6,4 -2,2 -10,6 -11,6 -3,-1 -13,7z"/>
   <path class="fil18" d="M253 409c-4,11 6,5 -13,5 -9,-1 -5,-3 -18,-1 -30,11 29,-5 32,21 5,36 -7,-12 6,22 4,11 -1,11 0,14l23 7c10,-8 -3,6 6,-7l7 -10 16 8c8,-2 7,4 3,-2l11 11 46 8 2 -1c-7,-14 -36,-26 -43,-39 6,-6 3,-3 11,-4 8,-15 40,-27 44,-39l-64 12c-8,-6 -8,12 -6,-13l-10 15c3,-13 6,-18 8,-35 -15,8 -6,0 -14,11l-9 27c0,-1 0,-2 0,-2l-1 -3c-7,-15 1,11 -18,-16 -11,-16 1,-4 -16,-13 2,13 3,13 5,22 2,8 2,3 0,10l-8 -8z"/>
   <path class="fil18" d="M582 464c-6,-14 -5,-27 -3,-43 23,6 39,23 45,46 -16,0 -28,3 -42,-3zm224 3c10,-28 15,-38 43,-45 2,14 2,30 -1,44l-42 1zm-226 -381l-5 14c0,3 0,11 1,15l-5 232c-2,40 -10,119 17,126l123 0c38,0 101,4 135,-1 18,-8 14,-96 12,-117 -14,-33 3,-258 -11,-273l1 6 3 320c-5,18 -46,6 -50,59l-172 0c-10,-56 -46,-40 -51,-59l2 -322z"/>
   <path class="fil14" d="M738 142c28,5 40,16 54,31 7,7 13,13 18,24 5,8 9,22 14,28l16 9c2,-4 2,-4 3,-9 5,-26 2,-92 2,-121 1,-20 -4,-11 3,-16l-1 -6 -9 0c-1,1 -3,3 -4,3 -1,0 -2,1 -2,2l-23 23c0,1 -1,1 -2,2l-21 16c-30,18 -10,5 -22,6 -13,1 3,-6 -7,5 -30,-11 -14,-1 -19,3z"/>
   <path class="fil0" d="M549 27l3 191c1,-32 2,-63 1,-95 0,-15 0,-31 0,-46 0,-7 0,-16 1,-23 0,-2 1,-10 1,-12l5 -13c15,-24 33,-16 66,-16l177 1c27,0 57,-7 66,19 6,17 7,278 7,321 -5,-16 -1,-135 5,-150 6,-32 2,-135 -2,-171l0 -9c-16,-28 -32,-23 -68,-23 -32,0 -64,-1 -96,-1 -33,0 -65,0 -97,0 -33,0 -61,-4 -69,27z"/>
   <path class="fil0" d="M981 1202l16 22c-3,-25 14,-43 27,-56 6,-17 14,-25 24,-35 7,-12 -2,1 6,-8l26 -16c-5,19 0,6 -7,19 -4,6 -5,6 -8,11 -4,8 -9,22 -11,30 -7,24 -8,52 -9,79 4,-4 3,-1 6,-7 6,-10 2,0 4,-12 -8,-8 -2,4 -4,-9 0,0 0,-8 0,-10 0,-4 1,-12 2,-16 2,-28 9,-71 36,-82 -16,36 -14,36 -20,78l7 -4c0,-1 0,0 0,0l9 9c10,-13 44,-77 38,-93 -14,-11 -22,-11 -43,-10l-7 0c-33,26 -29,10 -55,47 -10,13 -13,16 -20,30 -6,12 -10,23 -17,33z"/>
   <path class="fil0" d="M668 1192c-5,-17 0,-29 -7,-49 -6,-19 -14,-27 -21,-45 -5,-2 0,4 -7,-7 -7,-11 -4,-4 -5,-13 -13,-7 -23,-29 -31,-44 -8,-16 -11,-39 -21,-52 -1,22 3,38 11,57 8,19 19,27 25,44 -23,-13 -32,-25 -47,-47 -8,-11 -10,-19 -14,-33 -3,-13 -5,-27 -16,-36 -1,27 10,66 24,81 -8,-12 -23,-16 -34,-42 -7,-18 -12,-45 -18,-63 -27,36 21,108 67,134 76,43 67,45 94,115z"/>
   <path class="fil10" d="M1032 451l10 -1 0 3 21 9c-17,13 -18,9 -19,-8 -11,10 -7,0 -9,16 0,0 14,40 -8,54 -1,28 -3,7 10,15l3 -21 41 20c-8,6 -10,-8 -26,7 40,7 31,-1 52,3l-6 7c-4,1 -6,-1 -13,7 15,10 18,8 30,19 0,17 1,2 -5,9 -5,27 -2,6 6,14 6,-11 1,-10 5,-26l14 -4c-8,-42 -16,1 -10,-24l2 -6c-32,-6 -17,1 -19,-9 -3,-18 1,9 7,-16 -5,10 -5,12 -19,14 -4,-6 -5,0 -3,-12 0,0 6,-11 6,-11 13,3 20,7 29,18l-3 15c5,6 -11,13 9,3l6 -22c0,0 3,-5 -3,-14 -5,-7 1,-1 -8,-5 -1,0 -2,-1 -3,-1l-10 -2c-4,-5 4,-3 -11,-9l-10 6c4,-37 1,-12 -9,-21 -3,14 -14,39 -20,43l-28 -10c12,-48 24,-26 36,-53 -12,-15 -18,-18 -39,-20 -6,5 -4,-8 -6,13z"/>
   <path class="fil0" d="M396 913c4,2 2,1 10,4l20 4c9,1 17,3 26,5 3,41 0,55 11,95 5,5 7,11 12,20 3,5 3,5 5,10 7,13 3,3 5,12 23,13 34,45 65,41l-4 -6c-1,0 -2,-1 -3,-2l-11 -9c-16,-12 -34,-32 -44,-51 -15,-28 -24,-71 -18,-106l37 13c22,3 54,19 71,28 7,-6 5,-2 7,-15 -21,-6 -47,-22 -72,-31 -27,-8 -59,-17 -88,-20 -6,4 1,0 -8,3 -1,0 -5,2 -6,2 -5,1 -7,1 -15,3z"/>
   <path class="fil10" d="M203 423c15,2 29,14 38,25 -20,11 -49,35 -56,39l67 -9c5,16 -3,45 -6,64 14,-15 25,-35 39,-51 17,19 29,41 44,56 -2,-12 -4,-24 -7,-35 0,-3 -3,-17 -3,-17 -1,-25 -4,-10 7,-18l-11 -11c4,6 5,0 -3,2l-16 -8 -7 10c-9,13 4,-1 -6,7l-23 -7c-1,-3 4,-3 0,-14 -13,-34 -1,14 -6,-22 -3,-26 -62,-10 -32,-21 -11,-7 -19,-6 -33,-8 11,16 8,0 14,18z"/>
   <path class="fil19" d="M784 324c-9,-1 -6,1 -12,-4 4,-17 0,-9 11,-11 5,13 4,0 1,15zm4 -56c-20,51 -64,69 -105,49 -10,-4 -10,-5 -17,-11 -7,-8 -4,-9 -12,-10 -13,4 -1,-1 -10,7 -8,7 -1,0 -8,9 1,8 1,9 11,17 6,5 13,9 19,12 16,8 30,13 50,13 -5,-6 -8,-11 -10,-22l9 11c6,-11 -3,-8 10,-10l-5 21c14,-2 26,-5 38,-10 13,-6 21,-9 26,-20 9,-4 1,1 8,-4 12,-11 21,-38 21,-52 -4,-3 -8,-3 -13,-4 -14,-1 -6,0 -7,1 -1,0 -4,2 -5,3z"/>
   <path class="fil0" d="M955 1112c-5,12 -53,56 -68,60l3 11c28,-11 80,-61 101,-86 12,-14 14,-30 26,-41 -1,-15 2,-16 4,-32 1,-14 -1,-24 -1,-38 -15,-18 -28,-43 -63,-32 -31,10 -33,39 -20,68l24 2c-5,-4 -13,-9 -19,-13 -6,-59 62,-56 64,2 1,39 -30,86 -51,99z"/>
   <path class="fil0" d="M807 32c47,0 46,-6 43,45 -22,-8 -40,-19 -43,-45zm-229 45c0,-16 -3,-31 5,-44l38 0c-1,22 -21,40 -43,44zm-7 270l5 -232c-1,-4 -1,-12 -1,-15l5 -14c10,-8 2,-1 13,-7 8,-4 4,-2 10,-6 8,-6 8,-9 15,-11l11 -30 170 0c12,32 19,29 39,50l9 0c14,15 -3,240 11,273 -6,-69 5,-249 1,-305 -2,-17 2,-10 -7,-18 -12,-13 -262,-13 -275,0 -11,11 -5,43 -6,72 0,65 5,196 0,243z"/>
   <path class="fil0" d="M391 1055l-16 -7c-12,-8 -17,-40 1,-47 26,-8 26,38 22,61 -8,39 -27,31 -45,50 82,4 84,-93 58,-115 -23,-20 -63,-10 -71,20 -10,38 24,63 51,38z"/>
   <path class="fil12" d="M1143 524l-6 22c-20,10 -4,3 -9,-3l2 1 -2 6c-6,25 2,-18 10,24l-14 4c-4,16 1,15 -5,26 -8,-8 -11,13 -6,-14l-3 -2 -8 1 9 7c-4,7 -5,11 -6,17l-1 2 2 15 24 -4c4,10 3,4 11,9 3,-20 11,-24 16,-43 11,-32 -12,15 -2,-31l21 -49c2,-3 6,-9 10,-11l14 3 -6 -9c-1,-1 -1,-2 -2,-3l-9 -27c-1,-1 -3,-1 -3,-3 -1,-3 -2,-3 -3,-4l-21 51c-5,12 1,5 -6,11 -2,23 2,1 -2,3l-5 1z"/>
   <path class="fil0" d="M846 708l5 24c3,-1 3,-3 4,-3 0,1 1,-2 1,-2 8,-17 -5,11 2,-6 3,-5 3,-8 6,-13l29 -2c15,37 -16,65 -38,93l-11 15 79 0 8 -35c-18,16 -23,14 -53,12 5,-4 22,-20 28,-26 42,-39 6,-97 -60,-57z"/>
   <path class="fil12" d="M813 268c0,14 -9,41 -21,52 -7,5 1,0 -8,4 -5,11 -13,14 -26,20 -12,5 -24,8 -38,10l5 -21c-13,2 -4,-1 -10,10l-9 -11c2,11 5,16 10,22 -20,0 -34,-5 -50,-13 -6,-3 -13,-7 -19,-12 -10,-8 -10,-9 -11,-17 -27,-15 -30,-68 -17,-100 12,-31 37,-53 68,-62 30,-9 54,-3 79,11 46,24 62,92 47,107zm-156 -115c-10,10 -19,17 -27,28 -10,12 -16,28 -23,41 0,46 -3,61 21,96 31,44 114,60 168,6 29,-29 23,-53 28,-99 -5,-6 -9,-20 -14,-28 -5,-11 -11,-17 -18,-24 -14,-15 -26,-26 -54,-31 -25,-10 -58,2 -81,11z"/>
   <path class="fil20" d="M650 254c2,-22 14,-11 22,-5 3,-7 -7,-11 4,-5 6,3 5,12 5,12l-31 -2zm17 44l29 -32c-4,-8 1,0 -5,-7 -5,-7 1,2 -6,-9 2,-5 3,-5 5,-8l6 -7c-16,-8 -25,-15 -29,-33 17,11 25,26 37,28 16,-26 -5,-29 11,-45 12,16 -4,24 10,46 10,-5 23,-20 37,-30 -4,12 -17,31 -29,35l9 10c13,-2 7,-4 21,-3l14 3c-6,12 -4,11 -22,10 -1,-1 -5,-1 -6,-1 -9,0 -8,2 -18,6 18,20 14,7 21,27l-25 -20c-18,27 1,23 -12,46 -3,-5 -3,-2 -4,-10 -3,-30 9,-18 -6,-34 -9,2 -27,22 -38,28zm0 0l0 0z"/>
   <path class="fil0" d="M422 122c1,1 2,3 2,3 7,8 1,1 6,7 6,-32 27,-26 33,-17 6,6 4,-6 5,12 1,13 -8,16 -17,22 -1,1 -2,2 -3,2 -1,1 -2,2 -3,3 0,0 -2,1 -2,2 21,3 14,2 28,12 3,19 0,30 -11,39 -12,10 -12,5 -24,10l-14 7c28,5 56,3 70,-16 16,-24 8,-46 -15,-58 16,-13 19,-13 15,-41 -15,-7 -66,-27 -70,13z"/>
   <path class="fil0" d="M110 919c-10,11 -4,13 -1,28 9,-9 7,-31 40,-19 6,22 0,28 -11,35l-10 6c-1,0 -2,1 -3,2 21,5 38,13 28,39 -9,22 -32,15 -51,26 43,23 72,-15 78,-19 6,-42 -8,-39 -20,-50 45,-40 -7,-59 -50,-48z"/>
   <path class="fil21" d="M1104 667l-4 22c13,-3 18,7 15,-8 -4,17 26,24 40,30 30,14 34,0 40,-26 -1,-1 -2,-2 -3,-2 0,0 -1,-2 -2,-2l-13 -7c0,-1 -1,-1 -2,-2l-12 -8c-5,-2 0,-1 -9,-3 -7,-2 -3,0 -10,-2 -6,-2 -2,0 -7,-3 -7,-4 -3,-2 -6,-5 3,-8 6,-11 10,-16 -8,-5 -7,1 -11,-9 0,1 -1,2 -1,3l-4 5c0,1 -1,2 -1,3 -8,14 -5,17 -20,30z"/>
   <path class="fil0" d="M578 971c3,4 73,48 86,87l6 13c26,21 21,90 29,114 26,-16 -7,-110 -21,-139 -16,-32 -61,-74 -93,-90 -2,13 0,9 -7,15z"/>
   <path class="fil0" d="M937 204c-21,-3 -7,-2 -12,5 14,6 29,14 50,10 32,-7 44,-32 40,-69l-2 -5c-1,-1 -5,-7 -6,-10 -9,-13 -6,-2 -7,-12 -21,-8 -39,-17 -60,-2 28,7 48,8 45,45 -2,24 -20,43 -48,38z"/>
   <path class="fil22" d="M723 264l-17 3c3,-8 -1,-10 8,-10 4,0 7,5 9,7zm8 -12c-7,9 -1,2 -10,3 1,-14 1,-11 10,-10 1,3 9,-5 0,7zm-64 46c11,-6 29,-26 38,-28 15,16 3,4 6,34 1,8 1,5 4,10 13,-23 -6,-19 12,-46l25 20c-7,-20 -3,-7 -21,-27 10,-4 9,-6 18,-6 1,0 5,0 6,1 18,1 16,2 22,-10l-14 -3c-14,-1 -8,1 -21,3l-9 -10c12,-4 25,-23 29,-35 -14,10 -27,25 -37,30 -14,-22 2,-30 -10,-46 -16,16 5,19 -11,45 -12,-2 -20,-17 -37,-28 4,18 13,25 29,33l-6 7c-2,3 -3,3 -5,8 7,11 1,2 6,9 6,7 1,-1 5,7l-29 32z"/>
   <path class="fil13" d="M1108 493c15,6 7,4 11,9l28 7c5,-17 38,-77 23,-90 -5,9 5,8 -12,9 -17,1 -17,-23 -18,-27l-32 92z"/>
   <path class="fil0" d="M875 1056c-5,23 -5,39 -13,62 -6,20 -16,37 -18,57 13,-7 56,-73 96,-79 15,-24 31,-10 42,-46 -14,6 -36,26 -52,36 -14,9 -39,31 -52,35 3,-21 9,-38 11,-60 1,-11 3,-22 3,-33 0,-5 0,-10 -1,-15 -2,-12 0,-5 -4,-12 -1,13 0,26 -1,39 -1,6 -3,12 -3,13 -1,0 -6,2 -8,3z"/>
   <path class="fil1" d="M1004 429l-20 49c26,-2 28,4 46,11 10,-29 4,-14 2,-38 2,-21 0,-8 6,-13 21,2 27,5 39,20 -12,27 -24,5 -36,53l28 10 -5 -4c-9,-9 -6,1 -4,-13l14 -36c6,-19 12,-35 18,-55 -13,0 -5,0 -16,-6 -1,11 -1,24 -7,33 -13,-2 -16,-5 -31,-7 -12,11 -10,14 -19,17 -3,-3 -5,-5 -8,-10 -3,-5 -1,-1 -4,-7l-3 -4z"/>
   <path class="fil0" d="M1263 1030c-1,6 5,5 -7,4 4,5 8,10 25,9 20,-1 20,-6 22,-9l-11 -1 -1 -110c-14,1 -28,11 -41,17 12,8 6,0 17,7 0,16 0,31 0,47 0,14 3,28 -4,36z"/>
   <path class="fil10" d="M947 552c12,3 55,22 68,29 6,20 -6,14 7,35 0,1 2,4 3,6l9 -2c9,-7 5,-4 12,-12 5,-6 5,-8 12,-14 18,-14 24,-12 44,-5l8 -1c-5,-11 -11,-14 -24,-21l-4 2c-5,7 1,8 -26,-3 -10,-4 -18,-7 -28,-11 13,19 16,11 40,24 -18,9 -37,-5 -54,-12l-51 -22c-6,-3 -2,-1 -6,-5l-10 12z"/>
   <path class="fil0" d="M278 1003c0,23 -25,44 -29,69 23,2 20,3 26,-17 6,-20 27,-79 36,-88 -8,-13 1,-7 -16,-11l-58 0c-7,12 -7,18 -8,32 23,-14 27,-11 64,-11 -5,17 -5,17 -15,26z"/>
   <path class="fil0" d="M1146 1039c-1,-1 -2,2 -3,4l47 -1c0,-1 -1,-2 -2,-3l-7 -10c-5,-12 -2,-95 -2,-109l-41 18 17 9c0,1 2,111 -9,92z"/>
   <path class="fil0" d="M946 718l11 -4c2,16 1,32 2,49 0,7 1,21 0,27 -1,19 3,14 -11,17 8,14 -3,1 10,6 3,1 6,2 10,2 6,1 21,0 27,0 -1,-1 -2,-4 -3,-3l-6 -9c-10,-21 2,-79 -4,-107 -18,2 -34,7 -36,22z"/>
   <path class="fil0" d="M1076 936l-6 5c8,5 7,-1 16,6l0 74c-2,18 -1,12 -11,13 10,13 20,9 48,8l-6 -6c0,-1 -1,-1 -2,-3 -1,-1 -1,-1 -2,-3 -8,-15 0,-78 -4,-107 -12,1 -19,8 -33,13z"/>
   <path class="fil0" d="M541 741c-6,15 -3,7 -14,19 -5,6 -7,11 -12,19 -9,12 -16,24 -24,37 6,13 -4,2 6,6 12,5 2,2 11,0 5,-21 41,-64 59,-84 21,-23 47,-40 73,-63 -13,0 -8,1 -13,-3 -23,6 -66,53 -82,66l-4 3z"/>
   <path class="fil21" d="M949 619l0 2 12 7 16 -10 -4 16c8,0 28,8 30,3 1,-1 3,0 4,-1l0 -24c-15,-10 -7,3 -22,-15l-28 -31 -10 12c-4,15 -23,19 -11,33 13,14 13,2 18,-3l-5 11z"/>
   <path class="fil0" d="M1319 938c7,6 6,3 15,6 1,21 7,73 -5,92l35 -2c-10,-15 -5,-93 -5,-112l-40 16z"/>
   <path class="fil10" d="M1157 592c15,-11 20,-35 27,-54l4 8c2,5 3,8 4,12 4,9 7,13 11,18 13,-17 0,-51 -4,-73l1 1 -14 -3c-4,2 -8,8 -10,11l-21 49c-10,46 13,-1 2,31z"/>
   <path class="fil3" d="M957 540c4,4 0,2 6,5l51 22c17,7 36,21 54,12 -24,-13 -27,-5 -40,-24 10,4 18,7 28,11 27,11 21,10 26,3 -36,-7 -80,-37 -117,-49 -2,7 3,11 3,10 1,0 2,2 3,3 -20,-1 -9,-6 -14,7z"/>
   <path class="fil19" d="M949 619l5 -11c-5,5 -5,17 -18,3 -12,-14 7,-18 11,-33l10 -12 28 31c15,18 7,5 22,15l0 24c14,-19 17,-4 19,-1l4 -9 -5 -4c-1,-2 -3,-5 -3,-6 -13,-21 -1,-15 -7,-35 -13,-7 -56,-26 -68,-29 -1,22 -13,33 -18,58l20 9z"/>
   <path class="fil21" d="M1034 620l-9 2 5 4 8 3c0,0 -18,-3 -2,15 10,10 10,1 11,-1 2,10 -2,8 4,22 11,1 8,-2 11,-1l5 6c0,0 1,3 2,4 1,-1 2,-3 2,-4l8 -11c-5,20 -3,4 6,10 1,-1 15,-8 16,-8 17,-15 6,-18 6,-18 -5,-2 9,-4 -11,-2 -20,2 -2,-1 -9,4l-10 11c-2,-5 -4,-14 -5,-16l-4 -8c-9,-12 -12,5 -8,-24l-18 19 -8 -7z"/>
   <path class="fil23" d="M1034 620l8 7 18 -19c-4,29 -1,12 8,24l4 8c1,2 3,11 5,16l10 -11c7,-5 -11,-2 9,-4 20,-2 6,0 11,2 0,0 11,3 -6,18 -1,0 -15,7 -16,8l-5 8 16 6c7,-11 -3,-11 8,-16 15,-13 12,-16 20,-30 0,-1 1,-2 1,-3l4 -5c0,-1 1,-2 1,-3l-24 4 -2 -15c-9,9 -11,12 -14,26l-17 -5c-6,-20 -1,-7 1,-12 -4,-1 -17,1 -14,-20 2,-17 25,-19 39,1 1,1 2,2 2,2 1,1 1,3 2,3 0,1 1,2 2,3 1,-6 2,-10 6,-17l-9 -7c-20,-7 -26,-9 -44,5 -7,6 -7,8 -12,14 -7,8 -3,5 -12,12z"/>
   <path class="fil21" d="M984 478l-8 18c4,3 14,8 22,11 23,9 21,0 23,-3l-3 12c0,1 2,9 3,10 0,2 -1,-1 1,5 0,0 2,8 2,6 1,-1 1,2 2,3l3 3 8 -4c-13,-8 -11,13 -10,-15 22,-14 8,-54 8,-54 2,-16 -2,-6 9,-16l-2 -1 0 -3 -10 1c2,24 8,9 -2,38 -18,-7 -20,-13 -46,-11z"/>
   <path class="fil0" d="M253 409l8 8c2,-7 2,-2 0,-10 -2,-9 -3,-9 -5,-22 17,9 5,-3 16,13 19,27 11,1 18,16l1 3c0,0 0,1 0,2l9 -27c8,-11 -1,-3 14,-11 -2,17 -5,22 -8,35l10 -15 7 -39c-13,-18 4,-6 -6,-5l-15 20c-15,24 -1,14 -21,26 -4,-14 -31,-52 -39,-57l11 63z"/>
   <path class="fil24" d="M1037 539l-8 4 57 24c13,7 19,10 24,21l3 2c6,-7 5,8 5,-9 -12,-11 -15,-9 -30,-19 7,-8 9,-6 13,-7l6 -7c-21,-4 -12,4 -52,-3 16,-15 18,-1 26,-7l-41 -20 -3 21z"/>
   <path class="fil12" d="M1104 615l1 -2c-1,-1 -2,-2 -2,-3 -1,0 -1,-2 -2,-3 0,0 -1,-1 -2,-2 -14,-20 -37,-18 -39,-1 -3,21 10,19 14,20 -2,5 -7,-8 -1,12l17 5c3,-14 5,-17 14,-26z"/>
   <path class="fil3" d="M806 467l42 -1c3,-14 3,-30 1,-44 -28,7 -33,17 -43,45z"/>
   <path class="fil25" d="M850 77c3,-51 4,-45 -43,-45 3,26 21,37 43,45z"/>
   <path class="fil0" d="M495 735c-2,-5 4,1 -8,-6 -5,-3 -7,-3 -10,-6 -8,-7 -9,-13 -9,-24 -17,1 7,24 -36,32l11 7c21,12 11,11 21,27 13,-17 4,-24 31,-30z"/>
   <path class="fil26" d="M595 44c8,5 12,7 -5,12l5 -12zm-17 33c22,-4 42,-22 43,-44l-38 0c-8,13 -5,28 -5,44z"/>
   <path class="fil10" d="M390 527c8,3 3,-1 13,6 -2,8 0,2 -3,7l-7 8c23,-2 14,-11 15,13 4,-7 3,-5 10,-10l10 12c-2,-33 -1,-4 5,-16 1,-1 1,-2 2,-2l1 -12c7,-4 7,-4 13,-7l-16 0c-7,-11 -5,16 -5,-16l-10 10 -12 -11 -3 17c-19,-5 -7,-2 -13,1z"/>
   <path class="fil19" d="M591 457c-3,-19 2,-14 10,-13 2,15 -10,13 -10,13zm-9 7c14,6 26,3 42,3 -6,-23 -22,-40 -45,-46 -2,16 -3,29 3,43z"/>
   <path class="fil25" d="M292 225c24,15 14,20 54,20 -3,-13 -9,-30 -17,-38 -3,0 -30,8 -37,18z"/>
   <path class="fil4" d="M480 610c-10,-6 -7,-5 -11,-13 0,-2 7,-6 10,-6 13,0 7,2 11,6 -7,13 2,2 -10,13zm-19 17c14,-3 28,-8 39,-19 -1,-18 -7,-23 -12,-40 -19,13 -30,29 -27,59z"/>
   <path class="fil21" d="M177 359c4,-3 7,-5 12,-12l-14 2c-3,-7 -2,-2 -2,-16l-19 17 -16 -2 11 11 -12 8c6,2 -1,1 9,2 0,0 7,-2 9,-2l-2 18 11 -12 8 11c3,-10 -4,-11 14,-20l-9 -5z"/>
   <path class="fil10" d="M297 290l-18 21 17 -2 -1 17 10 -13 9 13 1 -16c22,4 6,1 12,-2l-9 -7 14 -10 -16 1 4 -16 -14 10 -7 -12c-4,4 -2,10 -2,16z"/>
   <path class="fil18" d="M319 610l21 6c-6,28 -46,40 -78,34l-8 -11c2,-11 2,-9 9,-16 3,-3 4,-3 6,-5l7 -7c-17,6 -29,14 -26,35 26,21 99,8 96,-36l-27 0z"/>
   <path class="fil21" d="M698 372l-7 25c10,-8 5,-7 16,-11l7 30 8 -30c13,5 6,6 19,15l-11 -31 -32 2z"/>
   <path class="fil27" d="M707 114c-7,-5 -13,-9 -18,-16l9 29 34 1 10 -31c-7,7 -10,13 -19,17l-7 -29 -9 29z"/>
   <path class="fil0" d="M881 1411c-19,-9 -31,-31 -18,-59l-35 21c5,4 21,29 53,38z"/>
   <path class="fil24" d="M1026 540c-1,-1 -1,-4 -2,-3 0,2 -2,-6 -2,-6 -2,-6 -1,-3 -1,-5l-13 -11c-3,-2 -6,-3 -10,-5 -12,-4 -15,-5 -26,-11l-5 15 59 26z"/>
   <path class="fil12" d="M268 555c3,15 10,23 16,38 7,19 5,27 11,39 10,-7 9,-2 5,-20 -5,-23 -11,-52 -32,-57z"/>
   <path class="fil15" d="M1130 544l-2 -1 3 -15c-9,-11 -16,-15 -29,-18 0,0 -6,11 -6,11 -2,12 -1,6 3,12 14,-2 14,-4 19,-14 -6,25 -10,-2 -7,16 2,10 -13,3 19,9z"/>
   <path class="fil0" d="M1394 448c-7,13 -4,10 -19,13l8 6c17,14 5,10 19,20l2 -17 15 -4c-6,-18 -14,5 -14,-18 -7,-7 -3,9 -7,-9l-4 9z"/>
   <path class="fil0" d="M190 1036c-9,20 11,10 -2,37 31,0 34,-54 2,-37z"/>
   <path class="fil0" d="M297 1080c-3,7 -5,-9 -2,10 1,11 2,4 4,10 2,9 -2,8 -4,20 32,-8 31,-52 2,-40z"/>
   <path class="fil15" d="M1155 403l19 5c9,-12 9,-7 10,-31l-7 12c-7,-5 -5,-9 -15,-14 -11,11 -8,10 -7,28z"/>
   <path class="fil11" d="M1163 336c16,2 8,-2 9,9 -20,-3 -6,-2 -9,-9zm16 1l-3 -1c-1,-1 -2,-2 -2,-2 0,0 -1,-1 -2,-1l-15 -2c-1,24 -4,15 19,20 25,5 8,4 32,3 -1,1 -2,1 -2,3l-2 4c-1,1 -1,2 -1,2l1 4c12,-4 5,1 10,-9 -13,-23 -22,3 -35,-21z"/>
   <path class="fil28" d="M1176 238c-8,0 -12,12 -13,22 -1,17 5,13 19,14 6,-37 7,-9 -6,-36z"/>
   <path class="fil29" d="M1111 381c20,-15 12,-30 10,-56 -9,7 -12,1 -11,26 0,9 0,26 1,30z"/>
   <path class="fil0" d="M1099 786c0,-20 2,-20 -19,-21 -5,6 -11,13 -1,22 9,8 13,0 20,-1z"/>
   <path class="fil0" d="M1213 969c19,6 22,-5 20,-20 -17,-2 -28,-1 -20,20z"/>
   <path class="fil0" d="M12 451c6,0 5,-2 4,4 16,2 5,4 19,-2l1 -18c-8,0 -3,-1 -16,-2l-6 5 -2 13z"/>
   <path class="fil0" d="M1212 1005c-3,18 0,21 18,18l4 -19c-10,-2 -15,-2 -22,1z"/>
   <path class="fil11" d="M724 167l2 -16 -21 0c-4,20 2,22 19,16z"/>
   <path class="fil18" d="M650 254l31 2c0,0 1,-9 -5,-12 -11,-6 -1,-2 -4,5 -8,-6 -20,-17 -22,5z"/>
   <path class="fil0" d="M70 876c4,-27 -21,-28 -17,-2l17 2z"/>
   <path class="fil12" d="M469 597c4,8 1,7 11,13 12,-11 3,0 10,-13 -4,-4 2,-6 -11,-6 -3,0 -10,4 -10,6z"/>
   <path class="fil11" d="M616 241c-1,5 -5,7 2,14 12,13 16,-1 16,-1 0,0 -2,-1 -2,-1 0,1 -1,0 -2,0 -8,-3 -5,1 -10,-7l14 -3c-3,-3 4,-11 -18,-2z"/>
   <path class="fil4" d="M1170 419l-11 -12c-1,-1 -2,-1 -2,-2 -6,-4 -1,-1 -7,-4 -4,12 -1,14 3,22l17 -4z"/>
   <path class="fil11" d="M654 192c7,-9 7,0 1,-17 -13,7 -17,9 -1,17z"/>
   <path class="fil23" d="M1044 454c1,17 2,21 19,8l-21 -9 2 1z"/>
   <path class="fil11" d="M784 324c3,-15 4,-2 -1,-15 -11,2 -7,-6 -11,11 6,5 3,3 12,4z"/>
   <path class="fil30" d="M591 457c0,0 12,2 10,-13 -8,-1 -13,-6 -10,13z"/>
   <path class="fil31" d="M714 257c-9,0 -5,2 -8,10l17 -3c-2,-2 -5,-7 -9,-7z"/>
   <path class="fil23" d="M721 255c9,-1 3,6 10,-3 9,-12 1,-4 0,-7 -9,-1 -9,-4 -10,10z"/>
   <path class="fil32" d="M776 192c9,-9 8,-6 4,-15 -7,5 -2,-9 -6,6 -5,16 0,6 2,9z"/>
   <path class="fil33" d="M1214 282c13,-10 14,-9 0,-17l0 17z"/>
   <path class="fil31" d="M1163 336c3,7 -11,6 9,9 -1,-11 7,-7 -9,-9z"/>
   <path class="fil34" d="M590 56c17,-5 13,-7 5,-12l-5 12z"/>
  </g>
  <g id="_219789888">
   <path class="fil35" d="M2055 993l-167 0 0 -19c22,-5 36,-13 41,-23 4,-11 7,-29 7,-56l0 -406 -110 0c-6,68 -16,140 -32,217 -16,77 -32,138 -49,183 -18,45 -35,74 -53,89 -18,14 -38,22 -61,22 -23,0 -43,-4 -61,-10l0 -80 38 0c3,19 12,28 28,28 12,0 23,-5 35,-17 11,-12 24,-41 39,-87 15,-46 29,-102 42,-166 13,-65 19,-111 19,-141 0,-19 -3,-33 -9,-40 -5,-7 -16,-12 -31,-14l0 -19 324 0 0 20c-19,5 -32,11 -37,19 -6,8 -9,28 -9,60l0 342c0,31 3,51 9,59 5,9 18,15 37,20l0 19z"/>
   <path id="1" class="fil35" d="M2449 993l0 -19c20,-5 33,-12 38,-21 5,-8 8,-28 8,-58l0 -170c0,-55 1,-91 2,-107l-2 0 -225 277c0,32 3,51 9,60 6,8 18,14 37,19l0 19 -165 0 0 -19c20,-5 33,-12 39,-21 5,-8 8,-28 8,-58l0 -342c0,-34 -4,-55 -10,-62 -7,-7 -19,-13 -37,-17l0 -20 165 0 0 20c-17,4 -29,10 -36,17 -6,8 -10,28 -10,62l0 174c0,39 0,72 -2,99l2 0 225 -277c0,-28 -3,-46 -8,-55 -5,-8 -18,-15 -38,-20l0 -20 164 0 0 20c-17,4 -29,10 -36,17 -6,8 -9,28 -9,62l0 342c0,32 2,51 8,60 6,8 18,14 37,19l0 19 -164 0z"/>
   <path id="2" class="fil35" d="M3124 895c0,15 0,26 1,34 1,8 2,14 4,18 2,5 4,9 7,12 2,3 6,5 11,8 5,2 13,4 23,7l0 19 -166 0 0 -19c15,-4 25,-8 31,-12 6,-5 10,-12 12,-21 2,-9 3,-24 3,-46l0 -166 -219 0 0 166c0,17 0,30 1,38 2,8 4,15 6,20 3,4 7,8 13,12 5,3 14,6 26,9l0 19 -166 0 0 -19c16,-4 27,-9 32,-14 6,-5 10,-12 11,-22 2,-9 3,-24 3,-43l0 -342c0,-18 -1,-31 -2,-40 -2,-8 -4,-14 -7,-19 -3,-5 -7,-8 -12,-11 -5,-3 -13,-6 -25,-9l0 -20 166 0 0 20c-12,3 -20,6 -25,8 -5,3 -9,7 -13,11 -2,5 -5,11 -6,20 -2,9 -2,22 -2,40l0 140 219 0 0 -140c0,-23 -1,-38 -3,-47 -2,-8 -6,-15 -11,-19 -6,-5 -16,-9 -32,-13l0 -20 166 0 0 20c-15,3 -25,8 -31,12 -6,5 -10,12 -12,21 -2,9 -3,25 -3,46l0 342z"/>
   <path id="3" class="fil35" d="M3564 993l0 -19c20,-5 32,-12 38,-21 5,-8 7,-28 7,-58l0 -170c0,-55 1,-91 2,-107l-2 0 -224 277c0,32 3,51 8,60 6,8 19,14 38,19l0 19 -165 0 0 -19c20,-5 33,-12 38,-21 6,-8 8,-28 8,-58l0 -342c0,-34 -3,-55 -10,-62 -7,-7 -19,-13 -36,-17l0 -20 165 0 0 20c-18,4 -30,10 -36,17 -7,8 -10,28 -10,62l0 174c0,39 -1,72 -2,99l2 0 224 -277c0,-28 -2,-46 -8,-55 -5,-8 -18,-15 -37,-20l0 -20 164 0 0 20c-18,4 -30,10 -36,17 -7,8 -10,28 -10,62l0 342c0,32 3,51 9,60 5,8 18,14 37,19l0 19 -164 0z"/>
   <path id="4" class="fil35" d="M4123 993l0 -19c20,-5 33,-12 38,-21 5,-8 8,-28 8,-58l0 -170c0,-55 0,-91 1,-107l-1 0 -225 277c0,32 3,51 9,60 5,8 18,14 37,19l0 19 -165 0 0 -19c20,-5 33,-12 38,-21 6,-8 9,-28 9,-58l0 -342c0,-34 -4,-55 -11,-62 -7,-7 -19,-13 -36,-17l0 -20 165 0 0 20c-18,4 -30,10 -36,17 -7,8 -10,28 -10,62l0 174c0,39 -1,72 -2,99l2 0 225 -277c0,-28 -3,-46 -8,-55 -6,-8 -18,-15 -38,-20l0 -20 164 0 0 20c-17,4 -29,10 -36,17 -6,8 -10,28 -10,62l0 342c0,32 3,51 9,60 6,8 18,14 37,19l0 19 -164 0z"/>
   <path id="5" class="fil35" d="M4926 466l0 109 -39 0c-6,-23 -14,-41 -24,-54 -10,-14 -21,-24 -34,-29 -13,-6 -29,-9 -47,-9 -27,0 -51,9 -72,27 -21,18 -38,45 -50,81 -12,36 -18,80 -18,131 0,52 5,96 15,133 10,36 24,64 44,82 19,19 43,28 72,28 21,0 39,-3 53,-9 13,-7 25,-16 34,-30 10,-13 18,-33 27,-59l39 0 0 113c-25,6 -50,11 -76,15 -26,3 -54,5 -86,5 -66,0 -117,-23 -151,-68 -34,-46 -51,-113 -51,-203 0,-56 9,-105 26,-148 18,-42 44,-75 79,-98 34,-23 75,-35 123,-35 24,0 46,1 67,4 20,2 43,7 69,14z"/>
   <path id="6" class="fil35" d="M5450 474c-13,4 -25,12 -35,23 -10,11 -25,38 -45,81l-112 241c-34,73 -63,122 -88,146 -24,25 -54,37 -89,37 -22,0 -41,-3 -60,-9l0 -100 43 0c2,30 15,45 38,45 32,0 61,-25 87,-76l-128 -281c-20,-44 -34,-72 -42,-83 -9,-11 -20,-19 -35,-24l0 -20 169 0 0 20c-25,3 -37,13 -37,31 0,17 7,43 23,78l89 200 79 -182c17,-39 25,-69 25,-88 0,-24 -11,-37 -34,-39l0 -20 152 0 0 20z"/>
   <path id="7" class="fil35" d="M5820 1135c-2,-27 -7,-54 -15,-79 -8,-26 -18,-43 -28,-51 -10,-8 -24,-12 -41,-12l-236 0c-27,0 -47,12 -59,36 -12,25 -20,60 -23,106l-41 0 0 -178 39 0c42,-52 77,-121 103,-205 27,-85 40,-160 40,-226 0,-18 -2,-30 -8,-38 -5,-8 -15,-12 -31,-14l0 -20 323 0 0 20c-18,4 -30,10 -37,17 -6,7 -9,28 -9,62l0 404 63 0 0 178 -40 0zm-97 -646l-111 0c-16,202 -62,358 -137,468l248 0 0 -468z"/>
   <path id="8" class="fil35" d="M5940 993l0 -19c20,-5 33,-12 38,-21 6,-8 8,-28 8,-58l0 -342c0,-34 -3,-55 -10,-62 -7,-7 -19,-13 -36,-17l0 -20 167 0 0 20c-21,5 -34,12 -39,22 -6,9 -8,28 -8,57l0 136c38,-4 71,-5 100,-5 119,0 179,50 179,149 0,107 -66,160 -198,160l-201 0zm120 -269l0 232c19,2 41,3 65,3 47,0 82,-10 103,-30 20,-19 31,-50 31,-91 0,-78 -41,-117 -122,-117 -34,0 -60,1 -77,3z"/>
   <path id="9" class="fil35" d="M6423 993l0 -19c20,-5 33,-12 38,-21 5,-8 8,-28 8,-58l0 -342c0,-32 -3,-53 -9,-61 -6,-8 -19,-14 -37,-18l0 -20 364 0 0 120 -39 0c-10,-31 -20,-53 -30,-66 -11,-12 -29,-19 -55,-19l-120 0 0 200c37,-4 71,-5 100,-5 119,0 179,50 179,149 0,107 -66,160 -198,160l-201 0zm120 -269l0 232c19,2 41,3 65,3 48,0 82,-10 103,-30 20,-20 31,-50 31,-91 0,-78 -41,-117 -122,-117 -34,0 -60,1 -77,3z"/>
   <path id="10" class="fil35" d="M7330 993l0 -19c17,-4 29,-10 36,-17 7,-6 10,-27 10,-62l0 -342c0,-32 -3,-53 -9,-61 -6,-8 -19,-14 -37,-18l0 -20 166 0 0 20c-20,5 -32,12 -38,21 -5,8 -8,28 -8,58l0 342c0,34 3,54 10,61 6,8 18,13 36,18l0 19 -166 0zm-423 0l0 -19c18,-4 30,-10 37,-17 7,-7 10,-28 10,-62l0 -342c0,-34 -4,-55 -10,-62 -7,-7 -19,-13 -37,-17l0 -20 167 0 0 20c-21,5 -34,12 -39,22 -5,9 -8,28 -8,57l0 136c37,-4 69,-5 97,-5 115,0 172,50 172,149 0,107 -64,160 -191,160l-198 0zm120 -269l0 232c19,2 40,3 64,3 47,0 81,-10 101,-30 20,-20 30,-50 30,-91 0,-78 -40,-117 -119,-117 -33,0 -59,1 -76,3z"/>
   <g>
    <path class="fil0" d="M4533 1298c22,33 29,77 0,110 -24,-32 -26,-81 0,-110zm-786 -128c-18,16 -71,39 -51,84 8,19 35,35 50,8 19,-35 -17,-37 -26,-40 101,-95 228,25 347,48 68,13 95,-6 145,-4 17,-18 45,-25 65,-35 -49,72 -2,121 35,73 -17,-40 -15,-12 -39,-21 7,-61 90,-110 164,-82 77,29 62,146 -41,122 -30,-17 -24,-83 17,-65 38,16 -11,7 26,26 11,-44 -27,-63 -61,-39 -48,34 -5,72 8,97 119,2 92,-26 118,-99 31,53 -7,47 -13,109 -4,45 15,92 42,117 25,-22 46,-66 42,-110 -6,-64 -43,-66 -16,-118 1,1 2,2 3,5 0,3 1,4 2,5l3 12c2,9 2,14 4,23 18,67 69,55 109,54 1,-2 3,-4 4,-5 1,-1 2,-3 3,-5 77,-105 -97,-119 -58,-48 22,-12 7,-41 45,-25 23,9 16,36 11,56 -102,54 -139,-70 -66,-108 75,-38 170,14 175,78 -21,10 -10,-1 -39,4l8 29c60,21 47,-43 36,-77 102,29 145,68 292,0 71,-33 209,-97 258,-12 -32,-11 -37,15 -25,39 63,36 99,-110 -92,-99 -170,40 -198,112 -360,83l18 -6c31,-6 119,8 89,-71 -14,-4 -33,-12 -40,9 -6,17 7,20 10,38 -78,26 -152,-20 -219,-37 -114,-31 -142,19 -197,62 -18,-11 -7,-4 -20,-17 -150,-145 -254,42 -395,-10 6,-27 17,-4 8,-48 -69,-8 -57,44 -22,63 37,21 81,9 118,4 -265,68 -177,-79 -475,-67z"/>
    <path class="fil0" d="M4403 1400c-21,-13 -8,-10 -32,-4 -11,18 -10,13 -3,31 32,19 49,2 35,-27z"/>
    <path class="fil0" d="M4665 1432c17,3 27,5 34,-9 9,-16 -6,-25 -7,-29l-34 3 7 35z"/>
    <path class="fil0" d="M4787 1421c24,-21 2,-31 2,-31 -31,-12 -36,4 -32,33 10,1 20,7 30,-2z"/>
    <path class="fil0" d="M4277 1390c-20,43 49,52 29,-3l-24 1c-1,-2 -4,1 -5,2z"/>
    <path class="fil0" d="M4853 1402c24,9 36,2 25,-25 -1,0 -9,-17 -25,0 -15,14 -1,24 0,25z"/>
    <path class="fil0" d="M4188 1402c18,17 34,3 27,-27 -31,-7 -43,10 -27,27z"/>
    <path class="fil0" d="M4941 1383l19 2c4,-17 10,-10 -1,-29 0,0 -19,-12 -23,9 -6,34 0,8 5,18z"/>
    <path class="fil0" d="M4124 1383c1,-2 3,-7 3,-6 0,1 2,-4 2,-5 -1,-14 -2,-10 -6,-17 -35,-5 -35,32 1,28z"/>
    <path class="fil0" d="M5026 1361c10,-2 5,11 16,-7 16,-23 1,-19 0,-19 -26,-6 -33,-2 -16,26z"/>
    <path class="fil0" d="M4039 1360c31,-54 -59,-13 0,0z"/>
    <path class="fil0" d="M5097 1323c13,9 1,7 22,5 9,-35 2,-8 -5,-19 -7,-1 -16,1 -17,14z"/>
    <path class="fil0" d="M5172 1290c30,25 18,2 22,0 -8,-13 -17,-33 -22,0z"/>
    <path class="fil0" d="M3948 1327c28,10 12,1 17,-2 4,-16 9,-11 -13,-19l-4 21z"/>
    <path class="fil0" d="M3872 1290c8,4 -10,15 15,4 10,-4 5,-5 5,-13 -2,0 -4,-3 -5,-1 -1,1 -4,-1 -4,-1l-11 11z"/>
    <path class="fil0" d="M3806 1256c20,8 8,9 18,-6 -7,-5 4,-10 -10,-4 -28,12 26,-17 -8,10z"/>
   </g>
   <g>
    <path class="fil0" d="M3144 270c60,13 776,16 900,19 82,1 241,21 296,-15 -31,-35 -71,-23 -129,-22 -50,1 -101,2 -152,2 -102,2 -203,4 -305,5 -203,3 -405,7 -610,11z"/>
    <path class="fil0" d="M5039 287c103,-1 716,-21 758,-5 2,-1 5,-4 6,-2l56 -8c21,-1 42,-1 63,-2 -72,8 -228,-6 -310,-8 -104,-3 -212,-1 -319,-3l-552 -10c-45,-1 -45,-2 -65,27 53,30 86,17 159,15 68,-2 136,-3 204,-4z"/>
    <path class="fil0" d="M4574 325l3 0 -24 -29 46 -20c9,-5 9,-6 15,-10l-62 -16c9,-28 15,-16 22,-46 -19,8 -25,13 -43,25l-19 -64 -26 62c-13,-8 -25,-16 -40,-22 4,25 11,21 21,46l-67 16c18,14 40,18 66,23 -8,22 -14,23 -23,45 28,-6 20,-9 46,-20 4,23 7,48 20,65l23 -63c48,25 35,23 42,8z"/>
   </g>
  </g>
 </g>
</svg>
