<?xml version="1.0" encoding="UTF-8"?>
<!DOCTYPE svg PUBLIC "-//W3C//DTD SVG 1.1//EN" "http://www.w3.org/Graphics/SVG/1.1/DTD/svg11.dtd">
<!-- Creator: CorelDRAW X6 -->
<svg xmlns="http://www.w3.org/2000/svg" xml:space="preserve" width="337.75mm" height="79.3879mm" version="1.1" style="shape-rendering:geometricPrecision; text-rendering:geometricPrecision; image-rendering:optimizeQuality; fill-rule:evenodd; clip-rule:evenodd"
viewBox="0 0 6446 1515"
 xmlns:xlink="http://www.w3.org/1999/xlink">
 <defs>
  <style type="text/css">
   <![CDATA[
    .fil22 {fill:#5B5B5B}
    .fil28 {fill:#727271}
    .fil21 {fill:#898989}
    .fil27 {fill:#9D9E9E}
    .fil10 {fill:#B2B3B3}
    .fil18 {fill:#C5C6C6}
    .fil12 {fill:#D9DADA}
    .fil11 {fill:#EBECEC}
    .fil0 {fill:#FEFEFE}
    .fil24 {fill:#130B01}
    .fil9 {fill:#13120D}
    .fil1 {fill:#181713}
    .fil8 {fill:#1A0D00}
    .fil19 {fill:#1A1608}
    .fil13 {fill:#1A1A15}
    .fil4 {fill:#1C1302}
    .fil16 {fill:#1F201B}
    .fil20 {fill:#211E16}
    .fil23 {fill:#221401}
    .fil6 {fill:#23221D}
    .fil7 {fill:#252521}
    .fil3 {fill:#271C07}
    .fil17 {fill:#282723}
    .fil15 {fill:#2A2617}
    .fil31 {fill:#2B230A}
    .fil14 {fill:#312F28}
    .fil2 {fill:#33322C}
    .fil26 {fill:#342C16}
    .fil5 {fill:#353532}
    .fil25 {fill:#383527}
    .fil29 {fill:#453C26}
    .fil30 {fill:#A89875}
    .fil33 {fill:#B8A986}
    .fil34 {fill:#D9CBA5}
    .fil32 {fill:#DDD2A7}
    .fil35 {fill:#FEFEFE;fill-rule:nonzero}
   ]]>
  </style>
 </defs>
 <g id="Layer_x0020_1">
  <metadata id="CorelCorpID_0Corel-Layer"/>
  <g id="_772497696">
   <path class="fil0" d="M581 1446c-27,-5 -165,-51 -179,-63 65,-5 135,39 179,63zm464 -90c16,-36 51,-75 87,-88l-65 68c-8,8 -15,12 -22,20zm-25 19c7,-14 14,-29 23,-45 20,-36 63,-80 108,-83 -10,13 -63,29 -92,71 -19,28 -18,44 -39,57zm171 -168c7,-24 26,-46 49,-52 -5,10 -44,48 -49,52zm-38 34c5,-26 15,-50 27,-66 23,-30 36,-36 59,-32 -1,1 -2,2 -3,2l-7 4c-66,31 -31,65 -76,92zm-12 -92c5,12 -2,4 10,1 10,-1 2,-3 10,1 14,-1 5,-2 16,-5 18,-6 -2,6 18,-2 11,-5 4,-4 19,-5l-13 10c-23,15 -36,34 -46,61l-10 30c-30,11 -43,18 -65,34 -20,13 -30,34 -46,55 6,-34 31,-79 51,-85 -56,28 -41,63 -70,119 -39,-1 -61,-25 -137,17l-112 66c29,-2 80,-44 112,-60 64,-30 74,-28 142,-11 -10,4 -65,-4 -98,6 -103,31 -128,112 -222,53 0,-1 -8,-6 -8,-6 -6,-5 -3,-1 -4,-6 -23,-10 -38,-30 -66,-37l93 67c0,0 2,2 2,2 -28,-3 -75,-26 -100,-41 -5,-2 -9,-5 -14,-7l-13 -10c-19,-3 -51,-32 -74,-34l0 2 107 61c33,18 85,40 129,41 58,1 84,-35 116,-54 28,-16 99,-43 136,-26 -22,11 -59,22 -83,32 -31,13 -57,27 -83,38 14,-15 31,-28 55,-40 23,-10 59,-13 77,-23 -54,-7 -122,38 -147,60 -55,50 -66,50 -149,21 -87,-31 -64,-22 -144,-63 -133,-66 -127,-16 -157,-46 146,-36 287,172 421,106 16,-7 20,-11 25,-20 -53,13 -46,51 -161,4 -23,-10 -50,-23 -70,-34 -21,-11 -50,-31 -66,-36 -8,-2 -4,0 -11,-4 -1,0 -6,-2 -6,-4 -1,-1 -2,-1 -3,-2 -42,-25 -92,-25 -140,-15 -8,-11 -12,-10 -19,-21 1,0 2,-1 3,-2 0,0 1,-1 2,-1l5 -3c37,-15 98,10 128,25l-1 -4c-11,-11 -46,-22 -63,-26 -32,-8 -51,-5 -80,5l-5 -8 -10 0c16,36 54,61 91,78 -84,-18 -86,-46 -197,-13 6,-15 20,-44 32,-52l-10 -2c4,-12 8,-25 10,-38 8,-35 10,-30 3,-35 -6,35 -18,75 -34,105 -28,54 -79,67 -58,70l-1 2 10 -10c65,-48 116,-64 208,-27 -68,-3 -142,-14 -185,37 42,-18 69,-39 128,-32 -44,11 -86,25 -107,53 42,-19 73,-47 134,-47 -32,15 -89,25 -114,66 16,-10 22,-19 43,-28 -6,13 -6,11 -14,21 9,-18 61,-47 98,-51 -40,18 -104,55 -106,93 5,-6 1,-2 9,-9 10,-8 5,-4 9,-6 10,-16 37,-30 53,-39 85,-51 125,-32 216,-6 48,13 93,27 139,42 120,40 124,-14 264,-67 22,-8 43,-15 64,-24 56,-24 133,-125 166,-152 20,-16 53,-64 68,-73 6,-13 12,-12 21,-23 -1,-21 -8,-22 -20,-32 -32,-8 -70,-7 -97,17 -5,5 -3,1 -4,6z"/>
   <path class="fil0" d="M817 1309c-30,-9 -44,-32 -49,-35l32 -20c-11,26 -1,46 17,55zm-283 -109c10,-5 35,17 51,27 15,10 39,23 56,29 -121,3 -77,-25 -107,-56zm438 -149c-4,15 -13,31 -17,50 -8,37 5,42 -21,63l-45 38c-6,3 -14,5 -19,-2l15 -21c13,-19 20,-15 38,-40l21 7 5 -63c-12,12 -28,29 -25,52l-14 -21 -17 24c-27,31 -16,9 -43,46l-9 13c-22,2 -108,2 -123,-9 -10,0 -2,1 -11,-1 -18,-3 5,5 -5,-3l-9 0c-19,-4 -47,-16 -64,-25l-18 -14c-9,-1 -16,-6 -22,-12 -15,-5 -29,-14 -45,-22 -13,-6 -31,-10 -47,-14 -35,-7 -84,-14 -112,2l16 17c69,-15 142,11 191,43 75,51 142,45 185,59 -23,2 -48,17 -77,20 -63,6 -86,-23 -128,-54 -42,-32 -55,-28 -34,-36 -24,-3 -117,-45 -150,-15 23,-5 6,-3 11,6 21,-7 57,-10 79,0 8,4 5,3 7,5 -18,-1 -47,-6 -61,4 11,0 21,-1 32,0 3,0 11,1 14,1l13 -3c-26,0 -37,-1 -49,2 -11,4 -6,3 -10,5 126,-8 119,26 194,70 96,58 117,-15 207,-4 -21,8 -67,23 -93,28 -133,31 -158,-71 -266,-78 15,10 10,5 13,2 -8,0 -19,0 -27,0 -15,1 -19,3 -26,8 45,-4 82,-5 108,21 6,57 28,62 87,63 -2,1 0,1 -8,3 -84,26 -122,-47 -198,-43 -1,1 -2,0 -3,2 -5,14 0,1 -6,4 -6,4 -2,0 -9,5 45,4 53,-1 95,19 30,14 50,31 92,28 46,-3 56,-18 108,-6 27,7 66,28 74,43 5,-3 5,-1 3,-2 3,3 -2,2 6,3l3 -2c0,0 1,0 1,0 0,0 1,0 2,0 3,0 17,7 25,8 13,3 46,8 60,4l29 -3c-9,-5 -31,-12 -38,-17 -10,-8 -15,-26 -11,-43 -10,10 -5,18 -3,33 -8,-5 -12,-6 -15,-18l-5 -25c-8,27 -3,45 20,51l-11 0c-12,-2 -22,-17 -26,-28 -11,-28 5,-32 23,-39 -20,1 -36,12 -52,20 -29,16 -31,1 -60,4 11,7 27,7 41,15 20,11 24,17 29,31 -25,-7 -64,-48 -91,-44 49,-8 56,-16 97,-32 58,-23 57,-6 108,-1 6,-10 -6,-2 10,-10 -10,-1 -13,-4 -18,-10 15,2 8,-2 20,3l19 -4c22,-19 21,-26 37,-55 1,-25 2,-51 8,-73 2,-8 7,-20 11,-28 2,-4 3,-4 7,-10 6,-12 2,0 7,-17l-25 15c-7,7 1,-5 -5,7z"/>
   <path class="fil1" d="M677 344l10 28c-12,-8 -5,-9 -17,-14l-8 28 -6 -28c-11,4 -6,3 -15,10l6 -23 30 -1zm110 -262c-7,4 -3,-4 -3,14 0,27 2,88 -3,113 0,4 -1,4 -2,8l-15 -8c-4,42 1,64 -26,91 -50,50 -127,35 -156,-6 -22,-32 -19,-46 -19,-88 -17,-14 7,0 -7,-1 0,0 -1,0 -1,0 -9,-2 -10,-5 -12,-12l-5 -113 -2 299c4,17 38,2 47,54l160 0c3,-49 42,-38 46,-54l-2 -297z"/>
   <path class="fil1" d="M296 565l25 0c3,41 -65,54 -90,34 -2,-19 9,-27 25,-33l-6 7c-3,2 -4,2 -6,5 -7,6 -6,5 -8,15l7 9c30,6 67,-5 72,-30l-19 -7zm-48 -50c20,5 26,31 30,52 4,17 4,13 -5,19 -5,-11 -3,-19 -10,-36 -6,-14 -11,-21 -15,-35zm-73 10c0,15 10,30 14,45 19,-6 42,-25 64,-22 -23,10 -39,12 -59,27l9 18c16,18 -4,22 28,30l-16 2c5,14 10,27 19,36 14,-1 24,-4 33,-11l-30 -3c43,2 58,-6 93,-23 23,-11 50,-31 48,-63 -24,-35 -57,-19 -96,-16 3,-8 4,-6 18,-8 20,-4 49,-5 67,5 35,19 9,46 -1,67l58 -24c-4,-44 2,-42 24,-63l-13 -36 -6 5c-10,9 -8,6 -13,5 6,1 1,-4 0,-8 -6,2 -6,2 -12,7l-1 10c0,1 -1,1 -1,2 -6,11 -7,-15 -5,15l-9 -11c-7,4 -6,3 -10,9 -1,-22 8,-13 -13,-12l6 -7c3,-5 1,0 2,-7 -9,-6 -4,-2 -12,-5 -1,12 -7,18 -16,22 -16,7 -10,0 -31,0 0,-11 -2,-9 0,-17 2,-5 3,-7 4,-8 7,-13 0,6 2,-4l-2 -26 40 2c-27,-3 -1,2 -13,-8l-43 -8c-10,8 -7,-6 -6,17 0,0 3,13 3,15 2,11 4,22 6,33 -14,-14 -25,-34 -41,-52 -13,15 -23,34 -36,48 3,-18 10,-45 6,-60 -21,30 -3,23 -14,32 0,7 2,17 -4,21l-7 -3c-2,13 0,8 -3,18 -33,-2 -13,-1 -32,3 -1,8 -9,-10 1,11z"/>
   <path class="fil0" d="M515 777c4,-12 13,-26 18,-36l21 -32c37,-48 137,-118 183,-144l-53 52c-10,8 -22,15 -30,24 -38,46 -26,20 -62,67 -33,43 -32,74 -40,88l-18 -10c21,-54 54,-86 61,-103l-34 33c-5,7 -3,4 -7,11 -15,24 -17,28 -24,58l-15 -8zm259 -260c-23,36 -157,111 -190,140l-32 32c-7,6 -23,29 -29,40 -9,17 -13,26 -18,44l-34 -11c-9,2 1,5 -10,0 -9,-3 0,6 -5,-6 -23,-3 -46,-12 -70,-16 -24,-4 -48,-8 -72,-9 -6,7 2,5 -15,9 21,10 104,11 147,30 0,7 -3,15 -6,22 -7,17 0,15 -18,11 -1,2 -6,6 -8,8l-1 5c45,1 154,64 189,94 18,15 48,53 60,80 19,44 20,68 21,122 -4,-12 13,-49 -10,-112 -13,-35 -31,-63 -53,-86 -29,-30 -113,-92 -173,-103l13 -36c77,13 181,85 220,158 12,22 30,71 28,99 5,6 2,-4 6,14 0,5 0,13 0,18 8,-5 5,-8 5,-21 1,-8 0,-17 0,-25 -2,-14 -6,-31 -10,-44 -20,-63 -63,-115 -114,-153 -11,-8 -20,-12 -32,-19 3,-26 30,-74 43,-88 18,-21 40,-49 61,-66 33,-28 71,-71 98,-96 7,-6 9,-9 15,-17 6,-9 6,-12 15,-14 16,-19 40,-48 52,-74l1 22c17,-51 31,-63 27,-129 -3,-46 -21,-85 -44,-108 4,55 39,38 29,156l-8 -21c-6,-34 -6,-25 -17,-55 3,55 33,100 -24,169 -8,10 -26,31 -37,36z"/>
   <path class="fil0" d="M807 532c-2,24 -53,68 -70,85 -10,10 -8,10 -20,19l-43 36c-10,12 -8,11 -19,20 -23,21 -53,75 -35,115 14,32 56,47 76,85l0 -14c-2,0 -57,-63 -62,-74 -18,-42 15,-80 32,-101 16,15 82,112 79,148 17,-6 5,3 8,-12 2,-7 -7,-27 -9,-34 -12,-33 -43,-85 -63,-109 12,10 19,22 30,34 11,10 8,6 15,17 19,24 23,23 45,59 9,15 14,29 23,44 -14,22 -31,32 -46,64 -12,28 -16,62 -12,99 1,-11 7,-40 17,-50 -1,-20 37,-63 53,-72 4,27 9,59 5,88 2,-1 7,-2 8,-3 0,0 2,-7 2,-11 1,-13 0,-25 1,-37 2,-18 -3,-32 -4,-51 23,-7 47,-24 79,-35 30,-11 70,-9 97,-20 -4,0 -15,-1 -18,-2l-15 -6c-61,7 -125,30 -167,70 -15,15 -25,30 -39,44 12,-56 89,-104 156,-123 82,-22 158,-2 243,-36 -22,-1 -131,22 -148,12l-40 4c-7,-9 -3,11 0,-2l3 -5 -24 4c-41,19 -73,11 -140,60 -1,-2 -32,-61 -50,-84l-65 -76 73 -66c5,-11 7,-13 16,-22 8,-9 9,-11 17,-21 7,-10 26,-43 29,-47l9 -29c-4,5 -8,11 -13,18 -7,12 -4,10 -14,17z"/>
   <path class="fil0" d="M1153 711c-22,37 -151,59 -184,67l-3 5c-3,13 -7,-7 0,2l40 -4c34,5 152,-35 188,-93 18,-29 12,-51 21,-74 11,78 -33,126 -84,149 52,-3 93,-30 125,-63 38,-41 48,-74 45,-143 22,30 11,93 -5,127 -4,8 -8,15 -13,22 -10,13 -44,44 -64,54 -72,39 -170,49 -258,54l15 6c3,1 14,2 18,2 28,4 118,-10 149,-17 110,-25 204,-103 179,-228 -7,-34 -21,-47 -22,-63 -17,-11 -41,-56 -73,-60 3,15 8,9 27,29 42,43 41,84 34,137 -6,-11 -6,-29 -9,-44 -7,-37 -28,-78 -64,-88 10,25 43,28 59,90 9,34 10,72 -14,101 -9,10 -2,5 -13,11 10,-38 23,-54 10,-102 -10,-34 -29,-59 -57,-68 8,17 55,31 55,108 -1,24 -5,49 -15,67 -8,14 -29,33 -48,38 13,-25 36,-41 36,-94 1,-32 -20,-80 -46,-77 42,70 7,134 -29,149z"/>
   <path class="fil0" d="M50 470c-5,16 -59,62 -49,151 12,108 106,166 202,196 27,8 140,32 164,29 7,-1 10,-1 14,-2 1,0 5,-2 6,-2 8,-3 2,1 7,-3l-35 -6c-127,-18 -284,-44 -333,-172 -15,-40 -20,-102 4,-136 -4,68 -2,114 46,158 23,20 22,30 74,54 32,14 223,65 264,74 2,-2 7,-6 8,-8 -43,-11 -96,-26 -140,-40 -50,-16 -84,-32 -118,-59 38,15 85,38 135,36 17,-4 9,-2 15,-9l-35 -3c-63,-12 -98,-19 -138,-53 -34,-30 -47,-92 -6,-128 -1,-15 1,-4 -8,-8 -15,18 -27,28 -28,65 -1,80 65,118 130,152 -22,-1 -82,-29 -100,-40 -88,-52 -121,-164 -66,-237 8,-10 9,-10 19,-17 13,-9 13,-5 11,-17 -18,3 -29,18 -43,25z"/>
   <path class="fil0" d="M857 1286c-6,-30 19,-37 45,-34 24,3 52,5 53,30 0,49 -91,35 -98,4zm149 -178l-8 -8c0,0 0,-1 0,-1l-6 4c-3,6 -5,13 -8,19 -4,10 -5,7 -5,18 -3,11 1,2 -4,11 -3,5 -3,3 -6,6 -16,29 -15,36 -37,55l-19 4c-12,-5 -5,-1 -20,-3 5,6 8,9 18,10 -16,8 -4,0 -10,10 14,2 18,5 28,12 -32,-3 -77,-16 -83,21 -4,17 1,35 11,43 7,5 29,12 38,17l-29 3c-4,8 -14,11 -19,19 144,1 98,-40 140,-55l6 47c1,-22 0,-43 9,-59 -5,-4 -3,-2 -7,-7 -3,-3 -2,-2 -4,-6l-19 8c6,-25 12,-5 48,-40 15,-15 34,-28 47,-42 36,-37 22,-80 35,-140 -12,23 -13,39 -14,67 -4,65 -15,51 -43,86 -13,16 -56,44 -77,55 -11,-25 -4,-19 11,-42 25,-40 15,-25 40,-52 3,-4 23,-25 24,-27 3,-4 13,-27 14,-32l34 -59c14,-17 13,-10 29,-22 9,6 2,-5 3,8 1,-1 2,-1 2,-2l6 -6c9,-8 11,-7 20,-4 -6,8 -2,2 -8,11 -5,9 -1,0 -6,12 -7,15 -7,16 -7,39l11 -8c9,-9 16,-36 24,-52l2 -4c0,0 5,-5 7,-6 -20,-28 -66,-6 -85,10 -14,12 -37,46 -48,71 -19,47 -23,39 -46,71 -9,12 -17,22 -26,35 -21,27 -13,26 -27,28 3,-11 27,-46 35,-59 10,-17 25,-41 29,-64z"/>
   <path class="fil2" d="M275 269c0,-5 -1,-11 2,-15l7 11 13 -9 -4 14 15 0 -14 9 9 6c-6,3 9,6 -11,2l-1 15 -8 -12 -9 13 0 -17 -16 2 17 -19zm-142 -3c20,5 -7,-5 4,3 17,13 13,4 21,21l1 3c5,5 7,-4 17,4l12 8c1,0 2,0 2,0 1,0 2,1 2,1 12,4 10,6 16,16l10 17c-4,-27 0,-13 6,-18 8,4 33,40 36,53 19,-11 6,-2 20,-25l14 -18c10,-1 -6,-12 5,5 1,-1 21,-1 -4,-21 24,5 28,-2 44,5 8,4 3,2 7,5 4,-9 1,-11 9,-18l-31 -72c-11,0 -26,1 -38,-5 -11,-6 -11,-14 -23,-21 -16,5 -125,50 -130,57z"/>
   <path class="fil3" d="M530 322c4,-44 -1,-165 0,-226 0,-27 -5,-56 5,-66 12,-12 244,-12 255,-1 9,9 5,1 6,17 5,52 -6,219 0,283 1,19 6,101 -12,109 -31,4 -90,1 -125,1l-114 -1c-25,-6 -18,-79 -15,-116zm-10 -295c-6,90 -1,192 -2,284 -1,28 -9,120 9,135 12,9 260,11 273,-2 14,-13 7,-107 7,-133 -1,-94 -2,-188 -2,-281 -8,-23 -36,-17 -60,-17l-165 -1c-30,0 -47,-8 -60,15z"/>
   <path class="fil4" d="M878 577c-13,-2 -13,-4 -22,-10 1,-22 139,-346 158,-383 29,-1 162,65 201,80 15,6 31,13 44,18 -1,38 -63,158 -81,201 -13,33 -68,171 -87,186 -22,-3 -85,-34 -110,-45 -25,-11 -88,-29 -103,-47zm20 -153c-4,23 -32,76 -42,101 -24,58 -16,54 38,76 35,14 191,90 209,81 10,-6 171,-385 167,-396 -16,-20 -48,-30 -77,-41 -13,-6 -28,-11 -40,-17 -13,-5 -34,-13 -43,-21 -20,-5 -76,-35 -90,-34 -21,1 -37,57 -46,77l-76 174z"/>
   <path class="fil5" d="M664 79l7 27c8,-4 11,-9 17,-16l-10 28 -31 0 -8 -27c5,6 10,10 16,15l9 -27zm-90 -22c18,0 -1,13 -5,14l8 11c0,0 1,1 1,1l5 4c23,12 27,2 23,34l-5 17c-1,0 -2,1 -2,2 18,-8 6,-4 10,2 22,-9 52,-19 75,-10 5,-4 -9,-13 18,-3 9,-10 -6,-4 6,-5 11,-1 -7,12 21,-6l20 -14c0,-1 1,-2 1,-2l21 -22c1,0 2,-1 2,-1 1,-1 3,-2 4,-3 -18,-19 -25,-17 -36,-46l-157 0 -10 27z"/>
   <path class="fil0" d="M619 276l0 0zm-13 -1c8,1 5,2 12,9 6,6 6,6 15,10 39,18 79,2 98,-46 4,-72 -44,-95 -84,-85 -29,7 -36,17 -47,39 -13,26 -2,51 6,73z"/>
   <path class="fil0" d="M565 1340c2,-2 2,-2 8,-5 26,-12 47,-6 72,8 26,14 36,33 54,53 -5,-13 -22,-36 -29,-43 -13,-11 -25,-14 -33,-20l-8 -5c-1,-1 -2,-2 -2,-3 -1,-1 -2,-2 -3,-3 49,4 75,39 93,72l16 37c-2,-49 -38,-85 -77,-108 76,-2 95,141 129,85l27 -55c-22,11 -23,45 -38,61 -20,0 -21,-7 -29,-25 -6,-15 -8,-23 -17,-34 8,9 26,29 41,36 -2,-4 -28,-34 -30,-36 -11,-10 -27,-21 -40,-29l98 21c-27,19 -38,3 -64,-5 10,13 27,20 43,18 22,-2 18,-14 46,-12 -3,18 -16,25 -15,55 6,-18 12,-44 27,-55 2,4 2,2 1,10 -1,4 -2,7 -4,11 -3,11 -3,10 -2,23 35,-50 54,-22 105,-44 -29,0 -75,5 -96,22 2,-11 7,-17 9,-22 5,-8 15,-11 19,-19 -14,4 -47,-1 -60,-4 -8,-1 -22,-8 -25,-8 -1,0 -2,0 -2,0 0,0 -1,0 -1,0l-3 2c-8,-1 -3,0 -6,-3 -28,-2 -61,-44 -147,-32 -80,12 -80,15 -147,-15 41,28 68,36 131,24 24,-5 51,-6 77,-3 29,4 44,15 66,20 -16,8 -121,-29 -195,10 -28,15 -23,15 -55,6 29,22 45,6 58,8 11,1 -6,0 8,6z"/>
   <path class="fil6" d="M128 322l15 3 18 -16c-1,12 -2,8 2,15l12 -2c-4,6 -7,8 -11,11l8 5c-16,8 -10,9 -13,18l-7 -10 -10 11 1 -17c-1,1 -7,2 -8,2 -9,0 -3,1 -8,-2l11 -7 -10 -11zm-23 44l22 5c9,39 -3,15 6,39 4,10 9,-1 2,11 6,-4 7,-6 10,-13 10,5 3,5 21,10l0 -16 23 -10c-7,-17 -4,-2 -13,-16 12,1 20,1 30,7 12,-2 8,0 17,0 17,1 8,7 11,-4l-10 -58c-6,5 -10,-9 -6,18l-10 -17c-6,-10 -4,-12 -16,-16 0,0 -1,-1 -2,-1 0,0 -1,0 -2,0l-12 -8c-10,-8 -12,1 -17,-4l-1 -3c-8,-17 -4,-8 -21,-21 -11,-8 16,2 -4,-3l-17 3c-3,28 0,51 -25,58 3,-10 8,-10 14,-21 6,-11 6,-19 6,-33l-36 14c0,11 24,69 30,79z"/>
   <path class="fil0" d="M517 535l34 41c5,6 6,9 10,16 3,2 7,4 12,8 6,5 6,6 11,10 -1,12 2,3 -3,13 5,4 0,3 12,3 22,-10 105,-71 125,-88 13,-11 28,-32 34,-36 4,-13 10,-20 13,-33 -9,4 -8,4 -14,12 -4,7 -1,3 -6,9 -6,6 -3,3 -9,7l-8 11c-19,19 -16,22 -31,28 -2,3 1,0 -4,5 -1,1 -3,3 -4,3l-73 49c-10,-11 -14,-15 -16,-25 -9,-7 -3,-1 -10,-10 -2,-3 -5,-8 -6,-11 -5,-8 -9,-14 -12,-24l-22 -50c-1,33 23,77 41,102 24,35 14,25 11,29 -13,2 -19,-17 -26,-25l-40 -45c-92,-126 -46,-158 -43,-239 -3,12 -14,31 -18,49 -5,22 -4,45 -4,68 -2,-2 -2,-2 -5,-7 -2,-4 -1,-2 -3,-6 0,-1 -2,-10 -3,-11 -19,-107 35,-134 33,-169 -7,11 -16,15 -24,30 -24,42 -31,90 -22,138 8,42 46,125 70,148z"/>
   <path class="fil0" d="M428 581c-3,-28 7,-43 24,-54 5,16 11,20 11,37 -9,10 -23,15 -35,17zm-295 -315c5,-7 114,-52 130,-57 12,7 12,15 23,21 12,6 27,5 38,5l31 72c6,13 30,74 37,79 4,14 35,94 43,100l13 36c-22,21 -28,19 -24,63l-58 24c10,-21 36,-48 1,-67 -18,-10 -47,-9 -67,-5 -14,2 -15,0 -18,8 39,-3 72,-19 96,16 2,32 -25,52 -48,63 -35,17 -50,25 -93,23l30 3c-9,7 -19,10 -33,11 -9,-9 -14,-22 -19,-36l16 -2c-32,-8 -12,-12 -28,-30l-9 -18c20,-15 36,-17 59,-27 -22,-3 -45,16 -64,22 -4,-15 -14,-30 -14,-45 -15,-14 -27,-56 -36,-77 -11,-26 -26,-56 -34,-82 -6,-10 -30,-68 -30,-79l36 -14c0,14 0,22 -6,33 -6,11 -11,11 -14,21 25,-7 22,-30 25,-58l17 -3zm138 -58c6,-9 31,-16 34,-16 8,8 13,23 15,35 -36,0 -27,-4 -49,-19zm-171 162c18,48 43,105 64,150 23,50 43,103 66,147 20,-1 223,-87 239,-99 3,-30 -63,-148 -65,-177 -10,-7 -81,-184 -92,-207 -29,0 -94,35 -125,47 -32,12 -92,39 -118,52 0,25 21,64 31,87z"/>
   <path class="fil0" d="M322 1325l10 0 -6 -17c71,-19 97,13 143,28 -15,-14 -38,-26 -63,-34 -44,-14 -47,-5 -84,0l-7 -20c61,-35 165,43 170,61 3,12 7,3 -5,11l1 4c12,9 4,3 16,9 17,8 11,5 5,8 1,1 2,1 3,2 0,2 5,4 6,4 7,4 3,2 11,4 -3,-6 -7,-10 -8,-12 -3,-10 -7,-3 2,-9l0 -2 -85 -70c-28,-18 -82,-40 -117,-20 -6,-29 57,-22 76,-17 32,8 48,22 73,34 -18,-22 -58,-43 -99,-48l6 -4c3,-1 5,-2 8,-3 9,-2 11,-1 19,0 7,-5 3,-1 9,-5 6,-3 1,10 6,-4 1,-2 2,-1 3,-2 -39,4 -49,3 -84,15 54,-30 62,-33 136,-31 -30,-17 -86,-4 -117,6 22,-13 40,-32 76,-34 7,-5 11,-7 26,-8 8,0 19,0 27,0 -3,3 2,8 -13,-2 -39,1 -57,2 -91,18 -18,9 -59,33 -60,46 23,-28 39,-71 109,-80 4,-2 -1,-1 10,-5 12,-3 23,-2 49,-2l-13 3c-3,0 -11,-1 -14,-1 -11,-1 -21,0 -32,0 -37,-1 -89,35 -110,66 7,-17 20,-42 31,-50 9,-8 37,-27 54,-25 -5,-9 12,-11 -11,-6 -50,6 -101,70 -88,139 3,15 11,43 22,53z"/>
   <path class="fil0" d="M1110 207c9,8 30,16 43,21 12,6 27,11 40,17 29,11 61,21 77,41 4,11 -157,390 -167,396 -18,9 -174,-67 -209,-81 -54,-22 -62,-18 -38,-76 10,-25 38,-78 42,-101l-7 -8c-5,21 -17,43 -26,65 -5,11 -9,19 -14,29l-10 23c-6,10 0,2 -5,7 0,33 -13,40 26,58 16,7 48,17 61,28 47,13 102,49 148,63 52,16 59,-30 92,-111l61 -145c12,-26 60,-127 54,-153 -8,-18 -18,-17 -35,-25 -14,-6 -25,-11 -39,-17 -24,-10 -62,-23 -81,-35l-13 4z"/>
   <path class="fil7" d="M1087 304l0 4c0,1 1,2 1,2 1,0 2,1 2,1l3 2c21,4 27,5 38,19l-22 18c4,16 0,12 -2,31 29,7 -2,20 29,18 10,0 23,-3 30,-13 6,-8 -8,-4 4,-5 3,25 9,15 3,36 0,1 -1,2 -1,3l-2 9c7,9 -1,3 14,7 4,-12 6,-27 11,-38 -13,-2 -15,10 -7,-24 5,-19 11,-10 13,-24 0,-7 -4,-12 -3,-25l21 -13 -7 -18c-1,0 -2,-1 -3,0l-20 5c-1,-14 -1,-16 -10,-26 -12,19 1,6 -16,13l1 -15c-8,-3 -2,-2 -14,2 -4,1 -8,3 -15,4 10,4 6,4 2,11 -4,6 -3,3 -8,7 -17,13 -23,2 -42,9z"/>
   <path class="fil8" d="M92 379c3,21 65,159 78,188 60,140 41,128 129,91 26,-11 173,-69 181,-87 10,-22 -64,-154 -71,-187l-5 7c2,29 68,147 65,177 -16,12 -219,98 -239,99 -23,-44 -43,-97 -66,-147 -21,-45 -46,-102 -64,-150 -12,1 -8,-5 -8,9z"/>
   <path class="fil0" d="M46 283c-3,26 34,100 46,127 8,19 51,112 51,125 15,19 37,87 51,115 10,22 18,43 44,42 13,0 49,-18 64,-23 10,-8 81,-38 96,-44 17,-7 35,-15 50,-22 29,-11 27,-8 44,-28 1,-42 -62,-159 -76,-201 -1,1 -6,8 -7,10 7,33 81,165 71,187 -8,18 -155,76 -181,87 -88,37 -69,49 -129,-91 -13,-29 -75,-167 -78,-188 -9,-11 -34,-66 -36,-83 -2,-21 10,-25 25,-31 14,-6 29,-9 40,-19 -7,-5 -1,-2 -12,-4 -21,12 -54,15 -63,41z"/>
   <path class="fil9" d="M1195 398c-5,11 -7,26 -11,38 -1,5 -2,10 -4,16 -12,23 -13,0 -23,34 -2,9 -5,26 -14,31 -26,12 -12,0 -16,-3 -6,-17 -7,-88 -4,-107 -1,0 -2,-1 -2,-1l-8 -4c-7,-2 4,-12 -6,1 2,12 5,48 5,63 3,21 16,52 3,68 -4,-4 -6,-8 -9,-17 -2,-3 -2,-6 -4,-10l-4 -8c-7,17 -11,40 -25,50 -5,17 -12,21 -15,40 -4,4 -6,7 -9,14 3,4 -1,2 5,5 5,3 2,2 7,3 6,2 3,0 9,2 8,2 4,0 8,3l11 7c1,1 2,1 3,2l11 6c1,1 2,2 3,2 0,1 1,2 2,2l127 -305c-4,3 -6,0 -12,13 -1,1 -2,4 -2,5 -11,27 -21,29 -26,50z"/>
   <path class="fil10" d="M1164 271l-1 15c17,-7 4,6 16,-13 9,10 9,12 10,26l20 -5c1,-1 2,0 3,0l7 18 -21 13c-1,13 3,18 3,25 -2,14 -8,5 -13,24 -8,34 -6,22 7,24 5,-21 15,-23 26,-50 0,-1 1,-4 2,-5 6,-13 8,-10 12,-13l-127 305c-5,24 -9,37 -37,24 -13,-6 -41,-12 -37,-28 2,15 -2,5 -14,8l4 -21c-10,5 -1,5 -8,15l-15 -5 5 -8c-8,-6 -10,10 -5,-9l-7 10c-1,1 -2,3 -3,4 -1,-1 -2,-4 -2,-3l-5 -7c-2,-1 0,3 -10,2 -5,-14 -2,-11 -3,-21 -1,2 -1,11 -10,1 -15,-17 1,-14 1,-14l-7 -2 -3 8c-2,-3 -5,-17 -19,1 0,0 -2,0 -3,1 -2,4 -20,-3 -28,-3l4 -15 -15 9 -11 -6 -2 1c15,18 78,36 103,47 25,11 88,42 110,45 19,-15 74,-153 87,-186 18,-43 80,-163 81,-201 -13,-5 -29,-12 -44,-18 0,8 1,5 -7,6l41 20 -3 15c3,-12 4,-4 2,-17l-61 -20c0,0 -1,-1 -1,-1l-9 -6c-12,-7 -11,-5 -17,-4 1,8 1,6 4,14z"/>
   <path class="fil0" d="M86 1283l-1 4c41,-1 114,-61 148,-84 15,-10 32,-25 47,-32 -25,35 -133,106 -157,129 51,-17 113,-85 136,-99 -19,31 -68,72 -98,97l-28 22c-6,5 -5,4 -10,9 38,-15 91,-66 113,-88 -5,10 -13,21 -21,30 -11,12 -17,22 -26,30l-58 56c21,-9 60,-42 75,-61 6,-9 14,-16 20,-24 -14,49 -44,92 -68,124 47,-21 84,-148 104,-179 6,-8 12,-15 16,-24 5,-12 10,-20 18,-27 -8,8 7,2 -15,5 3,-11 1,-13 7,-13 -3,1 -6,5 -15,-4 -18,8 -72,50 -92,65 -15,11 -29,20 -46,32 -16,11 -31,24 -49,32z"/>
   <path class="fil11" d="M1085 389l-16 3c-4,-7 -7,-9 -3,-20 6,3 1,0 7,4 0,0 1,1 2,1l10 12zm-14 -15c-1,-17 -4,-16 7,-26 9,4 7,8 14,12l6 -11c-1,23 -1,18 -10,29l-17 -4zm-42 -49c0,-23 2,-17 11,-23 1,24 9,37 -10,51 -1,-3 0,-19 -1,-28zm2 -75c-12,25 -5,7 -6,31 -2,14 -3,21 -3,37 0,17 -2,50 -9,65 -6,18 -12,34 -17,51l-13 33c-2,13 -4,4 3,12l6 4c5,-4 15,-27 18,-40 9,9 12,-15 8,19l9 -4 30 -86c1,3 1,25 16,25 16,-1 7,0 12,-8 13,12 -17,67 -21,83l-26 -7 9 2c1,1 2,1 3,1 8,4 2,-2 7,5 6,8 3,13 3,13l4 -1c4,-2 0,19 2,-3 7,-5 1,1 6,-10l19 -47c1,1 3,1 3,3 1,2 2,2 3,3l8 25c1,1 1,2 2,3l6 9 -1 -2c0,-15 -3,-51 -5,-63 -14,-10 -3,-8 -17,-16 6,-12 1,-1 5,-8l3 -4c8,-14 9,-24 6,-38 -46,-14 -26,8 -48,26 -10,-26 -9,-96 -14,-102 -7,-22 4,-14 4,-30 0,-9 1,-1 -2,-7 -5,15 -6,15 -13,26z"/>
   <path class="fil0" d="M510 39c-1,84 -1,167 -2,250 0,42 -2,84 -1,125 3,56 34,45 81,46 41,1 83,0 125,0 30,0 92,8 102,-22 14,-43 -7,-193 2,-249 -6,14 -9,124 -4,139 0,-39 -1,-282 -8,-298 0,93 1,187 2,281 0,26 7,120 -7,133 -13,13 -261,11 -273,2 -18,-15 -10,-107 -9,-135 1,-92 -4,-194 2,-284l-5 12c-1,2 -1,9 -1,11 -1,6 -1,15 -1,21 0,15 0,29 0,43 0,30 0,59 -1,88l-2 -177 0 14z"/>
   <path class="fil12" d="M878 577l2 -1 0 -2 -18 -9c4,-23 15,-32 16,-54l10 -10c4,-12 -6,-8 12,-7 -1,0 -2,-3 -2,-2 0,0 -5,-4 -3,-10 34,11 75,39 108,46l4 -2 -53 -22 -3 -3 -54 -25 5 -13c9,5 12,6 23,10 4,2 7,2 10,5l11 10c0,-1 -2,-8 -2,-9l2 -12c-1,3 1,11 -21,3 -7,-2 -16,-7 -20,-10l7 -17 19 -45c6,-20 65,-154 72,-162 4,22 0,-2 -4,19l-1 6c-1,8 1,0 -2,8l-8 40c8,-6 4,-5 12,-18 18,-27 2,-12 10,-29 4,-8 7,-9 13,-14 -2,-14 2,-2 -5,-16l15 -12c8,-7 19,-4 24,4l6 16c11,-4 11,-4 16,-15 -8,-14 -10,-7 -20,-18l31 14 118 49c8,-1 7,2 7,-6 -39,-15 -172,-81 -201,-80 -19,37 -157,361 -158,383 9,6 9,8 22,10z"/>
   <path class="fil0" d="M273 1154c9,9 12,5 15,4 -6,0 -4,2 -7,13 22,-3 7,3 15,-5 -8,7 -13,15 -18,27l-27 70c7,5 5,0 -3,35 -2,13 -6,26 -10,38l10 2c20,-18 16,-29 27,-55 5,32 27,64 44,76 -20,-5 -50,-12 -67,3 72,0 68,14 103,18 -1,-1 -2,-3 -3,-2l-12 -13c-38,-35 -68,-81 -57,-138 12,-61 64,-110 118,-111l-16 -17c-30,4 -62,21 -88,36 -6,3 -6,3 -12,8l-12 11z"/>
   <path class="fil7" d="M931 398l3 4c3,5 0,1 3,6 3,4 5,7 8,10 9,-4 6,-7 18,-17 13,2 16,6 28,7 6,-8 6,-20 7,-31 10,6 3,6 15,6 7,-15 9,-48 9,-65 0,-16 1,-23 3,-37 1,-24 -6,-6 6,-31 -3,-7 5,-11 -8,-2 -6,5 -9,6 -13,14 -8,17 8,2 -10,29 -8,13 -4,12 -12,18l8 -40c3,-8 1,0 2,-8l1 -6c4,-21 8,3 4,-19 -7,8 -66,142 -72,162z"/>
   <path class="fil13" d="M175 525c-10,-21 -2,-3 -1,-11 19,-4 -1,-5 32,-3 3,-10 1,-5 3,-18l7 3c6,-4 4,-14 4,-21 11,-9 -7,-2 14,-32l-63 9c7,-4 33,-27 52,-37 -8,-9 -20,-21 -34,-23l-23 10 0 16c-18,-5 -11,-5 -21,-10 -3,7 -4,9 -10,13 7,-12 2,-1 -2,-11 -9,-24 3,0 -6,-39l-22 -5c8,26 23,56 34,82 9,21 21,63 36,77z"/>
   <path class="fil13" d="M1107 403c10,-13 -1,-3 6,-1l8 4c0,0 1,1 2,1 -3,19 -2,90 4,107 4,3 -10,15 16,3 9,-5 12,-22 14,-31 10,-34 11,-11 23,-34 2,-6 3,-11 4,-16 -15,-4 -7,2 -14,-7l2 -9c0,-1 1,-2 1,-3 6,-21 0,-11 -3,-36 -12,1 2,-3 -4,5 -7,10 -20,13 -30,13 -31,2 0,-11 -29,-18 2,-19 6,-15 2,-31l22 -18c-11,-14 -17,-15 -38,-19 12,22 21,-3 33,19 -5,9 1,4 -10,8l0 -3c0,-1 0,-2 0,-2l2 -4c0,-1 1,-2 2,-2 -22,0 -6,1 -29,-4 -22,-4 -19,4 -18,-18l14 1 0 -4 -17 -1c-7,20 -2,15 -13,24 -15,-53 1,-35 -6,-58 -5,-16 -2,-10 -9,-8 5,6 4,76 14,102 22,-18 2,-40 48,-26 3,14 2,24 -6,38l-3 4c-4,7 1,-4 -5,8 14,8 3,6 17,16z"/>
   <path class="fil0" d="M1151 1024c-38,22 -15,83 -43,115 3,-50 -2,-58 15,-103 -13,17 -21,42 -20,71 1,64 0,82 -59,120 -12,8 -48,32 -53,41 2,4 1,3 4,6 4,5 2,3 7,7l29 -22c-17,40 -25,46 -24,98 10,-27 -4,-40 30,-93 12,-19 47,-60 71,-33l-5 -8 -6 -4c7,-13 20,-27 30,-36 7,-7 30,-24 34,-32 -8,-4 0,-2 -10,-1 -12,3 -5,11 -10,-1l-20 13c7,-23 51,-116 56,-134 1,-6 1,-5 0,-8 -3,-10 3,-2 -3,-4 -2,1 -7,6 -7,6l-2 4c-8,16 -15,43 -24,52l-11 8c0,-23 0,-24 7,-39 5,-12 1,-3 6,-12 6,-9 2,-3 8,-11z"/>
   <path class="fil14" d="M1126 246c13,7 12,7 0,16l0 -16zm-36 -25c12,25 12,-1 6,33 -13,0 -18,3 -17,-13 1,-9 4,-20 11,-20zm-67 27c13,-9 5,-5 8,2 7,-11 8,-11 13,-26 3,6 2,-2 2,7 0,16 -11,8 -4,30 7,-2 4,-8 9,8 7,23 -9,5 6,58 11,-9 6,-4 13,-24l17 1c19,-7 25,4 42,-9 5,-4 4,-1 8,-7 4,-7 8,-7 -2,-11 7,-1 11,-3 15,-4 12,-4 6,-5 14,-2 -3,-8 -3,-6 -4,-14 6,-1 5,-3 17,4l9 6c0,0 1,1 1,1l61 20c2,13 1,5 -2,17l3 -15 -41 -20 -118 -49 -31 -14c10,11 12,4 20,18 -5,11 -5,11 -16,15l-6 -16c-5,-8 -16,-11 -24,-4l-15 12c7,14 3,2 5,16z"/>
   <path class="fil15" d="M572 223c19,-8 13,0 16,2l-13 4c5,6 1,3 9,5 1,1 2,2 2,1 0,-1 1,0 2,1 0,0 -4,12 -15,0 -6,-6 -3,-8 -1,-13zm36 -61c5,16 5,8 -2,16 -15,-7 -11,-9 2,-16zm112 16c-3,-3 -7,7 -3,-8 4,-14 0,-1 6,-6 4,9 5,6 -3,14zm-66 -38l19 0 -2 15c-16,5 -21,3 -17,-15zm-65 149c7,-8 1,-2 9,-8 7,-7 -3,-3 8,-6 -8,-22 -19,-47 -6,-73 11,-22 18,-32 47,-39 40,-10 88,13 84,85 1,-1 4,-3 5,-3 0,0 -7,-1 6,0 4,0 8,1 12,3 14,-13 -1,-76 -44,-99 -23,-12 -45,-18 -73,-10 -29,8 -52,29 -63,58 -12,29 -9,78 15,92z"/>
   <path class="fil16" d="M317 409c-7,1 -4,-2 -10,3 7,12 33,24 40,37l-2 1c12,10 -14,5 13,8l-40 -2 2 26c-2,10 5,-9 -2,4 -1,1 -2,3 -4,8 -2,8 0,6 0,17 21,0 15,7 31,0 9,-4 15,-10 16,-22 6,-3 -5,-6 12,-1l3 -16 12 10 9 -9c0,29 -2,4 5,15l14 0c1,4 6,9 0,8 5,1 3,4 13,-5l6 -5c-8,-6 -39,-86 -43,-100 -1,1 -2,2 -2,3l-6 8c-5,8 -1,3 -12,8l-9 4c19,3 22,4 17,23 -23,-1 -5,2 -18,-8 -1,0 -2,-1 -2,-2 -13,-10 -8,-6 -21,-4 -20,4 -21,-8 -22,-9z"/>
   <path class="fil17" d="M299 336l-6 35c-2,24 -2,7 5,13l60 -11c-4,11 -34,22 -41,36 1,1 2,13 22,9 13,-2 8,-6 21,4 0,1 1,2 2,2 13,10 -5,7 18,8 5,-19 2,-20 -17,-23l9 -4c11,-5 7,0 12,-8l6 -8c0,-1 1,-2 2,-3 -7,-5 -31,-66 -37,-79 -8,7 -5,9 -9,18 -4,-3 1,-1 -7,-5 -16,-7 -20,0 -44,-5 25,20 5,20 4,21z"/>
   <path class="fil15" d="M121 246c-11,10 -26,13 -40,19 -15,6 -27,10 -25,31 2,17 27,72 36,83 0,-14 -4,-8 8,-9 -10,-23 -31,-62 -31,-87 26,-13 86,-40 118,-52 31,-12 96,-47 125,-47 11,23 82,200 92,207l5 -7c-3,-13 -79,-190 -86,-202 -17,-25 -75,12 -99,22 -27,11 -79,36 -103,42z"/>
   <path class="fil14" d="M538 80l5 113c2,7 3,10 12,12 0,0 1,0 1,0 14,1 -10,-13 7,1 6,-13 12,-27 21,-38 7,-10 16,-17 25,-26 -4,-6 8,-10 -10,-2 0,-1 1,-2 2,-2l5 -17c4,-32 0,-22 -23,-34l-5 -4c0,0 -1,-1 -1,-1l-8 -11c4,-1 23,-14 5,-14 -7,2 -7,5 -15,11 -5,4 -2,1 -9,5 -10,5 -3,-1 -12,7z"/>
   <path class="fil18" d="M234 379c-3,11 6,5 -11,4 -9,0 -5,-2 -17,0 -28,10 26,-4 30,20 4,33 -7,-11 5,19 4,11 -1,11 0,14l22 6c9,-8 -4,6 5,-6l6 -9 15 7c7,-2 7,4 3,-2l10 10 43 8 2 -1c-7,-13 -33,-25 -40,-37 6,-5 3,-2 10,-3 7,-14 37,-25 41,-36l-60 11c-7,-6 -7,11 -5,-13l-9 15c3,-13 5,-17 7,-32 -13,7 -5,-1 -13,9l-8 25c0,0 -1,-1 -1,-1l0 -3c-7,-14 1,10 -16,-15 -11,-15 0,-3 -15,-12 1,12 2,12 4,20 1,8 2,3 0,10l-8 -8z"/>
   <path class="fil18" d="M539 430c-5,-13 -4,-25 -2,-39 21,5 36,21 42,42 -15,0 -26,3 -40,-3zm208 3c9,-26 14,-35 40,-42 2,14 2,29 -1,41l-39 1zm-209 -353l-4 13c-1,3 0,10 0,14l-4 215c-3,37 -10,110 15,116l114 1c35,0 94,3 125,-1 18,-8 13,-90 12,-109 -13,-31 3,-239 -10,-253l1 6 2 297c-4,16 -43,5 -46,54l-160 0c-9,-52 -43,-37 -47,-54l2 -299z"/>
   <path class="fil14" d="M684 132c26,4 37,14 51,28 6,7 11,13 16,23 5,7 8,20 13,26l15 8c1,-4 2,-4 2,-8 5,-25 3,-86 3,-113 0,-18 -4,-10 3,-14l-1 -6 -9 0c-1,1 -3,2 -4,3 0,0 -1,1 -2,1l-21 22c0,0 -1,1 -1,2l-20 14c-28,18 -10,5 -21,6 -12,1 3,-5 -6,5 -27,-10 -13,-1 -18,3z"/>
   <path class="fil0" d="M510 25l2 177c1,-29 1,-58 1,-88 0,-14 0,-28 0,-43 0,-6 0,-15 1,-21 0,-2 0,-9 1,-11l5 -12c13,-23 30,-15 60,-15l165 1c24,0 52,-6 60,17 7,16 8,259 8,298 -5,-15 -2,-125 4,-139 6,-29 2,-125 -2,-158l0 -8c-15,-27 -29,-22 -63,-22 -30,0 -60,-1 -89,-1 -30,0 -60,0 -90,0 -30,0 -57,-4 -63,25z"/>
   <path class="fil0" d="M910 1114l14 21c-3,-23 13,-40 25,-52 6,-16 14,-23 23,-32 6,-12 -2,0 5,-7l25 -15c-5,17 -1,5 -7,17 -4,6 -5,6 -7,10 -4,8 -9,20 -11,28 -6,22 -7,48 -8,73 3,-3 3,-1 6,-6 5,-9 1,0 4,-11 -9,-8 -2,3 -5,-8 0,-1 0,-8 0,-10 1,-4 2,-11 2,-15 3,-25 9,-65 34,-76 -15,34 -13,34 -18,72l6 -4c0,0 0,1 0,1l8 8c9,-12 41,-71 35,-87 -13,-10 -20,-9 -39,-8l-7 0c-31,23 -27,9 -51,43 -9,12 -12,15 -18,28 -6,11 -10,21 -16,30z"/>
   <path class="fil0" d="M619 1105c-4,-15 0,-26 -6,-45 -6,-17 -13,-25 -19,-42 -5,-2 -1,4 -7,-6 -7,-11 -3,-4 -5,-12 -12,-7 -21,-27 -28,-41 -7,-15 -11,-36 -20,-49 -1,21 3,36 11,54 7,17 16,25 22,40 -21,-12 -29,-23 -43,-44 -7,-10 -9,-17 -13,-29 -3,-13 -5,-26 -15,-35 -1,25 9,62 22,76 -7,-11 -21,-15 -31,-39 -6,-16 -11,-42 -17,-59 -25,34 20,101 62,124 71,40 63,43 87,107z"/>
   <path class="fil10" d="M957 418l9 -1 0 3 19 9c-15,11 -16,7 -17,-8 -10,9 -6,0 -8,15 0,0 13,37 -7,50 -2,26 -3,7 8,14l4 -20 37 19c-7,6 -9,-7 -23,7 36,6 28,-1 48,2l-6 6c-4,1 -6,0 -12,7 14,9 17,8 27,18 1,16 1,2 -4,8 -4,26 -1,6 6,13 5,-10 0,-9 4,-24l13 -4c-7,-38 -14,1 -9,-22l2 -5c-30,-6 -16,0 -18,-9 -3,-16 1,8 6,-15 -4,10 -4,11 -17,14 -3,-6 -4,-1 -2,-12 0,0 5,-10 5,-10 12,3 19,6 27,16l-3 14c5,6 -10,12 8,3l6 -20c0,0 3,-5 -3,-13 -5,-7 1,-1 -7,-5 -1,0 -2,0 -3,-1l-9 -2c-4,-4 3,-2 -11,-7l-9 4c4,-34 1,-10 -8,-19 -3,13 -13,36 -18,40l-26 -10c10,-44 21,-23 32,-48 -10,-14 -16,-17 -35,-19 -6,5 -4,-7 -6,12z"/>
   <path class="fil0" d="M367 846c4,2 2,2 10,4l18 4c9,1 16,2 24,4 3,39 0,51 10,88 5,6 7,11 11,19 3,5 3,5 5,9 7,13 3,3 5,12 21,11 31,42 60,37l-4 -5c0,0 -1,-1 -2,-2l-10 -8c-15,-11 -33,-30 -42,-48 -13,-25 -22,-65 -16,-98l34 12c20,3 51,18 66,27 6,-6 5,-2 6,-15 -19,-5 -43,-20 -66,-28 -26,-8 -55,-16 -82,-19 -5,4 1,0 -7,3 -1,0 -5,2 -6,2 -4,1 -7,1 -14,2z"/>
   <path class="fil10" d="M189 392c14,2 26,14 34,23 -19,10 -45,33 -52,37l63 -9c4,15 -3,42 -6,60 13,-14 23,-33 36,-48 16,18 27,38 41,52 -2,-11 -4,-22 -6,-33 0,-2 -3,-15 -3,-15 -1,-23 -4,-9 6,-17l-10 -10c4,6 4,0 -3,2l-15 -7 -6 9c-9,12 4,-2 -5,6l-22 -6c-1,-3 4,-3 0,-14 -12,-30 -1,14 -5,-19 -4,-24 -58,-10 -30,-20 -10,-6 -18,-6 -30,-7 9,14 6,-1 13,16z"/>
   <path class="fil19" d="M727 300c-8,0 -5,2 -11,-4 4,-15 0,-8 10,-10 4,13 4,1 1,14zm4 -52c-19,48 -59,64 -98,46 -9,-4 -9,-4 -15,-10 -7,-7 -4,-8 -12,-9 -11,3 -1,-1 -8,6 -8,6 -2,0 -9,8 2,8 2,9 11,16 6,4 12,8 18,11 14,8 28,12 46,12 -5,-5 -8,-10 -9,-20l8 10c5,-10 -3,-7 10,-10l-5 20c12,-1 24,-4 35,-9 12,-5 20,-9 24,-19 8,-3 1,2 7,-4 12,-9 20,-34 20,-48 -4,-2 -8,-3 -12,-3 -13,-1 -6,0 -6,0 -1,0 -4,2 -5,3z"/>
   <path class="fil0" d="M885 1031c-4,12 -49,52 -62,56l3 10c25,-11 74,-56 93,-80 11,-13 13,-28 24,-38 -1,-14 2,-15 4,-29 1,-14 -2,-23 -1,-35 -14,-17 -26,-40 -59,-30 -29,8 -30,36 -18,63l22 1c-5,-3 -12,-7 -18,-12 -5,-54 58,-51 59,2 1,37 -27,80 -47,92z"/>
   <path class="fil0" d="M748 29c44,1 43,-5 40,42 -20,-7 -36,-17 -40,-42zm-212 43c0,-15 -2,-29 4,-42l36 0c-1,21 -20,38 -40,42zm-6 250l4 -215c0,-4 -1,-11 0,-14l4 -13c9,-8 2,-2 12,-7 7,-4 4,-1 9,-5 8,-6 8,-9 15,-11l10 -27 157 0c11,29 18,27 36,46l9 0c13,14 -3,222 10,253 -6,-64 5,-231 0,-283 -1,-16 3,-8 -6,-17 -11,-11 -243,-11 -255,1 -10,10 -5,39 -5,66 -1,61 4,182 0,226z"/>
   <path class="fil0" d="M363 978l-15 -6c-12,-8 -16,-37 0,-44 25,-7 25,35 21,57 -8,36 -25,29 -42,47 77,3 78,-87 54,-108 -21,-18 -59,-9 -66,19 -9,35 23,59 48,35z"/>
   <path class="fil12" d="M1060 486l-6 20c-18,9 -3,3 -8,-3l2 2 -2 5c-5,23 2,-16 9,22l-13 4c-4,15 1,14 -4,24 -7,-7 -10,13 -6,-13l-3 -2 -7 1 8 7c-3,6 -4,10 -6,15l0 2 2 14 22 -3c4,9 2,3 10,8 3,-19 10,-23 15,-40 10,-29 -12,14 -2,-28l20 -46c1,-3 5,-9 9,-10l13 3 -6 -9c-1,-1 -1,-2 -2,-3l-8 -25c-1,-1 -2,-1 -3,-3 0,-2 -2,-2 -3,-3l-19 47c-5,11 1,5 -6,10 -2,22 2,1 -2,3l-4 1z"/>
   <path class="fil0" d="M785 657l5 22c2,-1 2,-3 2,-3 1,1 1,-2 2,-2 7,-16 -5,10 2,-5 2,-5 3,-8 5,-12l27 -2c14,34 -15,60 -35,85l-10 15 72 0 8 -33c-17,15 -21,13 -49,12 5,-4 21,-19 26,-25 39,-36 6,-90 -55,-52z"/>
   <path class="fil12" d="M754 248c0,14 -8,39 -20,48 -6,6 1,1 -7,4 -4,10 -12,14 -24,19 -11,5 -23,8 -35,9l5 -20c-13,3 -5,0 -10,10l-8 -10c1,10 4,15 9,20 -18,0 -32,-4 -46,-12 -6,-3 -12,-7 -18,-11 -9,-7 -9,-8 -11,-16 -24,-14 -27,-63 -15,-92 11,-29 34,-50 63,-58 28,-8 50,-2 73,10 43,23 58,86 44,99zm-145 -106c-9,9 -18,16 -25,26 -9,11 -15,25 -21,38 0,42 -3,56 19,88 29,41 106,56 156,6 27,-27 22,-49 26,-91 -5,-6 -8,-19 -13,-26 -5,-10 -10,-16 -16,-23 -14,-14 -25,-24 -51,-28 -23,-9 -53,1 -75,10z"/>
   <path class="fil20" d="M603 236c2,-21 13,-11 20,-5 3,-7 -6,-11 4,-5 6,3 5,11 5,11l-29 -1zm16 40l26 -29c-3,-8 1,-1 -4,-7 -5,-7 0,2 -6,-8 2,-5 3,-4 5,-7l5 -7c-15,-7 -23,-14 -26,-31 15,11 22,25 34,27 15,-24 -5,-27 10,-43 11,15 -4,23 9,43 10,-5 22,-18 35,-27 -4,10 -16,28 -28,32l9 9c12,-1 7,-4 19,-3l13 4c-5,10 -3,10 -20,8 -1,0 -4,-1 -5,-1 -9,0 -8,3 -17,6 17,18 13,6 20,25l-24 -18c-17,24 1,20 -11,42 -3,-4 -3,-1 -4,-9 -3,-28 9,-17 -5,-31 -9,2 -26,20 -35,25zm0 0l0 0z"/>
   <path class="fil0" d="M392 113c0,1 1,3 1,3 7,7 1,1 6,6 5,-30 25,-24 30,-16 6,6 4,-5 5,12 1,12 -7,14 -16,20 -1,1 -1,2 -2,2 -1,1 -2,2 -3,2 -1,1 -2,2 -3,3 20,2 13,1 27,11 2,17 0,27 -11,36 -11,9 -10,5 -22,9l-13 7c26,4 53,2 65,-15 15,-22 8,-42 -14,-54 15,-12 18,-12 14,-38 -14,-7 -61,-25 -64,12z"/>
   <path class="fil0" d="M102 853c-9,10 -4,11 -1,25 8,-8 6,-29 37,-18 6,21 0,26 -10,33l-10 6c0,0 -1,1 -2,1 19,5 35,12 26,36 -8,21 -29,15 -47,25 40,21 67,-14 72,-18 6,-39 -7,-36 -19,-47 42,-37 -6,-54 -46,-43z"/>
   <path class="fil21" d="M1024 618l-4 21c12,-3 16,7 14,-8 -4,16 24,22 37,28 28,13 32,0 37,-24 -1,0 -2,-1 -2,-2 -1,0 -2,-1 -3,-2l-11 -6c-1,-1 -2,-1 -3,-2l-11 -7c-4,-3 0,-1 -8,-3 -6,-2 -3,0 -9,-2 -5,-1 -2,0 -7,-3 -6,-3 -2,-1 -5,-5 3,-7 5,-10 9,-14 -8,-5 -6,1 -10,-8 0,1 -1,2 -1,2l-3 5c-1,1 -1,2 -2,3 -7,13 -5,16 -18,27z"/>
   <path class="fil0" d="M536 901c3,3 68,44 80,80l6 12c23,20 19,84 26,106 24,-15 -7,-102 -20,-129 -14,-30 -56,-69 -86,-84 -1,13 0,9 -6,15z"/>
   <path class="fil0" d="M869 190c-20,-3 -6,-3 -11,4 13,5 26,13 47,9 29,-7 40,-30 36,-64l-1 -5c-1,-1 -5,-6 -7,-8 -8,-12 -5,-2 -6,-12 -20,-8 -35,-15 -56,-2 27,6 45,8 42,41 -1,23 -18,40 -44,37z"/>
   <path class="fil22" d="M670 245l-15 3c3,-8 -2,-10 7,-10 3,0 6,5 8,7zm8 -12c-7,9 -2,2 -9,4 1,-14 0,-11 9,-10 1,3 8,-5 0,6zm-59 43c9,-5 26,-23 35,-25 14,14 2,3 5,31 1,8 1,5 4,9 12,-22 -6,-18 11,-42l24 18c-7,-19 -3,-7 -20,-25 9,-3 8,-6 17,-6 1,0 4,1 5,1 17,2 15,2 20,-8l-13 -4c-12,-1 -7,2 -19,3l-9 -9c12,-4 24,-22 28,-32 -13,9 -25,22 -35,27 -13,-20 2,-28 -9,-43 -15,16 5,19 -10,43 -12,-2 -19,-16 -34,-27 3,17 11,24 26,31l-5 7c-2,3 -3,2 -5,7 6,10 1,1 6,8 5,6 1,-1 4,7l-26 29z"/>
   <path class="fil13" d="M1027 458c14,5 7,3 11,7l26 7c4,-16 34,-71 21,-83 -5,8 4,7 -12,8 -15,0 -15,-22 -16,-25l-30 86z"/>
   <path class="fil0" d="M811 979c-4,22 -4,36 -11,58 -6,19 -16,34 -17,53 12,-7 51,-68 88,-74 15,-22 29,-9 40,-42 -13,6 -34,24 -48,33 -14,9 -37,28 -49,32 3,-19 8,-35 10,-55 1,-10 3,-21 3,-31 0,-4 0,-9 -1,-14 -2,-11 0,-4 -4,-11 -1,12 0,24 -1,37 0,4 -2,11 -2,11 -1,1 -6,2 -8,3z"/>
   <path class="fil1" d="M931 398l-19 45c24,-2 26,4 43,11 9,-27 4,-14 2,-36 2,-19 0,-7 6,-12 19,2 25,5 35,19 -11,25 -22,4 -32,48l26 10 -6 -4c-7,-8 -5,1 -3,-12l13 -33c5,-17 11,-33 17,-51 -12,0 -5,0 -15,-6 -1,11 -1,23 -7,31 -12,-1 -15,-5 -28,-7 -12,10 -9,13 -18,17 -3,-3 -5,-6 -8,-10 -3,-5 0,-1 -3,-6l-3 -4z"/>
   <path class="fil0" d="M1171 955c0,6 5,5 -6,4 3,5 7,9 22,8 19,-1 19,-6 21,-8l-10 -1 -1 -102c-13,0 -26,10 -38,15 11,8 6,0 16,7 0,15 0,29 0,43 0,13 3,27 -4,34z"/>
   <path class="fil10" d="M878 511c11,4 51,21 63,27 6,19 -5,13 6,34 1,0 3,3 3,4l9 -1c8,-7 5,-4 11,-11 4,-6 4,-7 11,-13 17,-13 22,-11 41,-5l7 -1c-4,-10 -10,-12 -22,-19l-4 2c-4,6 1,7 -23,-3 -10,-3 -18,-7 -27,-10 13,17 15,10 37,22 -16,8 -34,-4 -50,-11l-47 -20c-5,-4 -2,-1 -5,-5l-10 10z"/>
   <path class="fil0" d="M258 930c0,22 -23,41 -28,64 22,2 19,3 25,-16 6,-18 25,-73 34,-82 -8,-12 0,-6 -15,-9l-54 0c-7,11 -6,16 -7,29 21,-13 24,-10 58,-10 -4,15 -4,16 -13,24z"/>
   <path class="fil0" d="M1062 964c0,-1 -1,1 -2,3l44 -1c-1,-1 -2,-2 -2,-2l-7 -10c-4,-11 -2,-88 -2,-101l-38 17 16 8c0,1 2,103 -9,86z"/>
   <path class="fil0" d="M877 665l11 -3c2,15 1,30 1,45 0,7 1,20 1,26 -2,17 2,13 -11,15 8,13 -2,2 9,6 4,1 6,2 10,2 5,0 19,0 24,0 0,-1 -2,-4 -2,-3l-6 -8c-9,-20 2,-74 -4,-100 -17,2 -31,7 -33,20z"/>
   <path class="fil0" d="M998 868l-6 4c8,5 7,0 15,6l0 68c-2,18 -1,11 -10,13 9,12 18,8 44,8l-5 -6c-1,-1 -1,-2 -2,-3 -1,-1 -1,-1 -2,-3 -7,-14 0,-73 -4,-99 -11,1 -17,7 -30,12z"/>
   <path class="fil0" d="M501 687c-5,14 -2,7 -12,18 -5,6 -7,10 -12,17 -8,12 -14,23 -21,34 5,12 -4,3 5,6 11,5 1,2 10,0 5,-20 38,-59 55,-77 19,-22 43,-38 67,-59 -12,0 -7,1 -12,-3 -21,6 -61,49 -76,62l-4 2z"/>
   <path class="fil21" d="M880 574l0 2 11 6 15 -9 -4 15c8,0 26,7 28,3 1,-1 3,-1 3,-1l1 -22c-14,-10 -7,3 -21,-15l-25 -28 -9 11c-5,14 -22,17 -11,30 12,14 12,2 17,-2l-5 10z"/>
   <path class="fil0" d="M1223 870c6,5 6,2 14,5 0,20 7,68 -5,86l33 -2c-10,-14 -5,-87 -5,-104l-37 15z"/>
   <path class="fil10" d="M1073 549c14,-10 18,-33 25,-50l4 8c2,4 2,7 4,10 3,9 5,13 9,17 13,-16 0,-47 -3,-68l1 2 -13 -3c-4,1 -8,7 -9,10l-20 46c-10,42 12,-1 2,28z"/>
   <path class="fil3" d="M888 501c3,4 0,1 5,5l47 20c16,7 34,19 50,11 -22,-12 -24,-5 -37,-22 9,3 17,7 27,10 24,10 19,9 23,3 -33,-7 -74,-35 -108,-46 -2,6 3,10 3,10 0,-1 1,2 2,2 -18,-1 -8,-5 -12,7z"/>
   <path class="fil19" d="M880 574l5 -10c-5,4 -5,16 -17,2 -11,-13 6,-16 11,-30l9 -11 25 28c14,18 7,5 21,15l-1 22c14,-18 17,-4 19,-1l3 -8 -5 -5c0,-1 -2,-4 -3,-4 -11,-21 0,-15 -6,-34 -12,-6 -52,-23 -63,-27 -1,22 -12,31 -16,54l18 9z"/>
   <path class="fil21" d="M959 575l-9 1 5 5 7 2c0,0 -16,-3 -1,14 9,10 9,1 10,-1 1,10 -2,7 3,21 10,1 8,-3 10,-2l5 7c0,-1 1,2 2,3 1,-1 2,-3 3,-4l7 -10c-5,19 -3,3 5,9 1,0 14,-7 15,-7 16,-14 6,-17 6,-17 -6,-1 8,-4 -11,-2 -19,3 -2,-1 -8,4l-10 10c-1,-5 -3,-13 -4,-15l-4 -7c-8,-11 -11,5 -7,-23l-17 18 -7 -6z"/>
   <path class="fil23" d="M959 575l7 6 17 -18c-4,28 -1,12 7,23l4 7c1,2 3,10 4,15l10 -10c6,-5 -11,-1 8,-4 19,-2 5,1 11,2 0,0 10,3 -6,17 -1,0 -14,7 -15,7l-5 8 15 5c7,-10 -2,-10 8,-15 13,-11 11,-14 18,-27 1,-1 1,-2 2,-3l3 -5c0,0 1,-1 1,-2l-22 3 -2 -14c-9,9 -10,11 -13,24l-16 -5c-6,-18 -1,-6 1,-11 -4,-1 -16,2 -13,-18 1,-16 23,-18 37,1 0,1 1,2 1,2 1,1 1,2 2,3 0,0 1,2 1,2 2,-5 3,-9 6,-15l-8 -7c-19,-6 -24,-8 -41,5 -7,6 -7,7 -11,13 -6,7 -3,4 -11,11z"/>
   <path class="fil21" d="M912 443l-7 17c4,3 13,8 20,10 22,8 20,0 21,-3l-2 12c0,1 2,8 2,9 1,1 0,-1 2,5 0,0 1,7 2,5 0,-1 1,2 1,3l3 3 7 -4c-11,-7 -10,12 -8,-14 20,-13 7,-50 7,-50 2,-15 -2,-6 8,-15l-2 -1 0 -3 -9 1c2,22 7,9 -2,36 -17,-7 -19,-13 -43,-11z"/>
   <path class="fil0" d="M234 379l8 8c2,-7 1,-2 0,-10 -2,-8 -3,-8 -4,-20 15,9 4,-3 15,12 17,25 9,1 16,15l0 3c0,0 1,1 1,1l8 -25c8,-10 0,-2 13,-9 -2,15 -4,19 -7,32l9 -15 6 -35c-11,-17 5,-6 -5,-5l-14 18c-14,23 -1,14 -20,25 -3,-13 -28,-49 -36,-53l10 58z"/>
   <path class="fil24" d="M961 500l-7 4 53 22c12,7 18,9 22,19l3 2c5,-6 5,8 4,-8 -10,-10 -13,-9 -27,-18 6,-7 8,-6 12,-7l6 -6c-20,-3 -12,4 -48,-2 14,-14 16,-1 23,-7l-37 -19 -4 20z"/>
   <path class="fil12" d="M1024 570l0 -2c0,0 -1,-2 -1,-2 -1,-1 -1,-2 -2,-3 0,0 -1,-1 -1,-2 -14,-19 -36,-17 -37,-1 -3,20 9,17 13,18 -2,5 -7,-7 -1,11l16 5c3,-13 4,-15 13,-24z"/>
   <path class="fil3" d="M747 433l39 -1c3,-12 3,-27 1,-41 -26,7 -31,16 -40,42z"/>
   <path class="fil25" d="M788 71c3,-47 4,-41 -40,-42 4,25 20,35 40,42z"/>
   <path class="fil0" d="M459 682c-2,-5 4,0 -8,-6 -4,-3 -6,-3 -9,-5 -8,-7 -8,-13 -8,-23 -15,1 6,23 -33,30l10 6c19,12 10,11 19,26 12,-16 4,-23 29,-28z"/>
   <path class="fil26" d="M552 41c7,4 11,7 -5,11l5 -11zm-16 31c20,-4 39,-21 40,-42l-36 0c-6,13 -4,27 -4,42z"/>
   <path class="fil10" d="M361 489c8,3 3,-1 12,5 -1,7 1,2 -2,7l-6 7c21,-1 12,-10 13,12 4,-6 3,-5 10,-9l9 11c-2,-30 -1,-4 5,-15 0,-1 1,-1 1,-2l1 -10c6,-5 6,-5 12,-7l-14 0c-7,-11 -5,14 -5,-15l-9 9 -12 -10 -3 16c-17,-5 -6,-2 -12,1z"/>
   <path class="fil19" d="M548 424c-3,-18 2,-13 10,-12 1,14 -10,12 -10,12zm-9 6c14,6 25,3 40,3 -6,-21 -21,-37 -42,-42 -2,14 -3,26 2,39z"/>
   <path class="fil25" d="M271 208c22,15 13,19 49,19 -2,-12 -7,-27 -15,-35 -3,0 -28,7 -34,16z"/>
   <path class="fil4" d="M445 565c-9,-5 -7,-4 -11,-12 1,-1 8,-5 11,-5 11,0 5,2 9,5 -6,13 2,2 -9,12zm-17 16c12,-2 26,-7 35,-17 0,-17 -6,-21 -11,-37 -17,11 -27,26 -24,54z"/>
   <path class="fil21" d="M164 333c4,-3 7,-5 11,-11l-12 2c-4,-7 -3,-3 -2,-15l-18 16 -15 -3 10 11 -11 7c5,3 -1,2 8,2 1,0 7,-1 8,-2l-1 17 10 -11 7 10c3,-9 -3,-10 13,-18l-8 -5z"/>
   <path class="fil10" d="M275 269l-17 19 16 -2 0 17 9 -13 8 12 1 -15c20,4 5,1 11,-2l-9 -6 14 -9 -15 0 4 -14 -13 9 -7 -11c-3,4 -2,10 -2,15z"/>
   <path class="fil18" d="M296 565l19 7c-5,25 -42,36 -72,30l-7 -9c2,-10 1,-9 8,-15 2,-3 3,-3 6,-5l6 -7c-16,6 -27,14 -25,33 25,20 93,7 90,-34l-25 0z"/>
   <path class="fil21" d="M647 345l-6 23c9,-7 4,-6 15,-10l6 28 8 -28c12,5 5,6 17,14l-10 -28 -30 1z"/>
   <path class="fil27" d="M655 106c-6,-5 -11,-9 -16,-15l8 27 31 0 10 -28c-6,7 -9,12 -17,16l-7 -27 -9 27z"/>
   <path class="fil0" d="M817 1309c-18,-9 -28,-29 -17,-55l-32 20c5,3 19,26 49,35z"/>
   <path class="fil24" d="M951 501c0,-1 -1,-4 -1,-3 -1,2 -2,-5 -2,-5 -2,-6 -1,-4 -2,-5l-11 -10c-3,-3 -6,-3 -10,-5 -11,-4 -14,-5 -23,-10l-5 13 54 25z"/>
   <path class="fil12" d="M248 515c4,14 9,21 15,35 7,17 5,25 10,36 9,-6 9,-2 5,-19 -4,-21 -10,-47 -30,-52z"/>
   <path class="fil15" d="M1048 505l-2 -2 3 -14c-8,-10 -15,-13 -27,-16 0,0 -5,10 -5,10 -2,11 -1,6 2,12 13,-3 13,-4 17,-14 -5,23 -9,-1 -6,15 2,9 -12,3 18,9z"/>
   <path class="fil0" d="M1293 415c-6,13 -4,10 -18,12l8 6c16,13 4,9 17,19l2 -16 14 -4c-6,-16 -13,4 -13,-17 -6,-6 -3,9 -7,-8l-3 8z"/>
   <path class="fil0" d="M177 961c-9,18 10,9 -2,34 28,0 31,-50 2,-34z"/>
   <path class="fil0" d="M275 1002c-2,6 -4,-8 -2,8 2,11 3,4 4,10 3,8 -1,7 -4,18 30,-7 29,-48 2,-36z"/>
   <path class="fil15" d="M1071 374l17 4c9,-11 9,-6 10,-29l-6 11c-7,-4 -5,-8 -14,-12 -11,10 -8,9 -7,26z"/>
   <path class="fil11" d="M1078 312c16,1 8,-2 9,8 -19,-3 -6,-2 -9,-8zm15 1l-3 -2c0,0 -1,-1 -2,-1 0,0 -1,-1 -1,-2l-14 -1c-1,22 -4,14 18,18 23,5 7,4 29,4 -1,0 -2,1 -2,2l-2 4c0,0 0,1 0,2l0 3c11,-4 5,1 10,-8 -12,-22 -21,3 -33,-19z"/>
   <path class="fil28" d="M1090 221c-7,0 -10,11 -11,20 -1,16 4,13 17,13 6,-34 6,-8 -6,-33z"/>
   <path class="fil29" d="M1030 353c19,-14 11,-27 10,-51 -9,6 -11,0 -11,23 1,9 0,25 1,28z"/>
   <path class="fil0" d="M1019 728c0,-17 2,-18 -17,-19 -5,6 -10,13 -1,21 8,7 12,0 18,-2z"/>
   <path class="fil0" d="M1125 898c17,6 20,-4 18,-18 -15,-2 -26,-1 -18,18z"/>
   <path class="fil0" d="M11 418c6,0 5,-2 4,3 15,3 5,5 18,-1l1 -16c-8,-1 -3,-1 -16,-2l-5 4 -2 12z"/>
   <path class="fil0" d="M1124 932c-3,17 -1,20 16,17l4 -18c-9,-2 -14,-2 -20,1z"/>
   <path class="fil11" d="M671 155l2 -15 -19 0c-4,18 1,20 17,15z"/>
   <path class="fil18" d="M603 236l29 1c0,0 1,-8 -5,-11 -10,-6 -1,-2 -4,5 -7,-6 -18,-16 -20,5z"/>
   <path class="fil0" d="M65 812c3,-24 -19,-25 -16,-2l16 2z"/>
   <path class="fil12" d="M434 553c4,8 2,7 11,12 11,-10 3,1 9,-12 -4,-3 2,-5 -9,-5 -3,0 -10,4 -11,5z"/>
   <path class="fil11" d="M572 223c-2,5 -5,7 1,13 11,12 15,0 15,0 -1,-1 -2,-2 -2,-1 0,1 -1,0 -2,-1 -8,-2 -4,1 -9,-5l13 -4c-3,-2 3,-10 -16,-2z"/>
   <path class="fil4" d="M1085 389l-10 -12c-1,0 -2,-1 -2,-1 -6,-4 -1,-1 -7,-4 -4,11 -1,13 3,20l16 -3z"/>
   <path class="fil11" d="M606 178c7,-8 7,0 2,-16 -13,7 -17,9 -2,16z"/>
   <path class="fil23" d="M968 421c1,15 2,19 17,8l-19 -9 2 1z"/>
   <path class="fil11" d="M727 300c3,-13 3,-1 -1,-14 -10,2 -6,-5 -10,10 6,6 3,4 11,4z"/>
   <path class="fil30" d="M548 424c0,0 11,2 10,-12 -8,-1 -13,-6 -10,12z"/>
   <path class="fil31" d="M662 238c-9,0 -4,2 -7,10l15 -3c-2,-2 -5,-7 -8,-7z"/>
   <path class="fil23" d="M669 237c7,-2 2,5 9,-4 8,-11 1,-3 0,-6 -9,-1 -8,-4 -9,10z"/>
   <path class="fil32" d="M720 178c8,-8 7,-5 3,-14 -6,5 -2,-8 -6,6 -4,15 0,5 3,8z"/>
   <path class="fil33" d="M1126 262c12,-9 13,-9 0,-16l0 16z"/>
   <path class="fil31" d="M1078 312c3,6 -10,5 9,8 -1,-10 7,-7 -9,-8z"/>
   <path class="fil34" d="M547 52c16,-4 12,-7 5,-11l-5 11z"/>
  </g>
  <g id="_772535232">
   <path class="fil35" d="M1486 936l0 -18c11,-2 20,-5 24,-8 5,-3 9,-6 12,-10 2,-4 4,-10 6,-18 1,-8 1,-20 1,-37l0 -317c0,-17 0,-29 -1,-37 -2,-8 -4,-14 -6,-18 -3,-4 -7,-7 -12,-10 -4,-2 -12,-5 -24,-8l0 -18 161 0c46,0 84,5 113,15 29,10 54,25 75,45 20,20 35,44 45,73 10,30 15,65 15,106 0,41 -5,77 -14,109 -10,31 -23,57 -41,79 -16,18 -35,33 -58,45 -19,10 -40,17 -65,21 -25,4 -57,6 -98,6l-133 0zm112 -34c10,1 24,2 43,2 21,0 39,-2 55,-5 16,-4 31,-9 44,-16 13,-8 25,-18 36,-31 10,-13 19,-28 25,-45 7,-17 12,-36 15,-57 3,-20 4,-43 4,-68 0,-49 -7,-90 -21,-122 -14,-32 -35,-55 -61,-69 -26,-15 -57,-22 -93,-22 -16,0 -32,0 -47,1l0 432z"/>
   <path id="1" class="fil35" d="M2325 437l0 110 -36 0c-4,-12 -7,-22 -11,-31 -4,-9 -8,-17 -12,-23 -4,-6 -9,-11 -14,-15 -5,-3 -11,-6 -18,-7 -6,-1 -15,-2 -24,-2l-116 0 0 192 78 0c11,0 20,-2 26,-5 6,-3 11,-8 15,-15 4,-8 8,-19 11,-35l35 0 0 141 -35 0c-3,-15 -7,-26 -11,-33 -4,-8 -9,-13 -15,-16 -5,-4 -14,-5 -26,-5l-78 0 0 211 114 0c12,0 22,-1 29,-3 8,-2 14,-6 19,-11 6,-5 10,-11 14,-19 5,-8 8,-17 11,-25 3,-9 7,-22 11,-38l37 0 -7 128 -339 0 0 -18c15,-3 25,-8 30,-13 5,-4 9,-11 10,-20 2,-9 3,-22 3,-40l0 -317c0,-17 -1,-29 -2,-37 -1,-7 -3,-13 -6,-18 -3,-4 -7,-7 -11,-10 -5,-2 -13,-5 -24,-8l0 -18 342 0z"/>
   <path id="2" class="fil35" d="M2447 823c5,21 12,38 20,50 8,13 19,22 32,28 14,6 30,9 51,9 29,0 51,-7 66,-22 15,-15 23,-37 23,-65 0,-19 -3,-34 -10,-47 -6,-12 -16,-24 -31,-35 -14,-11 -36,-24 -66,-38 -28,-14 -51,-28 -67,-42 -17,-13 -29,-28 -38,-44 -8,-16 -12,-33 -12,-52 0,-27 7,-51 19,-71 13,-20 32,-36 57,-47 25,-11 53,-16 85,-16 18,0 37,1 54,3 18,2 40,6 67,13l0 99 -37 0c-5,-22 -12,-38 -21,-50 -8,-12 -18,-21 -30,-25 -11,-5 -26,-8 -44,-8 -16,0 -31,3 -43,9 -13,6 -23,15 -30,27 -7,12 -11,26 -11,42 0,17 3,32 9,44 7,12 16,23 29,33 14,10 33,22 59,35 31,15 55,30 73,43 17,14 30,29 40,46 10,17 14,37 14,60 0,26 -4,48 -12,65 -8,18 -19,33 -33,44 -14,11 -32,19 -51,24 -20,5 -42,7 -66,7 -38,0 -82,-6 -132,-19l0 -100 36 0z"/>
   <path id="3" class="fil35" d="M2757 437l396 0 0 127 -36 0c-6,-21 -11,-37 -16,-50 -5,-12 -11,-21 -17,-28 -6,-6 -12,-10 -19,-13 -6,-3 -16,-4 -30,-4l-46 0 0 375c0,14 1,26 2,34 2,9 4,16 7,21 4,5 8,8 14,11 5,3 14,6 26,8l0 18 -167 0 0 -18c7,-1 14,-3 19,-5 6,-2 10,-4 14,-7 4,-3 6,-7 9,-11 2,-4 4,-10 5,-18 2,-7 2,-19 2,-33l0 -375 -46 0c-11,0 -21,1 -28,3 -8,2 -15,7 -21,14 -6,7 -12,17 -17,30 -6,12 -10,29 -15,48l-36 0 0 -127z"/>
   <path id="4" class="fil35" d="M3333 845c0,16 0,28 2,36 1,7 3,13 5,18 3,4 6,8 11,11 5,3 14,6 25,8l0 18 -155 0 0 -18c15,-3 26,-8 31,-13 5,-4 8,-11 10,-20 1,-9 2,-22 2,-40l0 -317c0,-17 -1,-29 -2,-37 -1,-7 -3,-13 -6,-18 -3,-4 -6,-7 -11,-10 -5,-2 -13,-5 -24,-8l0 -18 155 0 0 18c-11,2 -19,5 -23,8 -5,2 -9,6 -12,10 -3,4 -5,10 -6,18 -1,8 -2,20 -2,37l0 317z"/>
   <path id="5" class="fil35" d="M3758 738c9,15 16,28 22,39 6,11 12,23 19,37l5 0c-2,-15 -3,-45 -4,-89 -1,-44 -1,-84 -1,-120l0 -77c0,-17 -1,-29 -2,-37 -1,-8 -2,-14 -5,-18 -2,-4 -6,-7 -11,-10 -4,-2 -12,-5 -23,-8l0 -18 132 0 0 18c-11,3 -19,5 -24,8 -4,2 -8,5 -11,9 -2,4 -5,10 -6,18 -1,8 -2,20 -2,38l0 411 -46 0 -204 -342c-13,-22 -22,-37 -27,-47 -5,-10 -10,-19 -15,-29l-6 0c2,19 3,53 4,102 0,49 1,98 1,147l0 75c0,16 0,28 1,36 1,7 3,13 6,18 2,4 6,8 11,11 5,3 13,6 24,8l0 18 -133 0 0 -18c15,-3 25,-8 30,-13 5,-4 9,-11 10,-20 2,-9 3,-22 3,-40l0 -317c0,-17 -1,-29 -2,-37 -1,-7 -3,-13 -6,-18 -3,-4 -7,-7 -11,-10 -5,-2 -13,-5 -24,-8l0 -18 114 0 181 301z"/>
   <path id="6" class="fil35" d="M4107 727l-101 -188c-12,-23 -22,-39 -28,-49 -6,-10 -13,-17 -19,-23 -6,-6 -14,-10 -22,-12l0 -18 156 0 0 18c-23,2 -35,12 -35,29 0,7 2,15 5,24 4,9 10,21 18,37l73 140 72 -127c10,-18 17,-32 21,-43 4,-11 6,-21 6,-31 0,-9 -2,-15 -8,-20 -5,-5 -13,-8 -23,-9l0 -18 139 0 0 18c-10,3 -19,8 -27,15 -7,6 -15,15 -23,26 -7,11 -19,30 -34,56l-102 173 0 119c0,14 1,25 2,33 2,9 4,16 8,21 3,5 8,9 13,12 6,3 15,6 27,8l0 18 -168 0 0 -18c12,-2 21,-5 26,-7 6,-3 11,-7 14,-12 3,-6 6,-13 7,-21 2,-9 3,-20 3,-34l0 -117z"/>
   <path id="7" class="fil35" d="M4679 903l96 0c10,0 19,-1 26,-2 7,-1 13,-3 18,-6 5,-2 10,-6 14,-10 4,-5 7,-11 11,-18 4,-7 7,-17 11,-28 3,-11 7,-28 12,-50l37 0 -8 147 -329 0 0 -18c15,-3 26,-8 31,-13 5,-4 8,-11 10,-20 1,-9 2,-22 2,-40l0 -317c0,-17 -1,-29 -2,-37 -1,-7 -3,-13 -6,-18 -3,-4 -6,-7 -11,-10 -5,-2 -13,-5 -24,-8l0 -18 154 0 0 18c-10,3 -18,5 -22,8 -5,2 -9,5 -12,9 -3,4 -5,10 -6,18 -2,8 -2,21 -2,38l0 375z"/>
   <path id="8" class="fil35" d="M5081 845c0,16 1,28 2,36 1,7 3,13 5,18 3,4 7,8 12,11 5,3 13,6 24,8l0 18 -154 0 0 -18c15,-3 25,-8 30,-13 5,-4 9,-11 10,-20 2,-9 2,-22 2,-40l0 -317c0,-17 0,-29 -1,-37 -2,-7 -4,-13 -6,-18 -3,-4 -7,-7 -12,-10 -4,-2 -12,-5 -23,-8l0 -18 154 0 0 18c-11,2 -18,5 -23,8 -5,2 -9,6 -11,10 -3,4 -5,10 -7,18 -1,8 -2,20 -2,37l0 317z"/>
   <path id="9" class="fil35" d="M5507 738c8,15 16,28 22,39 6,11 12,23 18,37l5 0c-1,-15 -2,-45 -3,-89 -1,-44 -2,-84 -2,-120l0 -77c0,-17 0,-29 -1,-37 -1,-8 -3,-14 -5,-18 -3,-4 -7,-7 -11,-10 -5,-2 -12,-5 -24,-8l0 -18 132 0 0 18c-11,3 -19,5 -23,8 -5,2 -8,5 -11,9 -3,4 -5,10 -6,18 -2,8 -3,20 -3,38l0 411 -45 0 -204 -342c-13,-22 -22,-37 -28,-47 -5,-10 -10,-19 -15,-29l-6 0c2,19 3,53 4,102 1,49 1,98 1,147l0 75c0,16 1,28 2,36 1,7 3,13 5,18 3,4 6,8 11,11 5,3 14,6 25,8l0 18 -134 0 0 -18c15,-3 26,-8 31,-13 5,-4 8,-11 10,-20 1,-9 2,-22 2,-40l0 -317c0,-17 0,-29 -2,-37 -1,-7 -3,-13 -6,-18 -3,-4 -6,-7 -11,-10 -5,-2 -12,-5 -24,-8l0 -18 115 0 181 301z"/>
   <path id="10" class="fil35" d="M6065 437l0 110 -35 0c-4,-12 -8,-22 -12,-31 -4,-9 -8,-17 -12,-23 -4,-6 -9,-11 -14,-15 -5,-3 -11,-6 -17,-7 -7,-1 -15,-2 -25,-2l-116 0 0 192 79 0c10,0 19,-2 25,-5 6,-3 11,-8 15,-15 4,-8 8,-19 12,-35l34 0 0 141 -34 0c-4,-15 -8,-26 -12,-33 -4,-8 -9,-13 -14,-16 -6,-4 -15,-5 -26,-5l-79 0 0 211 114 0c12,0 22,-1 29,-3 8,-2 14,-6 20,-11 5,-5 10,-11 14,-19 4,-8 7,-17 10,-25 3,-9 7,-22 12,-38l36 0 -7 128 -339 0 0 -18c15,-3 25,-8 30,-13 6,-4 9,-11 10,-20 2,-9 3,-22 3,-40l0 -317c0,-17 -1,-29 -2,-37 -1,-7 -3,-13 -6,-18 -3,-4 -7,-7 -11,-10 -5,-2 -13,-5 -24,-8l0 -18 342 0z"/>
   <path id="11" class="fil35" d="M6188 823c4,21 11,38 19,50 9,13 19,22 33,28 13,6 30,9 50,9 29,0 51,-7 66,-22 15,-15 23,-37 23,-65 0,-19 -3,-34 -9,-47 -7,-12 -17,-24 -32,-35 -14,-11 -36,-24 -65,-38 -29,-14 -52,-28 -68,-42 -17,-13 -29,-28 -37,-44 -9,-16 -13,-33 -13,-52 0,-27 7,-51 20,-71 12,-20 31,-36 56,-47 25,-11 53,-16 85,-16 19,0 37,1 54,3 18,2 40,6 67,13l0 99 -36 0c-6,-22 -13,-38 -22,-50 -8,-12 -18,-21 -30,-25 -11,-5 -26,-8 -44,-8 -16,0 -30,3 -43,9 -12,6 -22,15 -30,27 -7,12 -11,26 -11,42 0,17 3,32 10,44 6,12 16,23 29,33 13,10 32,22 58,35 32,15 56,30 73,43 17,14 31,29 40,46 10,17 15,37 15,60 0,26 -4,48 -12,65 -8,18 -20,33 -34,44 -14,11 -31,19 -51,24 -20,5 -42,7 -65,7 -39,0 -83,-6 -133,-19l0 -100 37 0z"/>
   <g>
    <path class="fil0" d="M3966 1188c20,31 27,71 0,103 -22,-31 -24,-76 0,-103zm-729 -118c-16,14 -65,36 -47,78 8,17 32,32 46,7 18,-33 -16,-35 -24,-37 93,-88 212,23 322,44 63,13 88,-6 134,-4 16,-16 42,-23 61,-32 -45,67 -2,112 32,68 -15,-37 -14,-12 -36,-19 6,-57 83,-103 152,-77 72,27 57,135 -38,113 -27,-15 -22,-77 16,-60 35,15 -11,7 24,24 10,-40 -25,-58 -56,-36 -45,32 -5,67 6,90 111,2 86,-24 110,-92 29,50 -6,44 -11,102 -5,42 13,85 38,108 23,-21 43,-61 39,-102 -5,-59 -40,-61 -14,-110 1,2 1,2 2,5 0,3 1,4 1,5l3 11c2,8 2,12 5,21 16,62 63,51 101,50 1,-1 2,-3 3,-4 1,-1 2,-3 3,-5 71,-97 -91,-110 -54,-45 20,-11 7,-37 42,-23 21,9 15,33 10,52 -95,50 -128,-65 -61,-100 69,-36 157,13 162,73 -19,9 -9,-1 -36,4l8 26c55,19 43,-40 33,-71 95,26 134,63 270,0 66,-31 195,-91 239,-12 -29,-9 -34,15 -23,37 59,33 92,-102 -85,-93 -158,38 -183,105 -334,78l17 -6c28,-5 110,8 83,-66 -13,-3 -31,-11 -38,9 -5,16 7,18 10,35 -72,25 -141,-18 -203,-35 -106,-28 -132,18 -183,58 -16,-10 -6,-3 -19,-15 -139,-135 -235,39 -366,-10 6,-25 16,-4 8,-45 -64,-7 -53,42 -21,59 34,20 75,9 110,4 -246,63 -164,-74 -441,-62z"/>
    <path class="fil0" d="M3846 1283c-20,-12 -7,-10 -30,-4 -11,17 -10,12 -3,29 30,17 46,2 33,-25z"/>
    <path class="fil0" d="M4088 1313c17,3 26,4 32,-9 8,-15 -6,-23 -6,-26l-32 2 6 33z"/>
    <path class="fil0" d="M4202 1302c22,-19 1,-28 1,-28 -28,-12 -33,4 -29,30 9,2 19,6 28,-2z"/>
    <path class="fil0" d="M3728 1274c-18,40 46,47 28,-3l-23 0c-1,-1 -3,2 -5,3z"/>
    <path class="fil0" d="M4263 1285c22,8 33,2 23,-23 -1,-1 -8,-16 -24,-1 -13,14 0,23 1,24z"/>
    <path class="fil0" d="M3646 1284c16,16 32,3 25,-24 -28,-7 -39,9 -25,24z"/>
    <path class="fil0" d="M4344 1267l18 2c3,-16 10,-9 -1,-27 0,0 -18,-11 -21,9 -6,31 0,7 4,16z"/>
    <path class="fil0" d="M3587 1267c1,-2 3,-6 3,-5 0,1 2,-4 2,-5 -1,-13 -2,-9 -6,-16 -32,-4 -33,30 1,26z"/>
    <path class="fil0" d="M4423 1246c10,-2 5,11 15,-5 15,-22 1,-18 0,-18 -24,-6 -31,-2 -15,23z"/>
    <path class="fil0" d="M3508 1246c29,-50 -55,-12 0,0z"/>
    <path class="fil0" d="M4489 1212c12,8 1,6 21,5 7,-33 1,-9 -5,-18 -7,-1 -15,0 -16,13z"/>
    <path class="fil0" d="M4559 1181c27,23 16,2 20,0 -8,-12 -16,-31 -20,0z"/>
    <path class="fil0" d="M3424 1215c26,10 11,1 16,-2 3,-15 8,-10 -13,-17l-3 19z"/>
    <path class="fil0" d="M3353 1181c8,4 -9,13 14,4 10,-4 5,-5 4,-12 -1,-1 -3,-3 -4,-2 0,2 -3,0 -4,0l-10 10z"/>
    <path class="fil0" d="M3292 1149c18,7 7,9 17,-5 -7,-5 3,-10 -10,-4 -25,12 25,-16 -7,9z"/>
   </g>
   <g>
    <path class="fil0" d="M2678 265c55,13 720,16 835,18 76,1 223,19 274,-14 -28,-33 -66,-21 -119,-20 -47,1 -94,1 -142,2 -94,2 -188,3 -282,5 -188,2 -375,6 -566,9z"/>
    <path class="fil0" d="M4435 281c96,-1 664,-19 704,-4 1,-1 4,-4 5,-3l52 -7c19,0 38,-1 58,-2 -67,8 -211,-5 -287,-7 -97,-3 -197,-1 -296,-2l-512 -10c-42,0 -42,-1 -60,25 49,28 80,16 148,14 62,-1 125,-3 188,-4z"/>
    <path class="fil0" d="M4004 316l3 0 -22 -27 42 -18c9,-4 9,-5 14,-9l-57 -15c8,-26 14,-15 20,-43 -17,8 -23,13 -39,24l-19 -60 -23 58c-13,-8 -24,-15 -37,-21 3,24 9,19 19,43l-62 15c17,12 36,17 61,21 -8,20 -13,22 -21,42 26,-6 18,-8 42,-18 4,20 6,44 19,59l21 -58c45,24 32,21 39,7z"/>
   </g>
  </g>
 </g>
</svg>
